<mxfile host="app.diagrams.net" agent="Mozilla/5.0 (Macintosh; Intel Mac OS X 10_15_7) AppleWebKit/537.36 (KHTML, like Gecko) Chrome/132.0.0.0 Safari/537.36" version="26.0.11" pages="2">
  <diagram name="Page-1" id="Bp5-fW7rLg_XyAEWbLBT">
    <mxGraphModel dx="1434" dy="733" grid="1" gridSize="10" guides="1" tooltips="1" connect="1" arrows="1" fold="1" page="1" pageScale="1" pageWidth="850" pageHeight="1100" math="0" shadow="0">
      <root>
        <mxCell id="0" />
        <mxCell id="1" parent="0" />
        <mxCell id="v28BNQaFbmHey_VNb7x9-12" value="" style="group" parent="1" vertex="1" connectable="0">
          <mxGeometry x="160" y="169" width="460" height="290" as="geometry" />
        </mxCell>
        <mxCell id="v28BNQaFbmHey_VNb7x9-10" value="" style="rounded=1;whiteSpace=wrap;html=1;gradientColor=none;fillColor=default;dashed=1;" parent="v28BNQaFbmHey_VNb7x9-12" vertex="1">
          <mxGeometry width="460" height="290" as="geometry" />
        </mxCell>
        <mxCell id="v28BNQaFbmHey_VNb7x9-3" value="" style="group" parent="v28BNQaFbmHey_VNb7x9-12" vertex="1" connectable="0">
          <mxGeometry x="180" y="101" width="100" height="88" as="geometry" />
        </mxCell>
        <mxCell id="v28BNQaFbmHey_VNb7x9-1" value="" style="aspect=fixed;sketch=0;html=1;dashed=0;whitespace=wrap;verticalLabelPosition=bottom;verticalAlign=top;fillColor=#2875E2;strokeColor=#ffffff;points=[[0.005,0.63,0],[0.1,0.2,0],[0.9,0.2,0],[0.5,0,0],[0.995,0.63,0],[0.72,0.99,0],[0.5,1,0],[0.28,0.99,0]];shape=mxgraph.kubernetes.icon2;kubernetesLabel=1;prIcon=node" parent="v28BNQaFbmHey_VNb7x9-3" vertex="1">
          <mxGeometry x="18.75" width="62.5" height="60" as="geometry" />
        </mxCell>
        <mxCell id="v28BNQaFbmHey_VNb7x9-2" value="mlops-work-00" style="text;html=1;align=center;verticalAlign=middle;resizable=0;points=[];autosize=1;strokeColor=none;fillColor=none;" parent="v28BNQaFbmHey_VNb7x9-3" vertex="1">
          <mxGeometry y="58" width="100" height="30" as="geometry" />
        </mxCell>
        <mxCell id="v28BNQaFbmHey_VNb7x9-4" value="" style="group" parent="v28BNQaFbmHey_VNb7x9-12" vertex="1" connectable="0">
          <mxGeometry x="280" y="101" width="100" height="88" as="geometry" />
        </mxCell>
        <mxCell id="v28BNQaFbmHey_VNb7x9-5" value="" style="aspect=fixed;sketch=0;html=1;dashed=0;whitespace=wrap;verticalLabelPosition=bottom;verticalAlign=top;fillColor=#2875E2;strokeColor=#ffffff;points=[[0.005,0.63,0],[0.1,0.2,0],[0.9,0.2,0],[0.5,0,0],[0.995,0.63,0],[0.72,0.99,0],[0.5,1,0],[0.28,0.99,0]];shape=mxgraph.kubernetes.icon2;kubernetesLabel=1;prIcon=node" parent="v28BNQaFbmHey_VNb7x9-4" vertex="1">
          <mxGeometry x="18.75" width="62.5" height="60" as="geometry" />
        </mxCell>
        <mxCell id="v28BNQaFbmHey_VNb7x9-6" value="mlops-work-01" style="text;html=1;align=center;verticalAlign=middle;resizable=0;points=[];autosize=1;strokeColor=none;fillColor=none;" parent="v28BNQaFbmHey_VNb7x9-4" vertex="1">
          <mxGeometry y="58" width="100" height="30" as="geometry" />
        </mxCell>
        <mxCell id="v28BNQaFbmHey_VNb7x9-7" value="" style="group" parent="v28BNQaFbmHey_VNb7x9-12" vertex="1" connectable="0">
          <mxGeometry x="80" y="101" width="100" height="88" as="geometry" />
        </mxCell>
        <mxCell id="v28BNQaFbmHey_VNb7x9-8" value="" style="aspect=fixed;sketch=0;html=1;dashed=0;whitespace=wrap;verticalLabelPosition=bottom;verticalAlign=top;fillColor=#2875E2;strokeColor=#ffffff;points=[[0.005,0.63,0],[0.1,0.2,0],[0.9,0.2,0],[0.5,0,0],[0.995,0.63,0],[0.72,0.99,0],[0.5,1,0],[0.28,0.99,0]];shape=mxgraph.kubernetes.icon2;kubernetesLabel=1;prIcon=node" parent="v28BNQaFbmHey_VNb7x9-7" vertex="1">
          <mxGeometry x="18.75" width="62.5" height="60" as="geometry" />
        </mxCell>
        <mxCell id="v28BNQaFbmHey_VNb7x9-9" value="mlops-ctrl-00" style="text;html=1;align=center;verticalAlign=middle;resizable=0;points=[];autosize=1;strokeColor=none;fillColor=none;" parent="v28BNQaFbmHey_VNb7x9-7" vertex="1">
          <mxGeometry x="5" y="58" width="90" height="30" as="geometry" />
        </mxCell>
        <mxCell id="v28BNQaFbmHey_VNb7x9-11" value="&lt;b&gt;Proxmox VLAN&lt;/b&gt;" style="text;html=1;align=center;verticalAlign=middle;resizable=0;points=[];autosize=1;strokeColor=none;fillColor=none;" parent="v28BNQaFbmHey_VNb7x9-12" vertex="1">
          <mxGeometry x="10" width="110" height="30" as="geometry" />
        </mxCell>
      </root>
    </mxGraphModel>
  </diagram>
  <diagram id="4EFYUFrhyeEERjlpX8zz" name="Page-2">
    <mxGraphModel dx="2049" dy="1047" grid="1" gridSize="10" guides="1" tooltips="1" connect="1" arrows="1" fold="1" page="1" pageScale="1" pageWidth="850" pageHeight="1100" math="0" shadow="0">
      <root>
        <mxCell id="0" />
        <mxCell id="1" parent="0" />
        <mxCell id="okIVirDaHwEpkNx_RTwC-1" value="" style="group" vertex="1" connectable="0" parent="1">
          <mxGeometry x="40" y="600" width="795.46" height="70" as="geometry" />
        </mxCell>
        <mxCell id="okIVirDaHwEpkNx_RTwC-2" value="" style="group" vertex="1" connectable="0" parent="okIVirDaHwEpkNx_RTwC-1">
          <mxGeometry width="795.46" height="70" as="geometry" />
        </mxCell>
        <mxCell id="okIVirDaHwEpkNx_RTwC-3" value="" style="rounded=0;whiteSpace=wrap;html=1;fillColor=#CFCFCF;strokeColor=#000000;shadow=1;aspect=fixed;strokeWidth=2;movable=1;resizable=1;rotatable=1;deletable=1;editable=1;locked=0;connectable=1;container=0;" vertex="1" parent="okIVirDaHwEpkNx_RTwC-2">
          <mxGeometry width="795.46" height="70" as="geometry" />
        </mxCell>
        <mxCell id="okIVirDaHwEpkNx_RTwC-4" value="" style="rounded=0;whiteSpace=wrap;html=1;fillColor=none;strokeColor=#000000;strokeWidth=2;container=0;" vertex="1" parent="okIVirDaHwEpkNx_RTwC-2">
          <mxGeometry x="30.190000000000055" width="736" height="70" as="geometry" />
        </mxCell>
        <mxCell id="H7LAwcqjLhsTPvcVJDRF-239" value="Aggregation Switch" style="text;html=1;align=center;verticalAlign=middle;whiteSpace=wrap;rounded=0;" vertex="1" parent="okIVirDaHwEpkNx_RTwC-2">
          <mxGeometry x="180" y="20" width="60" height="30" as="geometry" />
        </mxCell>
        <mxCell id="okIVirDaHwEpkNx_RTwC-5" value="" style="group" vertex="1" connectable="0" parent="okIVirDaHwEpkNx_RTwC-1">
          <mxGeometry x="709" y="14.5" width="26" height="41" as="geometry" />
        </mxCell>
        <mxCell id="okIVirDaHwEpkNx_RTwC-6" value="" style="rounded=0;whiteSpace=wrap;html=1;fillColor=#000000;strokeColor=none;container=0;" vertex="1" parent="okIVirDaHwEpkNx_RTwC-5">
          <mxGeometry width="26" height="16" as="geometry" />
        </mxCell>
        <mxCell id="okIVirDaHwEpkNx_RTwC-7" value="" style="rounded=0;whiteSpace=wrap;html=1;fillColor=#000000;strokeColor=none;container=0;" vertex="1" parent="okIVirDaHwEpkNx_RTwC-5">
          <mxGeometry y="25" width="26" height="16" as="geometry" />
        </mxCell>
        <mxCell id="okIVirDaHwEpkNx_RTwC-8" value="" style="group" vertex="1" connectable="0" parent="okIVirDaHwEpkNx_RTwC-1">
          <mxGeometry x="674" y="14.5" width="26" height="41" as="geometry" />
        </mxCell>
        <mxCell id="okIVirDaHwEpkNx_RTwC-9" value="" style="rounded=0;whiteSpace=wrap;html=1;fillColor=#000000;strokeColor=none;container=0;" vertex="1" parent="okIVirDaHwEpkNx_RTwC-8">
          <mxGeometry width="26" height="16" as="geometry" />
        </mxCell>
        <mxCell id="okIVirDaHwEpkNx_RTwC-10" value="" style="rounded=0;whiteSpace=wrap;html=1;fillColor=#000000;strokeColor=none;container=0;" vertex="1" parent="okIVirDaHwEpkNx_RTwC-8">
          <mxGeometry y="25" width="26" height="16" as="geometry" />
        </mxCell>
        <mxCell id="okIVirDaHwEpkNx_RTwC-11" value="" style="group" vertex="1" connectable="0" parent="okIVirDaHwEpkNx_RTwC-1">
          <mxGeometry x="42.460000000000036" y="15" width="42" height="40" as="geometry" />
        </mxCell>
        <mxCell id="okIVirDaHwEpkNx_RTwC-12" value="" style="rounded=1;whiteSpace=wrap;html=1;fillColor=default;strokeColor=none;container=0;" vertex="1" parent="okIVirDaHwEpkNx_RTwC-11">
          <mxGeometry width="42" height="40" as="geometry" />
        </mxCell>
        <mxCell id="okIVirDaHwEpkNx_RTwC-13" value="" style="fontColor=#000000;verticalAlign=middle;verticalLabelPosition=middle;labelPosition=right;align=left;html=1;outlineConnect=0;fillColor=#d6d6d6;strokeColor=#999;gradientColor=none;gradientDirection=north;strokeWidth=2;shape=stencil(ZZExb8MgEIV/DWOQc6hJPaZpM3Xokrk6Y2JT2eCCXdqlv71HLlGCKoHgfe+E7h1C7WOPkxFQYZyMnoV6FgBfGCw2A2Egp2e4hoq1w9EwOjb2c7GzJfjqO892KsrVi6h2It8rofYnH0wX/OLawrjadsQu9xKD5kf6eZ6iUFR3oJVSklGji34J2kjtR4K/tEfTWqTzLfiPHAIOt7JCJNOQzr1GOp8CunZ1VcslzPtAQE6u4zjf3Mnq4VHWNaOfC9qAhHURGtRW1ptibPcoxygHQuTfTM6Uv+UM/gA=);labelBackgroundColor=none;shadow=0;glass=0;sketch=1;aspect=fixed;container=0;" vertex="1" parent="okIVirDaHwEpkNx_RTwC-11">
          <mxGeometry x="9" y="8" width="24" height="24" as="geometry" />
        </mxCell>
        <mxCell id="okIVirDaHwEpkNx_RTwC-14" value="" style="group" vertex="1" connectable="0" parent="okIVirDaHwEpkNx_RTwC-1">
          <mxGeometry x="639" y="14.5" width="26" height="41" as="geometry" />
        </mxCell>
        <mxCell id="okIVirDaHwEpkNx_RTwC-15" value="" style="rounded=0;whiteSpace=wrap;html=1;fillColor=#000000;strokeColor=none;container=0;" vertex="1" parent="okIVirDaHwEpkNx_RTwC-14">
          <mxGeometry width="26" height="16" as="geometry" />
        </mxCell>
        <mxCell id="okIVirDaHwEpkNx_RTwC-16" value="" style="rounded=0;whiteSpace=wrap;html=1;fillColor=#000000;strokeColor=none;container=0;" vertex="1" parent="okIVirDaHwEpkNx_RTwC-14">
          <mxGeometry y="25" width="26" height="16" as="geometry" />
        </mxCell>
        <mxCell id="okIVirDaHwEpkNx_RTwC-17" value="" style="group" vertex="1" connectable="0" parent="okIVirDaHwEpkNx_RTwC-1">
          <mxGeometry x="604" y="14.5" width="26" height="41" as="geometry" />
        </mxCell>
        <mxCell id="okIVirDaHwEpkNx_RTwC-18" value="" style="rounded=0;whiteSpace=wrap;html=1;fillColor=#000000;strokeColor=none;container=0;" vertex="1" parent="okIVirDaHwEpkNx_RTwC-17">
          <mxGeometry width="26" height="16" as="geometry" />
        </mxCell>
        <mxCell id="okIVirDaHwEpkNx_RTwC-19" value="" style="rounded=0;whiteSpace=wrap;html=1;fillColor=#000000;strokeColor=none;container=0;" vertex="1" parent="okIVirDaHwEpkNx_RTwC-17">
          <mxGeometry y="25" width="26" height="16" as="geometry" />
        </mxCell>
        <mxCell id="H7LAwcqjLhsTPvcVJDRF-1" value="" style="shape=mxgraph.rack.apc.apc_smart_ups_1000-3000_va_2u;html=1;labelPosition=right;align=left;spacingLeft=15;dashed=0;shadow=0;fillColor=#ffffff;" vertex="1" parent="1">
          <mxGeometry x="37.730000000000004" y="1160" width="800" height="110" as="geometry" />
        </mxCell>
        <mxCell id="H7LAwcqjLhsTPvcVJDRF-2" value="" style="html=1;verticalLabelPosition=bottom;verticalAlign=top;outlineConnect=0;shadow=0;dashed=0;shape=mxgraph.rack.hpe_aruba.switches.jl354a_aruba_2540_24g_4sfpplus_switch;" vertex="1" parent="1">
          <mxGeometry x="37.730000000000004" y="1100" width="800" height="60" as="geometry" />
        </mxCell>
        <mxCell id="H7LAwcqjLhsTPvcVJDRF-3" value="" style="group" vertex="1" connectable="0" parent="1">
          <mxGeometry x="40" y="960" width="795.46" height="140" as="geometry" />
        </mxCell>
        <mxCell id="H7LAwcqjLhsTPvcVJDRF-4" value="" style="rounded=0;whiteSpace=wrap;html=1;fillColor=#CCCCCC;strokeColor=#000000;shadow=1;aspect=fixed;strokeWidth=2;movable=1;resizable=1;rotatable=1;deletable=1;editable=1;locked=0;connectable=1;" vertex="1" parent="H7LAwcqjLhsTPvcVJDRF-3">
          <mxGeometry width="795.46" height="140" as="geometry" />
        </mxCell>
        <mxCell id="H7LAwcqjLhsTPvcVJDRF-5" value="" style="rounded=0;whiteSpace=wrap;html=1;fillColor=#CCCCCC;strokeColor=#000000;strokeWidth=2;movable=1;resizable=1;rotatable=1;deletable=1;editable=1;locked=0;connectable=1;" vertex="1" parent="H7LAwcqjLhsTPvcVJDRF-3">
          <mxGeometry x="30.190000000000026" width="736" height="140" as="geometry" />
        </mxCell>
        <mxCell id="H7LAwcqjLhsTPvcVJDRF-6" value="" style="group" vertex="1" connectable="0" parent="H7LAwcqjLhsTPvcVJDRF-3">
          <mxGeometry x="40.460000000000036" y="86" width="42" height="40" as="geometry" />
        </mxCell>
        <mxCell id="H7LAwcqjLhsTPvcVJDRF-7" value="" style="rounded=1;whiteSpace=wrap;html=1;fillColor=default;strokeColor=none;" vertex="1" parent="H7LAwcqjLhsTPvcVJDRF-6">
          <mxGeometry width="42" height="40" as="geometry" />
        </mxCell>
        <mxCell id="H7LAwcqjLhsTPvcVJDRF-8" value="" style="fontColor=#000000;verticalAlign=middle;verticalLabelPosition=middle;labelPosition=right;align=left;html=1;outlineConnect=0;fillColor=#d6d6d6;strokeColor=#999;gradientColor=none;gradientDirection=north;strokeWidth=2;shape=stencil(ZZExb8MgEIV/DWOQc6hJPaZpM3Xokrk6Y2JT2eCCXdqlv71HLlGCKoHgfe+E7h1C7WOPkxFQYZyMnoV6FgBfGCw2A2Egp2e4hoq1w9EwOjb2c7GzJfjqO892KsrVi6h2It8rofYnH0wX/OLawrjadsQu9xKD5kf6eZ6iUFR3oJVSklGji34J2kjtR4K/tEfTWqTzLfiPHAIOt7JCJNOQzr1GOp8CunZ1VcslzPtAQE6u4zjf3Mnq4VHWNaOfC9qAhHURGtRW1ptibPcoxygHQuTfTM6Uv+UM/gA=);labelBackgroundColor=none;shadow=0;glass=0;sketch=1;aspect=fixed;" vertex="1" parent="H7LAwcqjLhsTPvcVJDRF-6">
          <mxGeometry x="9" y="8" width="24" height="24" as="geometry" />
        </mxCell>
        <mxCell id="H7LAwcqjLhsTPvcVJDRF-9" value="" style="group" vertex="1" connectable="0" parent="H7LAwcqjLhsTPvcVJDRF-3">
          <mxGeometry x="596" y="84" width="44" height="44" as="geometry" />
        </mxCell>
        <mxCell id="H7LAwcqjLhsTPvcVJDRF-10" value="" style="whiteSpace=wrap;html=1;aspect=fixed;fillColor=#333333;strokeColor=#000000;" vertex="1" parent="H7LAwcqjLhsTPvcVJDRF-9">
          <mxGeometry width="44" height="44" as="geometry" />
        </mxCell>
        <mxCell id="H7LAwcqjLhsTPvcVJDRF-11" value="" style="whiteSpace=wrap;html=1;fillColor=#000000;strokeColor=#000000;" vertex="1" parent="H7LAwcqjLhsTPvcVJDRF-9">
          <mxGeometry x="8" y="4" width="6" height="16" as="geometry" />
        </mxCell>
        <mxCell id="H7LAwcqjLhsTPvcVJDRF-12" value="" style="whiteSpace=wrap;html=1;fillColor=#000000;strokeColor=#000000;" vertex="1" parent="H7LAwcqjLhsTPvcVJDRF-9">
          <mxGeometry x="29" y="5" width="6" height="14" as="geometry" />
        </mxCell>
        <mxCell id="H7LAwcqjLhsTPvcVJDRF-13" value="" style="group" vertex="1" connectable="0" parent="H7LAwcqjLhsTPvcVJDRF-9">
          <mxGeometry x="17" y="27" width="10" height="10" as="geometry" />
        </mxCell>
        <mxCell id="H7LAwcqjLhsTPvcVJDRF-14" value="" style="ellipse;whiteSpace=wrap;html=1;fillColor=#000000;strokeColor=#000000;" vertex="1" parent="H7LAwcqjLhsTPvcVJDRF-13">
          <mxGeometry width="10" height="10" as="geometry" />
        </mxCell>
        <mxCell id="H7LAwcqjLhsTPvcVJDRF-15" value="" style="whiteSpace=wrap;html=1;fillColor=#000000;strokeColor=#000000;" vertex="1" parent="H7LAwcqjLhsTPvcVJDRF-13">
          <mxGeometry y="4" width="10" height="6" as="geometry" />
        </mxCell>
        <mxCell id="H7LAwcqjLhsTPvcVJDRF-16" value="" style="group" vertex="1" connectable="0" parent="H7LAwcqjLhsTPvcVJDRF-3">
          <mxGeometry x="702" y="80" width="26" height="41" as="geometry" />
        </mxCell>
        <mxCell id="H7LAwcqjLhsTPvcVJDRF-17" value="" style="rounded=0;whiteSpace=wrap;html=1;fillColor=#000000;strokeColor=none;" vertex="1" parent="H7LAwcqjLhsTPvcVJDRF-3">
          <mxGeometry x="668" y="108" width="18" height="16" as="geometry" />
        </mxCell>
        <mxCell id="H7LAwcqjLhsTPvcVJDRF-18" value="" style="rounded=0;whiteSpace=wrap;html=1;fillColor=#000000;strokeColor=none;" vertex="1" parent="H7LAwcqjLhsTPvcVJDRF-3">
          <mxGeometry x="706" y="90" width="18" height="16" as="geometry" />
        </mxCell>
        <mxCell id="H7LAwcqjLhsTPvcVJDRF-19" value="" style="rounded=0;whiteSpace=wrap;html=1;fillColor=#000000;strokeColor=none;" vertex="1" parent="H7LAwcqjLhsTPvcVJDRF-3">
          <mxGeometry x="706" y="109" width="18" height="16" as="geometry" />
        </mxCell>
        <mxCell id="H7LAwcqjLhsTPvcVJDRF-20" value="" style="group" vertex="1" connectable="0" parent="H7LAwcqjLhsTPvcVJDRF-3">
          <mxGeometry x="142" y="84" width="44" height="44" as="geometry" />
        </mxCell>
        <mxCell id="H7LAwcqjLhsTPvcVJDRF-21" value="" style="whiteSpace=wrap;html=1;aspect=fixed;fillColor=#333333;strokeColor=#000000;" vertex="1" parent="H7LAwcqjLhsTPvcVJDRF-20">
          <mxGeometry width="44" height="44" as="geometry" />
        </mxCell>
        <mxCell id="H7LAwcqjLhsTPvcVJDRF-22" value="" style="whiteSpace=wrap;html=1;fillColor=#000000;strokeColor=#000000;" vertex="1" parent="H7LAwcqjLhsTPvcVJDRF-20">
          <mxGeometry x="8" y="4" width="6" height="16" as="geometry" />
        </mxCell>
        <mxCell id="H7LAwcqjLhsTPvcVJDRF-23" value="" style="whiteSpace=wrap;html=1;fillColor=#000000;strokeColor=#000000;" vertex="1" parent="H7LAwcqjLhsTPvcVJDRF-20">
          <mxGeometry x="29" y="5" width="6" height="14" as="geometry" />
        </mxCell>
        <mxCell id="H7LAwcqjLhsTPvcVJDRF-24" value="" style="group" vertex="1" connectable="0" parent="H7LAwcqjLhsTPvcVJDRF-20">
          <mxGeometry x="17" y="27" width="10" height="10" as="geometry" />
        </mxCell>
        <mxCell id="H7LAwcqjLhsTPvcVJDRF-25" value="" style="ellipse;whiteSpace=wrap;html=1;fillColor=#000000;strokeColor=#000000;" vertex="1" parent="H7LAwcqjLhsTPvcVJDRF-24">
          <mxGeometry width="10" height="10" as="geometry" />
        </mxCell>
        <mxCell id="H7LAwcqjLhsTPvcVJDRF-26" value="" style="whiteSpace=wrap;html=1;fillColor=#000000;strokeColor=#000000;" vertex="1" parent="H7LAwcqjLhsTPvcVJDRF-24">
          <mxGeometry y="4" width="10" height="6" as="geometry" />
        </mxCell>
        <mxCell id="H7LAwcqjLhsTPvcVJDRF-27" value="" style="group" vertex="1" connectable="0" parent="H7LAwcqjLhsTPvcVJDRF-3">
          <mxGeometry x="293" y="84" width="44" height="44" as="geometry" />
        </mxCell>
        <mxCell id="H7LAwcqjLhsTPvcVJDRF-28" value="" style="whiteSpace=wrap;html=1;aspect=fixed;fillColor=#333333;strokeColor=#000000;" vertex="1" parent="H7LAwcqjLhsTPvcVJDRF-27">
          <mxGeometry width="44" height="44" as="geometry" />
        </mxCell>
        <mxCell id="H7LAwcqjLhsTPvcVJDRF-29" value="" style="whiteSpace=wrap;html=1;fillColor=#000000;strokeColor=#000000;" vertex="1" parent="H7LAwcqjLhsTPvcVJDRF-27">
          <mxGeometry x="8" y="4" width="6" height="16" as="geometry" />
        </mxCell>
        <mxCell id="H7LAwcqjLhsTPvcVJDRF-30" value="" style="whiteSpace=wrap;html=1;fillColor=#000000;strokeColor=#000000;" vertex="1" parent="H7LAwcqjLhsTPvcVJDRF-27">
          <mxGeometry x="29" y="5" width="6" height="14" as="geometry" />
        </mxCell>
        <mxCell id="H7LAwcqjLhsTPvcVJDRF-31" value="" style="group" vertex="1" connectable="0" parent="H7LAwcqjLhsTPvcVJDRF-27">
          <mxGeometry x="17" y="27" width="10" height="10" as="geometry" />
        </mxCell>
        <mxCell id="H7LAwcqjLhsTPvcVJDRF-32" value="" style="ellipse;whiteSpace=wrap;html=1;fillColor=#000000;strokeColor=#000000;" vertex="1" parent="H7LAwcqjLhsTPvcVJDRF-31">
          <mxGeometry width="10" height="10" as="geometry" />
        </mxCell>
        <mxCell id="H7LAwcqjLhsTPvcVJDRF-33" value="" style="whiteSpace=wrap;html=1;fillColor=#000000;strokeColor=#000000;" vertex="1" parent="H7LAwcqjLhsTPvcVJDRF-31">
          <mxGeometry y="4" width="10" height="6" as="geometry" />
        </mxCell>
        <mxCell id="H7LAwcqjLhsTPvcVJDRF-34" value="" style="group" vertex="1" connectable="0" parent="H7LAwcqjLhsTPvcVJDRF-3">
          <mxGeometry x="445" y="84" width="44" height="44" as="geometry" />
        </mxCell>
        <mxCell id="H7LAwcqjLhsTPvcVJDRF-35" value="" style="whiteSpace=wrap;html=1;aspect=fixed;fillColor=#333333;strokeColor=#000000;" vertex="1" parent="H7LAwcqjLhsTPvcVJDRF-34">
          <mxGeometry width="44" height="44" as="geometry" />
        </mxCell>
        <mxCell id="H7LAwcqjLhsTPvcVJDRF-36" value="" style="whiteSpace=wrap;html=1;fillColor=#000000;strokeColor=#000000;" vertex="1" parent="H7LAwcqjLhsTPvcVJDRF-34">
          <mxGeometry x="8" y="4" width="6" height="16" as="geometry" />
        </mxCell>
        <mxCell id="H7LAwcqjLhsTPvcVJDRF-37" value="" style="whiteSpace=wrap;html=1;fillColor=#000000;strokeColor=#000000;" vertex="1" parent="H7LAwcqjLhsTPvcVJDRF-34">
          <mxGeometry x="29" y="5" width="6" height="14" as="geometry" />
        </mxCell>
        <mxCell id="H7LAwcqjLhsTPvcVJDRF-38" value="" style="group" vertex="1" connectable="0" parent="H7LAwcqjLhsTPvcVJDRF-34">
          <mxGeometry x="17" y="27" width="10" height="10" as="geometry" />
        </mxCell>
        <mxCell id="H7LAwcqjLhsTPvcVJDRF-39" value="" style="ellipse;whiteSpace=wrap;html=1;fillColor=#000000;strokeColor=#000000;" vertex="1" parent="H7LAwcqjLhsTPvcVJDRF-38">
          <mxGeometry width="10" height="10" as="geometry" />
        </mxCell>
        <mxCell id="H7LAwcqjLhsTPvcVJDRF-40" value="" style="whiteSpace=wrap;html=1;fillColor=#000000;strokeColor=#000000;" vertex="1" parent="H7LAwcqjLhsTPvcVJDRF-38">
          <mxGeometry y="4" width="10" height="6" as="geometry" />
        </mxCell>
        <mxCell id="H7LAwcqjLhsTPvcVJDRF-41" value="" style="group;direction=north;rotation=-90;" vertex="1" connectable="0" parent="H7LAwcqjLhsTPvcVJDRF-3">
          <mxGeometry x="166" y="12" width="44" height="44" as="geometry" />
        </mxCell>
        <mxCell id="H7LAwcqjLhsTPvcVJDRF-42" value="" style="whiteSpace=wrap;html=1;aspect=fixed;fillColor=#333333;strokeColor=#000000;rotation=-90;" vertex="1" parent="H7LAwcqjLhsTPvcVJDRF-41">
          <mxGeometry width="44" height="44" as="geometry" />
        </mxCell>
        <mxCell id="H7LAwcqjLhsTPvcVJDRF-43" value="" style="whiteSpace=wrap;html=1;fillColor=#000000;strokeColor=#000000;rotation=-90;" vertex="1" parent="H7LAwcqjLhsTPvcVJDRF-41">
          <mxGeometry x="9" y="25" width="6" height="16" as="geometry" />
        </mxCell>
        <mxCell id="H7LAwcqjLhsTPvcVJDRF-44" value="" style="whiteSpace=wrap;html=1;fillColor=#000000;strokeColor=#000000;rotation=-90;" vertex="1" parent="H7LAwcqjLhsTPvcVJDRF-41">
          <mxGeometry x="9" y="5" width="6" height="14" as="geometry" />
        </mxCell>
        <mxCell id="H7LAwcqjLhsTPvcVJDRF-45" value="" style="group;rotation=-90;" vertex="1" connectable="0" parent="H7LAwcqjLhsTPvcVJDRF-41">
          <mxGeometry x="27" y="17" width="10" height="10" as="geometry" />
        </mxCell>
        <mxCell id="H7LAwcqjLhsTPvcVJDRF-46" value="" style="ellipse;whiteSpace=wrap;html=1;fillColor=#000000;strokeColor=#000000;rotation=-90;" vertex="1" parent="H7LAwcqjLhsTPvcVJDRF-45">
          <mxGeometry width="10" height="10" as="geometry" />
        </mxCell>
        <mxCell id="H7LAwcqjLhsTPvcVJDRF-47" value="" style="whiteSpace=wrap;html=1;fillColor=#000000;strokeColor=#000000;rotation=-90;" vertex="1" parent="H7LAwcqjLhsTPvcVJDRF-45">
          <mxGeometry x="2" y="2" width="10" height="6" as="geometry" />
        </mxCell>
        <mxCell id="H7LAwcqjLhsTPvcVJDRF-48" value="" style="group;direction=north;rotation=-90;" vertex="1" connectable="0" parent="H7LAwcqjLhsTPvcVJDRF-3">
          <mxGeometry x="121" y="12" width="44" height="44" as="geometry" />
        </mxCell>
        <mxCell id="H7LAwcqjLhsTPvcVJDRF-49" value="" style="whiteSpace=wrap;html=1;aspect=fixed;fillColor=#333333;strokeColor=#000000;rotation=-90;" vertex="1" parent="H7LAwcqjLhsTPvcVJDRF-48">
          <mxGeometry width="44" height="44" as="geometry" />
        </mxCell>
        <mxCell id="H7LAwcqjLhsTPvcVJDRF-50" value="" style="whiteSpace=wrap;html=1;fillColor=#000000;strokeColor=#000000;rotation=-90;" vertex="1" parent="H7LAwcqjLhsTPvcVJDRF-48">
          <mxGeometry x="9" y="25" width="6" height="16" as="geometry" />
        </mxCell>
        <mxCell id="H7LAwcqjLhsTPvcVJDRF-51" value="" style="whiteSpace=wrap;html=1;fillColor=#000000;strokeColor=#000000;rotation=-90;" vertex="1" parent="H7LAwcqjLhsTPvcVJDRF-48">
          <mxGeometry x="9" y="5" width="6" height="14" as="geometry" />
        </mxCell>
        <mxCell id="H7LAwcqjLhsTPvcVJDRF-52" value="" style="group;rotation=-90;" vertex="1" connectable="0" parent="H7LAwcqjLhsTPvcVJDRF-48">
          <mxGeometry x="27" y="17" width="10" height="10" as="geometry" />
        </mxCell>
        <mxCell id="H7LAwcqjLhsTPvcVJDRF-53" value="" style="ellipse;whiteSpace=wrap;html=1;fillColor=#000000;strokeColor=#000000;rotation=-90;" vertex="1" parent="H7LAwcqjLhsTPvcVJDRF-52">
          <mxGeometry width="10" height="10" as="geometry" />
        </mxCell>
        <mxCell id="H7LAwcqjLhsTPvcVJDRF-54" value="" style="whiteSpace=wrap;html=1;fillColor=#000000;strokeColor=#000000;rotation=-90;" vertex="1" parent="H7LAwcqjLhsTPvcVJDRF-52">
          <mxGeometry x="2" y="2" width="10" height="6" as="geometry" />
        </mxCell>
        <mxCell id="H7LAwcqjLhsTPvcVJDRF-55" value="" style="group;direction=north;rotation=-90;" vertex="1" connectable="0" parent="H7LAwcqjLhsTPvcVJDRF-3">
          <mxGeometry x="256" y="12" width="44" height="44" as="geometry" />
        </mxCell>
        <mxCell id="H7LAwcqjLhsTPvcVJDRF-56" value="" style="whiteSpace=wrap;html=1;aspect=fixed;fillColor=#333333;strokeColor=#000000;rotation=-90;" vertex="1" parent="H7LAwcqjLhsTPvcVJDRF-55">
          <mxGeometry width="44" height="44" as="geometry" />
        </mxCell>
        <mxCell id="H7LAwcqjLhsTPvcVJDRF-57" value="" style="whiteSpace=wrap;html=1;fillColor=#000000;strokeColor=#000000;rotation=-90;" vertex="1" parent="H7LAwcqjLhsTPvcVJDRF-55">
          <mxGeometry x="9" y="25" width="6" height="16" as="geometry" />
        </mxCell>
        <mxCell id="H7LAwcqjLhsTPvcVJDRF-58" value="" style="whiteSpace=wrap;html=1;fillColor=#000000;strokeColor=#000000;rotation=-90;" vertex="1" parent="H7LAwcqjLhsTPvcVJDRF-55">
          <mxGeometry x="9" y="5" width="6" height="14" as="geometry" />
        </mxCell>
        <mxCell id="H7LAwcqjLhsTPvcVJDRF-59" value="" style="group;rotation=-90;" vertex="1" connectable="0" parent="H7LAwcqjLhsTPvcVJDRF-55">
          <mxGeometry x="27" y="17" width="10" height="10" as="geometry" />
        </mxCell>
        <mxCell id="H7LAwcqjLhsTPvcVJDRF-60" value="" style="ellipse;whiteSpace=wrap;html=1;fillColor=#000000;strokeColor=#000000;rotation=-90;" vertex="1" parent="H7LAwcqjLhsTPvcVJDRF-59">
          <mxGeometry width="10" height="10" as="geometry" />
        </mxCell>
        <mxCell id="H7LAwcqjLhsTPvcVJDRF-61" value="" style="whiteSpace=wrap;html=1;fillColor=#000000;strokeColor=#000000;rotation=-90;" vertex="1" parent="H7LAwcqjLhsTPvcVJDRF-59">
          <mxGeometry x="2" y="2" width="10" height="6" as="geometry" />
        </mxCell>
        <mxCell id="H7LAwcqjLhsTPvcVJDRF-62" value="" style="group;direction=north;rotation=-90;" vertex="1" connectable="0" parent="H7LAwcqjLhsTPvcVJDRF-3">
          <mxGeometry x="211" y="12" width="44" height="44" as="geometry" />
        </mxCell>
        <mxCell id="H7LAwcqjLhsTPvcVJDRF-63" value="" style="whiteSpace=wrap;html=1;aspect=fixed;fillColor=#333333;strokeColor=#000000;rotation=-90;" vertex="1" parent="H7LAwcqjLhsTPvcVJDRF-62">
          <mxGeometry width="44" height="44" as="geometry" />
        </mxCell>
        <mxCell id="H7LAwcqjLhsTPvcVJDRF-64" value="" style="whiteSpace=wrap;html=1;fillColor=#000000;strokeColor=#000000;rotation=-90;" vertex="1" parent="H7LAwcqjLhsTPvcVJDRF-62">
          <mxGeometry x="9" y="25" width="6" height="16" as="geometry" />
        </mxCell>
        <mxCell id="H7LAwcqjLhsTPvcVJDRF-65" value="" style="whiteSpace=wrap;html=1;fillColor=#000000;strokeColor=#000000;rotation=-90;" vertex="1" parent="H7LAwcqjLhsTPvcVJDRF-62">
          <mxGeometry x="9" y="5" width="6" height="14" as="geometry" />
        </mxCell>
        <mxCell id="H7LAwcqjLhsTPvcVJDRF-66" value="" style="group;rotation=-90;" vertex="1" connectable="0" parent="H7LAwcqjLhsTPvcVJDRF-62">
          <mxGeometry x="27" y="17" width="10" height="10" as="geometry" />
        </mxCell>
        <mxCell id="H7LAwcqjLhsTPvcVJDRF-67" value="" style="ellipse;whiteSpace=wrap;html=1;fillColor=#000000;strokeColor=#000000;rotation=-90;" vertex="1" parent="H7LAwcqjLhsTPvcVJDRF-66">
          <mxGeometry width="10" height="10" as="geometry" />
        </mxCell>
        <mxCell id="H7LAwcqjLhsTPvcVJDRF-68" value="" style="whiteSpace=wrap;html=1;fillColor=#000000;strokeColor=#000000;rotation=-90;" vertex="1" parent="H7LAwcqjLhsTPvcVJDRF-66">
          <mxGeometry x="2" y="2" width="10" height="6" as="geometry" />
        </mxCell>
        <mxCell id="H7LAwcqjLhsTPvcVJDRF-69" value="" style="group;direction=north;rotation=-90;" vertex="1" connectable="0" parent="H7LAwcqjLhsTPvcVJDRF-3">
          <mxGeometry x="436" y="12" width="44" height="44" as="geometry" />
        </mxCell>
        <mxCell id="H7LAwcqjLhsTPvcVJDRF-70" value="" style="whiteSpace=wrap;html=1;aspect=fixed;fillColor=#333333;strokeColor=#000000;rotation=-90;" vertex="1" parent="H7LAwcqjLhsTPvcVJDRF-69">
          <mxGeometry width="44" height="44" as="geometry" />
        </mxCell>
        <mxCell id="H7LAwcqjLhsTPvcVJDRF-71" value="" style="whiteSpace=wrap;html=1;fillColor=#000000;strokeColor=#000000;rotation=-90;" vertex="1" parent="H7LAwcqjLhsTPvcVJDRF-69">
          <mxGeometry x="9" y="25" width="6" height="16" as="geometry" />
        </mxCell>
        <mxCell id="H7LAwcqjLhsTPvcVJDRF-72" value="" style="whiteSpace=wrap;html=1;fillColor=#000000;strokeColor=#000000;rotation=-90;" vertex="1" parent="H7LAwcqjLhsTPvcVJDRF-69">
          <mxGeometry x="9" y="5" width="6" height="14" as="geometry" />
        </mxCell>
        <mxCell id="H7LAwcqjLhsTPvcVJDRF-73" value="" style="group;rotation=-90;" vertex="1" connectable="0" parent="H7LAwcqjLhsTPvcVJDRF-69">
          <mxGeometry x="27" y="17" width="10" height="10" as="geometry" />
        </mxCell>
        <mxCell id="H7LAwcqjLhsTPvcVJDRF-74" value="" style="ellipse;whiteSpace=wrap;html=1;fillColor=#000000;strokeColor=#000000;rotation=-90;" vertex="1" parent="H7LAwcqjLhsTPvcVJDRF-73">
          <mxGeometry width="10" height="10" as="geometry" />
        </mxCell>
        <mxCell id="H7LAwcqjLhsTPvcVJDRF-75" value="" style="whiteSpace=wrap;html=1;fillColor=#000000;strokeColor=#000000;rotation=-90;" vertex="1" parent="H7LAwcqjLhsTPvcVJDRF-73">
          <mxGeometry x="2" y="2" width="10" height="6" as="geometry" />
        </mxCell>
        <mxCell id="H7LAwcqjLhsTPvcVJDRF-76" value="" style="group;direction=north;rotation=-90;" vertex="1" connectable="0" parent="H7LAwcqjLhsTPvcVJDRF-3">
          <mxGeometry x="391" y="12" width="44" height="44" as="geometry" />
        </mxCell>
        <mxCell id="H7LAwcqjLhsTPvcVJDRF-77" value="" style="whiteSpace=wrap;html=1;aspect=fixed;fillColor=#333333;strokeColor=#000000;rotation=-90;" vertex="1" parent="H7LAwcqjLhsTPvcVJDRF-76">
          <mxGeometry width="44" height="44" as="geometry" />
        </mxCell>
        <mxCell id="H7LAwcqjLhsTPvcVJDRF-78" value="" style="whiteSpace=wrap;html=1;fillColor=#000000;strokeColor=#000000;rotation=-90;" vertex="1" parent="H7LAwcqjLhsTPvcVJDRF-76">
          <mxGeometry x="9" y="25" width="6" height="16" as="geometry" />
        </mxCell>
        <mxCell id="H7LAwcqjLhsTPvcVJDRF-79" value="" style="whiteSpace=wrap;html=1;fillColor=#000000;strokeColor=#000000;rotation=-90;" vertex="1" parent="H7LAwcqjLhsTPvcVJDRF-76">
          <mxGeometry x="9" y="5" width="6" height="14" as="geometry" />
        </mxCell>
        <mxCell id="H7LAwcqjLhsTPvcVJDRF-80" value="" style="group;rotation=-90;" vertex="1" connectable="0" parent="H7LAwcqjLhsTPvcVJDRF-76">
          <mxGeometry x="27" y="17" width="10" height="10" as="geometry" />
        </mxCell>
        <mxCell id="H7LAwcqjLhsTPvcVJDRF-81" value="" style="ellipse;whiteSpace=wrap;html=1;fillColor=#000000;strokeColor=#000000;rotation=-90;" vertex="1" parent="H7LAwcqjLhsTPvcVJDRF-80">
          <mxGeometry width="10" height="10" as="geometry" />
        </mxCell>
        <mxCell id="H7LAwcqjLhsTPvcVJDRF-82" value="" style="whiteSpace=wrap;html=1;fillColor=#000000;strokeColor=#000000;rotation=-90;" vertex="1" parent="H7LAwcqjLhsTPvcVJDRF-80">
          <mxGeometry x="2" y="2" width="10" height="6" as="geometry" />
        </mxCell>
        <mxCell id="H7LAwcqjLhsTPvcVJDRF-83" value="" style="group;direction=north;rotation=-90;" vertex="1" connectable="0" parent="H7LAwcqjLhsTPvcVJDRF-3">
          <mxGeometry x="346" y="12" width="44" height="44" as="geometry" />
        </mxCell>
        <mxCell id="H7LAwcqjLhsTPvcVJDRF-84" value="" style="whiteSpace=wrap;html=1;aspect=fixed;fillColor=#333333;strokeColor=#000000;rotation=-90;" vertex="1" parent="H7LAwcqjLhsTPvcVJDRF-83">
          <mxGeometry width="44" height="44" as="geometry" />
        </mxCell>
        <mxCell id="H7LAwcqjLhsTPvcVJDRF-85" value="" style="whiteSpace=wrap;html=1;fillColor=#000000;strokeColor=#000000;rotation=-90;" vertex="1" parent="H7LAwcqjLhsTPvcVJDRF-83">
          <mxGeometry x="9" y="25" width="6" height="16" as="geometry" />
        </mxCell>
        <mxCell id="H7LAwcqjLhsTPvcVJDRF-86" value="" style="whiteSpace=wrap;html=1;fillColor=#000000;strokeColor=#000000;rotation=-90;" vertex="1" parent="H7LAwcqjLhsTPvcVJDRF-83">
          <mxGeometry x="9" y="5" width="6" height="14" as="geometry" />
        </mxCell>
        <mxCell id="H7LAwcqjLhsTPvcVJDRF-87" value="" style="group;rotation=-90;" vertex="1" connectable="0" parent="H7LAwcqjLhsTPvcVJDRF-83">
          <mxGeometry x="27" y="17" width="10" height="10" as="geometry" />
        </mxCell>
        <mxCell id="H7LAwcqjLhsTPvcVJDRF-88" value="" style="ellipse;whiteSpace=wrap;html=1;fillColor=#000000;strokeColor=#000000;rotation=-90;" vertex="1" parent="H7LAwcqjLhsTPvcVJDRF-87">
          <mxGeometry width="10" height="10" as="geometry" />
        </mxCell>
        <mxCell id="H7LAwcqjLhsTPvcVJDRF-89" value="" style="whiteSpace=wrap;html=1;fillColor=#000000;strokeColor=#000000;rotation=-90;" vertex="1" parent="H7LAwcqjLhsTPvcVJDRF-87">
          <mxGeometry x="2" y="2" width="10" height="6" as="geometry" />
        </mxCell>
        <mxCell id="H7LAwcqjLhsTPvcVJDRF-90" value="" style="group;direction=north;rotation=-90;" vertex="1" connectable="0" parent="H7LAwcqjLhsTPvcVJDRF-3">
          <mxGeometry x="301" y="12" width="44" height="44" as="geometry" />
        </mxCell>
        <mxCell id="H7LAwcqjLhsTPvcVJDRF-91" value="" style="whiteSpace=wrap;html=1;aspect=fixed;fillColor=#333333;strokeColor=#000000;rotation=-90;" vertex="1" parent="H7LAwcqjLhsTPvcVJDRF-90">
          <mxGeometry width="44" height="44" as="geometry" />
        </mxCell>
        <mxCell id="H7LAwcqjLhsTPvcVJDRF-92" value="" style="whiteSpace=wrap;html=1;fillColor=#000000;strokeColor=#000000;rotation=-90;" vertex="1" parent="H7LAwcqjLhsTPvcVJDRF-90">
          <mxGeometry x="9" y="25" width="6" height="16" as="geometry" />
        </mxCell>
        <mxCell id="H7LAwcqjLhsTPvcVJDRF-93" value="" style="whiteSpace=wrap;html=1;fillColor=#000000;strokeColor=#000000;rotation=-90;" vertex="1" parent="H7LAwcqjLhsTPvcVJDRF-90">
          <mxGeometry x="9" y="5" width="6" height="14" as="geometry" />
        </mxCell>
        <mxCell id="H7LAwcqjLhsTPvcVJDRF-94" value="" style="group;rotation=-90;" vertex="1" connectable="0" parent="H7LAwcqjLhsTPvcVJDRF-90">
          <mxGeometry x="27" y="17" width="10" height="10" as="geometry" />
        </mxCell>
        <mxCell id="H7LAwcqjLhsTPvcVJDRF-95" value="" style="ellipse;whiteSpace=wrap;html=1;fillColor=#000000;strokeColor=#000000;rotation=-90;" vertex="1" parent="H7LAwcqjLhsTPvcVJDRF-94">
          <mxGeometry width="10" height="10" as="geometry" />
        </mxCell>
        <mxCell id="H7LAwcqjLhsTPvcVJDRF-96" value="" style="whiteSpace=wrap;html=1;fillColor=#000000;strokeColor=#000000;rotation=-90;" vertex="1" parent="H7LAwcqjLhsTPvcVJDRF-94">
          <mxGeometry x="2" y="2" width="10" height="6" as="geometry" />
        </mxCell>
        <mxCell id="H7LAwcqjLhsTPvcVJDRF-97" value="" style="group;direction=north;rotation=-90;" vertex="1" connectable="0" parent="H7LAwcqjLhsTPvcVJDRF-3">
          <mxGeometry x="616" y="12" width="44" height="44" as="geometry" />
        </mxCell>
        <mxCell id="H7LAwcqjLhsTPvcVJDRF-98" value="" style="whiteSpace=wrap;html=1;aspect=fixed;fillColor=#333333;strokeColor=#000000;rotation=-90;" vertex="1" parent="H7LAwcqjLhsTPvcVJDRF-97">
          <mxGeometry width="44" height="44" as="geometry" />
        </mxCell>
        <mxCell id="H7LAwcqjLhsTPvcVJDRF-99" value="" style="whiteSpace=wrap;html=1;fillColor=#000000;strokeColor=#000000;rotation=-90;" vertex="1" parent="H7LAwcqjLhsTPvcVJDRF-97">
          <mxGeometry x="9" y="25" width="6" height="16" as="geometry" />
        </mxCell>
        <mxCell id="H7LAwcqjLhsTPvcVJDRF-100" value="" style="whiteSpace=wrap;html=1;fillColor=#000000;strokeColor=#000000;rotation=-90;" vertex="1" parent="H7LAwcqjLhsTPvcVJDRF-97">
          <mxGeometry x="9" y="5" width="6" height="14" as="geometry" />
        </mxCell>
        <mxCell id="H7LAwcqjLhsTPvcVJDRF-101" value="" style="group;rotation=-90;" vertex="1" connectable="0" parent="H7LAwcqjLhsTPvcVJDRF-97">
          <mxGeometry x="27" y="17" width="10" height="10" as="geometry" />
        </mxCell>
        <mxCell id="H7LAwcqjLhsTPvcVJDRF-102" value="" style="ellipse;whiteSpace=wrap;html=1;fillColor=#000000;strokeColor=#000000;rotation=-90;" vertex="1" parent="H7LAwcqjLhsTPvcVJDRF-101">
          <mxGeometry width="10" height="10" as="geometry" />
        </mxCell>
        <mxCell id="H7LAwcqjLhsTPvcVJDRF-103" value="" style="whiteSpace=wrap;html=1;fillColor=#000000;strokeColor=#000000;rotation=-90;" vertex="1" parent="H7LAwcqjLhsTPvcVJDRF-101">
          <mxGeometry x="2" y="2" width="10" height="6" as="geometry" />
        </mxCell>
        <mxCell id="H7LAwcqjLhsTPvcVJDRF-104" value="" style="group;direction=north;rotation=-90;" vertex="1" connectable="0" parent="H7LAwcqjLhsTPvcVJDRF-3">
          <mxGeometry x="571" y="12" width="44" height="44" as="geometry" />
        </mxCell>
        <mxCell id="H7LAwcqjLhsTPvcVJDRF-105" value="" style="whiteSpace=wrap;html=1;aspect=fixed;fillColor=#333333;strokeColor=#000000;rotation=-90;" vertex="1" parent="H7LAwcqjLhsTPvcVJDRF-104">
          <mxGeometry width="44" height="44" as="geometry" />
        </mxCell>
        <mxCell id="H7LAwcqjLhsTPvcVJDRF-106" value="" style="whiteSpace=wrap;html=1;fillColor=#000000;strokeColor=#000000;rotation=-90;" vertex="1" parent="H7LAwcqjLhsTPvcVJDRF-104">
          <mxGeometry x="9" y="25" width="6" height="16" as="geometry" />
        </mxCell>
        <mxCell id="H7LAwcqjLhsTPvcVJDRF-107" value="" style="whiteSpace=wrap;html=1;fillColor=#000000;strokeColor=#000000;rotation=-90;" vertex="1" parent="H7LAwcqjLhsTPvcVJDRF-104">
          <mxGeometry x="9" y="5" width="6" height="14" as="geometry" />
        </mxCell>
        <mxCell id="H7LAwcqjLhsTPvcVJDRF-108" value="" style="group;rotation=-90;" vertex="1" connectable="0" parent="H7LAwcqjLhsTPvcVJDRF-104">
          <mxGeometry x="27" y="17" width="10" height="10" as="geometry" />
        </mxCell>
        <mxCell id="H7LAwcqjLhsTPvcVJDRF-109" value="" style="ellipse;whiteSpace=wrap;html=1;fillColor=#000000;strokeColor=#000000;rotation=-90;" vertex="1" parent="H7LAwcqjLhsTPvcVJDRF-108">
          <mxGeometry width="10" height="10" as="geometry" />
        </mxCell>
        <mxCell id="H7LAwcqjLhsTPvcVJDRF-110" value="" style="whiteSpace=wrap;html=1;fillColor=#000000;strokeColor=#000000;rotation=-90;" vertex="1" parent="H7LAwcqjLhsTPvcVJDRF-108">
          <mxGeometry x="2" y="2" width="10" height="6" as="geometry" />
        </mxCell>
        <mxCell id="H7LAwcqjLhsTPvcVJDRF-111" value="" style="group;direction=north;rotation=-90;" vertex="1" connectable="0" parent="H7LAwcqjLhsTPvcVJDRF-3">
          <mxGeometry x="526" y="12" width="44" height="44" as="geometry" />
        </mxCell>
        <mxCell id="H7LAwcqjLhsTPvcVJDRF-112" value="" style="whiteSpace=wrap;html=1;aspect=fixed;fillColor=#333333;strokeColor=#000000;rotation=-90;" vertex="1" parent="H7LAwcqjLhsTPvcVJDRF-111">
          <mxGeometry width="44" height="44" as="geometry" />
        </mxCell>
        <mxCell id="H7LAwcqjLhsTPvcVJDRF-113" value="" style="whiteSpace=wrap;html=1;fillColor=#000000;strokeColor=#000000;rotation=-90;" vertex="1" parent="H7LAwcqjLhsTPvcVJDRF-111">
          <mxGeometry x="9" y="25" width="6" height="16" as="geometry" />
        </mxCell>
        <mxCell id="H7LAwcqjLhsTPvcVJDRF-114" value="" style="whiteSpace=wrap;html=1;fillColor=#000000;strokeColor=#000000;rotation=-90;" vertex="1" parent="H7LAwcqjLhsTPvcVJDRF-111">
          <mxGeometry x="9" y="5" width="6" height="14" as="geometry" />
        </mxCell>
        <mxCell id="H7LAwcqjLhsTPvcVJDRF-115" value="" style="group;rotation=-90;" vertex="1" connectable="0" parent="H7LAwcqjLhsTPvcVJDRF-111">
          <mxGeometry x="27" y="17" width="10" height="10" as="geometry" />
        </mxCell>
        <mxCell id="H7LAwcqjLhsTPvcVJDRF-116" value="" style="ellipse;whiteSpace=wrap;html=1;fillColor=#000000;strokeColor=#000000;rotation=-90;" vertex="1" parent="H7LAwcqjLhsTPvcVJDRF-115">
          <mxGeometry width="10" height="10" as="geometry" />
        </mxCell>
        <mxCell id="H7LAwcqjLhsTPvcVJDRF-117" value="" style="whiteSpace=wrap;html=1;fillColor=#000000;strokeColor=#000000;rotation=-90;" vertex="1" parent="H7LAwcqjLhsTPvcVJDRF-115">
          <mxGeometry x="2" y="2" width="10" height="6" as="geometry" />
        </mxCell>
        <mxCell id="H7LAwcqjLhsTPvcVJDRF-118" value="" style="group;direction=north;rotation=-90;" vertex="1" connectable="0" parent="H7LAwcqjLhsTPvcVJDRF-3">
          <mxGeometry x="481" y="12" width="44" height="44" as="geometry" />
        </mxCell>
        <mxCell id="H7LAwcqjLhsTPvcVJDRF-119" value="" style="whiteSpace=wrap;html=1;aspect=fixed;fillColor=#333333;strokeColor=#000000;rotation=-90;" vertex="1" parent="H7LAwcqjLhsTPvcVJDRF-118">
          <mxGeometry width="44" height="44" as="geometry" />
        </mxCell>
        <mxCell id="H7LAwcqjLhsTPvcVJDRF-120" value="" style="whiteSpace=wrap;html=1;fillColor=#000000;strokeColor=#000000;rotation=-90;" vertex="1" parent="H7LAwcqjLhsTPvcVJDRF-118">
          <mxGeometry x="9" y="25" width="6" height="16" as="geometry" />
        </mxCell>
        <mxCell id="H7LAwcqjLhsTPvcVJDRF-121" value="" style="whiteSpace=wrap;html=1;fillColor=#000000;strokeColor=#000000;rotation=-90;" vertex="1" parent="H7LAwcqjLhsTPvcVJDRF-118">
          <mxGeometry x="9" y="5" width="6" height="14" as="geometry" />
        </mxCell>
        <mxCell id="H7LAwcqjLhsTPvcVJDRF-122" value="" style="group;rotation=-90;" vertex="1" connectable="0" parent="H7LAwcqjLhsTPvcVJDRF-118">
          <mxGeometry x="27" y="17" width="10" height="10" as="geometry" />
        </mxCell>
        <mxCell id="H7LAwcqjLhsTPvcVJDRF-123" value="" style="ellipse;whiteSpace=wrap;html=1;fillColor=#000000;strokeColor=#000000;rotation=-90;" vertex="1" parent="H7LAwcqjLhsTPvcVJDRF-122">
          <mxGeometry width="10" height="10" as="geometry" />
        </mxCell>
        <mxCell id="H7LAwcqjLhsTPvcVJDRF-124" value="" style="whiteSpace=wrap;html=1;fillColor=#000000;strokeColor=#000000;rotation=-90;" vertex="1" parent="H7LAwcqjLhsTPvcVJDRF-122">
          <mxGeometry x="2" y="2" width="10" height="6" as="geometry" />
        </mxCell>
        <mxCell id="H7LAwcqjLhsTPvcVJDRF-125" value="" style="rounded=1;whiteSpace=wrap;html=1;fillColor=#858585;strokeColor=#6E6E6E;perimeterSpacing=0;arcSize=40;" vertex="1" parent="H7LAwcqjLhsTPvcVJDRF-3">
          <mxGeometry x="51" y="13" width="6" height="14" as="geometry" />
        </mxCell>
        <mxCell id="H7LAwcqjLhsTPvcVJDRF-126" value="" style="rounded=1;whiteSpace=wrap;html=1;fillColor=#858585;strokeColor=#6E6E6E;perimeterSpacing=0;arcSize=40;" vertex="1" parent="H7LAwcqjLhsTPvcVJDRF-3">
          <mxGeometry x="73.46000000000001" y="13" width="6" height="14" as="geometry" />
        </mxCell>
        <mxCell id="H7LAwcqjLhsTPvcVJDRF-127" value="" style="rounded=1;whiteSpace=wrap;html=1;fillColor=#858585;strokeColor=#6E6E6E;perimeterSpacing=0;arcSize=40;" vertex="1" parent="H7LAwcqjLhsTPvcVJDRF-3">
          <mxGeometry x="73.46000000000001" y="40" width="6" height="14" as="geometry" />
        </mxCell>
        <mxCell id="H7LAwcqjLhsTPvcVJDRF-128" value="" style="rounded=1;whiteSpace=wrap;html=1;fillColor=#858585;strokeColor=#6E6E6E;perimeterSpacing=0;arcSize=40;" vertex="1" parent="H7LAwcqjLhsTPvcVJDRF-3">
          <mxGeometry x="51" y="40" width="6" height="14" as="geometry" />
        </mxCell>
        <mxCell id="H7LAwcqjLhsTPvcVJDRF-158" value="" style="group" vertex="1" connectable="0" parent="1">
          <mxGeometry x="39.99999999999977" y="530" width="795.46" height="70" as="geometry" />
        </mxCell>
        <mxCell id="H7LAwcqjLhsTPvcVJDRF-159" value="" style="group;movable=1;resizable=1;rotatable=1;deletable=1;editable=1;locked=0;connectable=1;" vertex="1" connectable="0" parent="H7LAwcqjLhsTPvcVJDRF-158">
          <mxGeometry width="795.46" height="70" as="geometry" />
        </mxCell>
        <mxCell id="H7LAwcqjLhsTPvcVJDRF-160" value="" style="rounded=0;whiteSpace=wrap;html=1;fillColor=#CFCFCF;strokeColor=#000000;shadow=1;aspect=fixed;strokeWidth=2;movable=1;resizable=1;rotatable=1;deletable=1;editable=1;locked=0;connectable=1;" vertex="1" parent="H7LAwcqjLhsTPvcVJDRF-159">
          <mxGeometry width="795.46" height="70" as="geometry" />
        </mxCell>
        <mxCell id="H7LAwcqjLhsTPvcVJDRF-161" value="" style="rounded=0;whiteSpace=wrap;html=1;fillColor=none;strokeColor=#000000;strokeWidth=2;movable=1;resizable=1;rotatable=1;deletable=1;editable=1;locked=0;connectable=1;" vertex="1" parent="H7LAwcqjLhsTPvcVJDRF-159">
          <mxGeometry x="30.19000000000002" width="736" height="70" as="geometry" />
        </mxCell>
        <mxCell id="H7LAwcqjLhsTPvcVJDRF-162" value="" style="rounded=0;whiteSpace=wrap;html=1;strokeColor=#000000;fillColor=#CCCCCC;" vertex="1" parent="H7LAwcqjLhsTPvcVJDRF-159">
          <mxGeometry x="370.46000000000004" y="13.5" width="172" height="43" as="geometry" />
        </mxCell>
        <mxCell id="H7LAwcqjLhsTPvcVJDRF-163" value="" style="group" vertex="1" connectable="0" parent="H7LAwcqjLhsTPvcVJDRF-159">
          <mxGeometry x="91" y="5" width="641" height="3" as="geometry" />
        </mxCell>
        <mxCell id="H7LAwcqjLhsTPvcVJDRF-164" value="" style="rounded=1;whiteSpace=wrap;html=1;fillColor=#2E2E2E;strokeColor=none;perimeterSpacing=0;arcSize=40;direction=south;" vertex="1" parent="H7LAwcqjLhsTPvcVJDRF-163">
          <mxGeometry width="124" height="3" as="geometry" />
        </mxCell>
        <mxCell id="H7LAwcqjLhsTPvcVJDRF-165" value="" style="rounded=1;whiteSpace=wrap;html=1;fillColor=#2E2E2E;strokeColor=none;perimeterSpacing=0;arcSize=40;direction=south;" vertex="1" parent="H7LAwcqjLhsTPvcVJDRF-163">
          <mxGeometry x="129" width="124" height="3" as="geometry" />
        </mxCell>
        <mxCell id="H7LAwcqjLhsTPvcVJDRF-166" value="" style="rounded=1;whiteSpace=wrap;html=1;fillColor=#2E2E2E;strokeColor=none;perimeterSpacing=0;arcSize=40;direction=south;" vertex="1" parent="H7LAwcqjLhsTPvcVJDRF-163">
          <mxGeometry x="387" width="124" height="3" as="geometry" />
        </mxCell>
        <mxCell id="H7LAwcqjLhsTPvcVJDRF-167" value="" style="rounded=1;whiteSpace=wrap;html=1;fillColor=#2E2E2E;strokeColor=none;perimeterSpacing=0;arcSize=40;direction=south;" vertex="1" parent="H7LAwcqjLhsTPvcVJDRF-163">
          <mxGeometry x="258" width="124" height="3" as="geometry" />
        </mxCell>
        <mxCell id="H7LAwcqjLhsTPvcVJDRF-168" value="" style="rounded=1;whiteSpace=wrap;html=1;fillColor=#2E2E2E;strokeColor=none;perimeterSpacing=0;arcSize=40;direction=south;" vertex="1" parent="H7LAwcqjLhsTPvcVJDRF-163">
          <mxGeometry x="517" width="124" height="3" as="geometry" />
        </mxCell>
        <mxCell id="H7LAwcqjLhsTPvcVJDRF-238" value="Dream Machine Pro&amp;nbsp; (Router)" style="text;html=1;align=center;verticalAlign=middle;whiteSpace=wrap;rounded=0;" vertex="1" parent="H7LAwcqjLhsTPvcVJDRF-159">
          <mxGeometry x="160.00000000000023" y="26.5" width="110" height="30" as="geometry" />
        </mxCell>
        <mxCell id="H7LAwcqjLhsTPvcVJDRF-169" value="" style="group" vertex="1" connectable="0" parent="H7LAwcqjLhsTPvcVJDRF-158">
          <mxGeometry x="42.460000000000036" y="15" width="42" height="40" as="geometry" />
        </mxCell>
        <mxCell id="H7LAwcqjLhsTPvcVJDRF-170" value="" style="rounded=1;whiteSpace=wrap;html=1;fillColor=default;strokeColor=none;" vertex="1" parent="H7LAwcqjLhsTPvcVJDRF-169">
          <mxGeometry width="42" height="40" as="geometry" />
        </mxCell>
        <mxCell id="H7LAwcqjLhsTPvcVJDRF-171" value="" style="fontColor=#000000;verticalAlign=middle;verticalLabelPosition=middle;labelPosition=right;align=left;html=1;outlineConnect=0;fillColor=#d6d6d6;strokeColor=#999;gradientColor=none;gradientDirection=north;strokeWidth=2;shape=stencil(ZZExb8MgEIV/DWOQc6hJPaZpM3Xokrk6Y2JT2eCCXdqlv71HLlGCKoHgfe+E7h1C7WOPkxFQYZyMnoV6FgBfGCw2A2Egp2e4hoq1w9EwOjb2c7GzJfjqO892KsrVi6h2It8rofYnH0wX/OLawrjadsQu9xKD5kf6eZ6iUFR3oJVSklGji34J2kjtR4K/tEfTWqTzLfiPHAIOt7JCJNOQzr1GOp8CunZ1VcslzPtAQE6u4zjf3Mnq4VHWNaOfC9qAhHURGtRW1ptibPcoxygHQuTfTM6Uv+UM/gA=);labelBackgroundColor=none;shadow=0;glass=0;sketch=1;aspect=fixed;" vertex="1" parent="H7LAwcqjLhsTPvcVJDRF-169">
          <mxGeometry x="9" y="8" width="24" height="24" as="geometry" />
        </mxCell>
        <mxCell id="H7LAwcqjLhsTPvcVJDRF-172" value="" style="group" vertex="1" connectable="0" parent="H7LAwcqjLhsTPvcVJDRF-158">
          <mxGeometry x="709.46" y="14.5" width="26" height="41" as="geometry" />
        </mxCell>
        <mxCell id="H7LAwcqjLhsTPvcVJDRF-173" value="" style="group" vertex="1" connectable="0" parent="H7LAwcqjLhsTPvcVJDRF-172">
          <mxGeometry width="26" height="41" as="geometry" />
        </mxCell>
        <mxCell id="H7LAwcqjLhsTPvcVJDRF-174" value="" style="rounded=0;whiteSpace=wrap;html=1;fillColor=#000000;strokeColor=none;" vertex="1" parent="H7LAwcqjLhsTPvcVJDRF-173">
          <mxGeometry width="26" height="16" as="geometry" />
        </mxCell>
        <mxCell id="H7LAwcqjLhsTPvcVJDRF-175" value="" style="rounded=0;whiteSpace=wrap;html=1;fillColor=#000000;strokeColor=none;" vertex="1" parent="H7LAwcqjLhsTPvcVJDRF-173">
          <mxGeometry y="25" width="26" height="16" as="geometry" />
        </mxCell>
        <mxCell id="H7LAwcqjLhsTPvcVJDRF-176" value="" style="rounded=0;whiteSpace=wrap;html=1;fillColor=#000000;strokeColor=none;" vertex="1" parent="H7LAwcqjLhsTPvcVJDRF-158">
          <mxGeometry x="682.46" y="39.5" width="18" height="16" as="geometry" />
        </mxCell>
        <mxCell id="H7LAwcqjLhsTPvcVJDRF-177" value="" style="group" vertex="1" connectable="0" parent="H7LAwcqjLhsTPvcVJDRF-158">
          <mxGeometry x="569.46" y="20.5" width="84" height="35" as="geometry" />
        </mxCell>
        <mxCell id="H7LAwcqjLhsTPvcVJDRF-178" value="" style="rounded=0;whiteSpace=wrap;html=1;fillColor=#000000;strokeColor=none;" vertex="1" parent="H7LAwcqjLhsTPvcVJDRF-177">
          <mxGeometry x="66" width="18" height="16" as="geometry" />
        </mxCell>
        <mxCell id="H7LAwcqjLhsTPvcVJDRF-179" value="" style="rounded=0;whiteSpace=wrap;html=1;fillColor=#000000;strokeColor=none;" vertex="1" parent="H7LAwcqjLhsTPvcVJDRF-177">
          <mxGeometry x="44" width="18" height="16" as="geometry" />
        </mxCell>
        <mxCell id="H7LAwcqjLhsTPvcVJDRF-180" value="" style="rounded=0;whiteSpace=wrap;html=1;fillColor=#000000;strokeColor=none;" vertex="1" parent="H7LAwcqjLhsTPvcVJDRF-177">
          <mxGeometry x="22" width="18" height="16" as="geometry" />
        </mxCell>
        <mxCell id="H7LAwcqjLhsTPvcVJDRF-181" value="" style="rounded=0;whiteSpace=wrap;html=1;fillColor=#000000;strokeColor=none;" vertex="1" parent="H7LAwcqjLhsTPvcVJDRF-177">
          <mxGeometry width="18" height="16" as="geometry" />
        </mxCell>
        <mxCell id="H7LAwcqjLhsTPvcVJDRF-182" value="" style="rounded=0;whiteSpace=wrap;html=1;fillColor=#000000;strokeColor=none;" vertex="1" parent="H7LAwcqjLhsTPvcVJDRF-177">
          <mxGeometry y="19" width="18" height="16" as="geometry" />
        </mxCell>
        <mxCell id="H7LAwcqjLhsTPvcVJDRF-183" value="" style="rounded=0;whiteSpace=wrap;html=1;fillColor=#000000;strokeColor=none;" vertex="1" parent="H7LAwcqjLhsTPvcVJDRF-177">
          <mxGeometry x="22" y="19" width="18" height="16" as="geometry" />
        </mxCell>
        <mxCell id="H7LAwcqjLhsTPvcVJDRF-184" value="" style="rounded=0;whiteSpace=wrap;html=1;fillColor=#000000;strokeColor=none;" vertex="1" parent="H7LAwcqjLhsTPvcVJDRF-177">
          <mxGeometry x="44" y="19" width="18" height="16" as="geometry" />
        </mxCell>
        <mxCell id="H7LAwcqjLhsTPvcVJDRF-185" value="" style="rounded=0;whiteSpace=wrap;html=1;fillColor=#000000;strokeColor=none;" vertex="1" parent="H7LAwcqjLhsTPvcVJDRF-177">
          <mxGeometry x="66" y="19" width="18" height="16" as="geometry" />
        </mxCell>
        <mxCell id="H7LAwcqjLhsTPvcVJDRF-188" value="" style="sketch=0;pointerEvents=1;shadow=0;dashed=0;html=1;strokeColor=none;fillColor=#B3B3B3;labelPosition=center;verticalLabelPosition=bottom;verticalAlign=top;align=center;outlineConnect=0;shape=mxgraph.veeam2.server;direction=south;" vertex="1" parent="1">
          <mxGeometry x="37.730000000000004" y="838" width="797.73" height="122" as="geometry" />
        </mxCell>
        <mxCell id="H7LAwcqjLhsTPvcVJDRF-189" value="" style="shape=image;verticalLabelPosition=bottom;labelBackgroundColor=default;verticalAlign=top;aspect=fixed;imageAspect=0;image=data:image/png,iVBORw0KGgoAAAANSUhEUgAAAZAAAAA8CAYAAABIFuztAAAABHNCSVQICAgIfAhkiAAAAAlwSFlzAAAN1wAADdcBQiibeAAAABl0RVh0U29mdHdhcmUAd3d3Lmlua3NjYXBlLm9yZ5vuPBoAABwVSURBVHic7Z15vF3j1ce/i6TEXJTaVGlRvErNrSLemmLWBG8jRGlVY6hspYZXa6ixvLaapzQUMZQaaohoq6qpxtAWNbdmm6ogYgiSrPeP9Zybk3vPOft5nrPPvTfJ/n4+54/cu5/nWTl37/0Ma63fElUlBhFZEhgCbOA+6wAvAQ8Ak4A/qeoTUZ37jb8wsAWwMbARsCHwNvCQ+0xU1fs7NX5FRUXFvI7ETCAi8k3gImCZFpcpcAZwrKp+Emde0/E3BMYBqxRcOg44RFXfKnP8ioqKiorACUREFsUmjj0DxngA+JaqPh9oW6Px5wN+BJwIDPRs9hrwbVWd0O74FRUVFRWzmC/w+g+ARQLbbAT8VUTWCWw3G27yuA44Ff/JA2Bx4N12xq6oqKio6EnQBKKqM4D/Ae4LHGcJ4C4R+WJgu3ouAHYLbPMJsJuq/qWNcSsqKioqGhC6A0FVpwE7A48GNl0WmCAinw0dU0ROBA4IbKbAvqp6Z+h4FRUVFRXFBE8gAKr6DhaBFerX+AIwXkQW920gIgcBPw4cB+AwVb06ol1FRUVFhQcNneh5KvMDawJfBp4FHkky/bhHY5FVgIm0jsZqxH3ANm4309w4kT2Aawif6E5V1WMa/SJPZQXML/Me8GCS6duBfVdUVFRUUDeB5KksAhwJDAbWAxauu+4j4G/AX4CfJ5m+0NWByLrAH4DFAse+FRimqtMbGiayJXAH8KnAfseo6ndr/8hTEWA/YHssZ2T5btf/E3gQuDjJ9N7AsSoqKirmWURVyVP5BjAGWMmjzRRgVJLpNV2diGwBjAcWCBz/cmA/7bYNEpH1gXuARQP7uxlzms8AyFNZ1o0xxKOtAucDRyWZvh84bkVFRcU8h7w6mrOA0YAEtv0lcHCS6VQAERkKXA/MH9jPmap6RJdBIqtix2KfCeznj8C2tWOxPJUh2OSxbGA/zwO7JJk+FtLI+XUGBY4VigL/UdWZ7XYkIosBC7VvUksUeLM2oXeCkv8fpX2/9eSpSJJFSj700bgiMj+wNI3fC1NU9cO2jAuzZRAWjt8dBSY3O8UIHGNRZj91aYeO3Pf98T6SV0czDHvxxzjU/w4MTjJ9F0BE9gcuiejnSFX9mYgsh00eKwe2fwQYrKpTAPJU9gHGEj4pAtwPbJVk+oHPxSKyK5ZxX5QVXxbvYd/7w8AfVfXXIY1FZAfgLGC1DtjWiPeZZe+fgBu67zhDEJGVsVDy9d0n9F4pYip2XPswcK+q3hLaQZ7K54GhzJL5WQn4B5ZU+wBwa5Lp5LIMrht3BWA77Kh2Y+xv/BSz5H2uS7LWqgwisgxwLrATzRdEiskWPYm9O65W7ekjjUVEBgIjsL/zGsCKNH+Wp2FH3Qer6msBYywPDMfuoQ2AL7YYI4a27/s8lQRLXajd66tif8/6++jfJdpcG/ez2H30Vew+WgPzhT/sPjckmeYw6wjre8DFkePdCwxJMlv5i8gxwMkR/YzGfBVrB7Z7Dvi6qr4OkKeyE/BrYECEDY8Dm/k61kVkK+DuiHHK5G7gO6r6ctGFIrIZ5q+Kir4rid9j4dUvhTYUkQOAMwlPZm2H24D9a/dXEe5Z+j9a2/gqMDzJNDSfqtW4I4ALaX3s+zpwQJLprY1+6V7ck4B1Q4fHJIvGBrZrZMMI4DRghcCmjwHr+8gmiche2CS5RLiF0QTd93kqewHnAJ9ucdl/gL2TTO8qwb7auDthi++lWlz2NvCDJNOr6p3oxwI/jRz3ZmC3JLMtm4icDRwa2VcI/8Ymj38B5KlsCkwg7ijpJWCTJNNXfRuIyB+BzSLGKpspwIGqOq7VRSIyAdi6d0xqybvAqCJ7a4jI0sCV+PmyOsFkbJJuuRvJU7kJ2NWzzxnAccAp7RxLuOCX84GRAc1+nmQ6uvsP3TH0jbG2ACeq6nGxjdtYfNYY1mpH7o47x2K7w77A677PU7kc2MezTwVOB46tvX9jyFP5FHaS8oOAZld0rUSTTE/CZuUYdmX2o6sUEzLsJO8CQ+omj7WB3xA3ebwJbBMyeThCd0udYnHgl05kshX9xd7F8LO3xhj6bvIAW41dKyJrFFw3FpsYfJgfaOeZI09lQez4JmTyeI/mz2a798dPXNJvMCVMHlBs/7n03eQB/vf9FVjkqw8CHAVc7iJOg3FpG9cTNnl8RP0E4jgUy7uIYb88ldMA3Fnft7HIrE7wEbCLqv4dIE9lZTdWzJb0PWD7JNOnI9ouGNGmU8wPXC4irSLh5jR7EZG9MeWDvmZBzN6mQSLuaGj/wH4PylM5IdQY99BfR9gO+GNgaJLpA01+X8b9cbSIfCWkgYisie3G2qWp/SKyE2ETbacovO+TTO/BfEAhwRx7AWdH2nQpsEvA9TOBEUmm98w2gbit9D5A7JnakXkqhwG4s8hhWO5ImcwA9lTVP0BXqO4EYLmIvj4Gvplk+mB55vUpawLBL6M+ZE3g+Ga/dLI35/SaNcVsBBze6oIk07FYPlUIP8lTCVn9gT30IRPrTGBkkmmnfXYDgDGtJtoGXEx4vpc3IrIEccE9naLwOU0yvREYFdjvD/JUfhLSIE/ldGDfwHFGOft6OlOTrOvF32yVUsSZeSojAVT1A2AHoMzCUqNq55x5KosBdxIXATUTc0D9tkTb+gN79bUBgbSydwd619HpQ+H3m2T6M8yRHsLZznFaSORDf0iS6XWBbWJZD/imz4UuYXjTzprDlkCwBl+HGVF0QZLpJYTLOJ2Qp3KQz4V5Kodj5TFC+LGzC2gSjeMS6bbHQsZCEWBMnsqOAK6Y07aYk7pdjlXVSwHyVBYAbiE8YqTGIUmm15dgU39jeRFJ+tqIAFYQkWa5Ohv0qiV+rCEiPnknR2C5Ur4IMLb23DQjT+WHhD/0xyeZXhDYpl1a7tTqOKL4krbpj/dRq/u+i0jf9Dl5KsNbXZCn8m3gZ4H9nuvs6aJpOKeLU98GeCVwELBt7PV5Kl8HUNVXsEmkndj3c1T1ZOg6/70GK2kbwwl98ED1Jhv1tQGBrB/4875kfqDwjN8dB38HCwP2pfbcNPRruJ39GQH9AVyQZNoXx5obi0jLnYWIrI29FzpNf7yPwN+uUN/0fMAVeSrbNfplnsrOwGWE5b1cQ4PI2sKKhHkqa2CJMEsGDFbjHWDzWla3iGyExUOHZnxeA4yoJeLkqVwKfLd1k6ZcmGR6YGTb2RCRaRTLt/ydeJ9SjUHAN4C1PK8/QVWP7/5DEXmHxhm99TyL5dG0Q6i9R6vqad1/6Pn9gkXk3Y3pmsWwCLAV8CXP60ep6kU+F+apDHK2fT3AninAFklmQSKunx2wcPmQ/KbrgD2TzC+zXkROw89/cwemFFEUTXSLqjYNaxaRKyk+EnwYy1/ZwcOu01X1qAbjvI6fIsUHwO+IP3IfhC1qfaPZGt73jchTGYhFmYZMuB8AWyeZ/rmun80wn3FIwMRdwE7OvTEbhTdjkumTeSrbY19s6It/CeCuPJVNkkxfUNUHXKz5bfhXFbwLGFk3eZxK/OTxK+DgyLaxTGp0U4fiKjKOw7Jzi2gnmuaJEu29HNjb4/Jm9vpMHh8AX1PVtvxsIjIAuz988ji8v98k0w/dsdR9+E+oiwPj81Q2TTL9Z57KJs62kMnjbsxpXqosi+MA7Pl9ltbSRTuLyGqq+kz3X4jIisC3CsaZAeyOFYYrTJRtgc/fayawteqsl20MIiLYfe8T8RVyH32SpzIMew9v7NlsIeD2PJXNk0wfy1NZB5uEQt4Pk4BhjSYP8MxITjKdhKXUF2Z5NmA54O48lWUAXG3ykfiFqE0Cdq1p3eSppFjMcwy/A/bq0APVcZw+02V9bYcvzt7eiHy5r93JA8DdY2NKsKcHSabvYCvHFwKaLYs9N9tgC66Q/KYHsOjC0uRFujFdVZ+nOOlQgMOa/G40xRPijW6ctrWuPPhru5MHdKUwXFqCPT1wvukdMAkZX5YAJuSpbI2lOnjXYnLj7NBKXNZb0iLJdDyW2xGTNbsKcKeLmkJVr6U4U/0pbEVQE0fcm/DIlhoPAbt28IHqLWL8UX1Jb9jrJTHiScfsddpB22DyE76shO3AW8lZdOcpLK+pNxSlffwx+4jIbMKoIvJp/PJlzoyyKo7QJOJWdPI+mowtRkJ2ZJ/Fjq1CItFeBrYt0mwL0kRKMh2HrRxiWA+42UVPoarnAc2yVl/BJEqmQtf57y+IEzt7Bnug3otoW1FRGkmmz2IidVM7NMQrmKJC6UKNjVDVhzBttVYsCHQPKx1FsZ7ZvapzTX5WqSSZvkz7QUmtmIxNHoWTVLCoXpLpOcRLDvw3MM5FUeF0cy7sds1bmCjaWwCR5781cuyBCln1VVR0jCTThzE/S9m74cnYvd6OryAGn13IQU6SHZeBfYhHm97cfcxxJJk+iR1nlb3TfB87tvI6JotSZU0yPZb4c76hzD5pHMSsePn3gbVU9Q2APJW1CD//rfE2Nou+GGlnRfv0J+mUfkOS6e8Jl6poRdBDXzJ3YirWrViaWeKAIyk+SnkSuL1Nu+Z6nG96GHG+6UZ8gjnMJ/k2aEfWexTx4Z7756mcDLPpZp0PfKmm6Z+nshLh5781PgR2TDL9R6R9FeXwDc/r5sjAhnZIMr2Bnkc7MXyC6Vt5P/Rl4p5fn93CYS7S7Yce157ZTs2YeQkn5b4Pcb7pehTYJ1QaPnoCcdLBe1J8BtqMY/JURoPdhKp6sKqp4eapfAZz+sRkVE8Hdq+Pfa4IYiERWanNzxoi8n2sroMPz3XyP9RfSTK9CAjSLupGTd9qQkkmxTIOOy5uxapYFGFRrs3rwNVlGDWv4MqLt1s+49D6MuW+tFVYKMn0I0zF8W+RXZzVXf8nT2VRLNxs1Yj+FPhOkuncuv2N+U5C2Ror69vO5wmKixvV82h55s9ZJJn+FDgvsvmhSabXlmlPDK4aoY/opU+Ni3NU1VfKvMKRZHouVh4ghpNc+2D6sjJdRQAisjBwjOflZYa2dppPCItrnxuJCfucSbmhp+1yEe1Hl73n+qmIIzZ8ODrsOCayqYsSBA1/mGR6Vf0PkkynOg2XiYSr7NaEHCf3o13I9iLSbl2UQZi+la9Tek4Kf7zWpwzp3IoTtfM96qtnPuCaPJUhSWalDfoSVZ0iIpfSPHHQhzGqfuWkK2YnT2UoEKvvd0Geyn+SrHk1x2ZETyAuFHcc8YKGpyWZZgCW/c9ZwHmq+lyS6RsuA3ci4XU+BgC/ylPZqp/4QT7nPr3FdOKPFHub94lXFpjjcfWn28laXgC4JU9liyTT/vA3PxurahfzXpkBZOWaM2+Qp7IF9i6OPVGaD0uvCF6MtHOEdSHx5SF/kWR6NHRNHmdjZXAfE5HVAJJMn8fKmL4T0f8g4DYXBjyv8ZirwzIncJKqFjlf50ryVDbFxA7bOgXAyqTemafyxfatag9VfRmI9cn8SrUKuQ8lT2Vd7BTIRzeuFbXFSNBpUtQEkqdyEuGlO2vcAnyv7t8nMyuCYCHgfhF7GJJMH8Wqrk2LGOfTmJDj5yPtnFPx9ZP0NScCp/e1EX1BnsqXMVG7mPymRiyL6R31h6JJsQmAVeJgIG7RcCe2iCiD4MVI8ATiSm/+b2g7x33At1wIMCJyJD1feEsCfxCRFQCSTO/DFGhnRIyXYA/WZwqvnDu4VFU7VYe+LKYBe6nqcfNirL/LbxpP+ZUWv4AtmELE8kpHVR/BQvBDuEdVH+6EPXMrbrEwAT+Z+hCCFiNBE0ieyp7EF25/FNOUnwYgIgfQ3Hm4AnC3iCwFkGR6K/E7ntWAO/JUirR35nT+RXsOzE7zBJZEtqKqzpNx/m3mN/mwNvCbPJW+VgAILXoVev08jVskjMcWDZ3gC1g5gcLFiPcEkqcyBNO5jxE0fB4YkmQ6BUBE9qA4YmB14HYXvkqS6VjiHa4bYEKOn4ps39+5EthQtRTByImYZpnPZ0/8pLbfBbZU1bNUS9clW6rEvmKKpnnh8pvuJCyXZyp2z4fImW8GXFfTm+sLVPW3WCE1Hx7HXoZ9TZn3UYx6hhducXArsE5As2lYobAQV8A6wK1FixGvCSRPZWPgBvyLQNXzBiby9hqAiGwNXOU59sbAjSIyECDJ9HQsWiuGLYGr8lTmptyXl4GdVXVkieGPb6rqHzw/19BcUbmexYCxJdnXncEisnRJfe1ZUj+z4RYuNxFWWvVjrKbH6VgBtZDjvp3pUE2KAHx9Gv1FtmTj2rF5CQwrqZ/ZqCvlvXlAsxnA8CTTnwHDCXMFbI6FijddjBRGgLiStncQXo0QbAU1JMn0n9BV0vYmwiaibYErRKRW0vZwrJymT6W77uwOvAmUUtLWk2coL6xWsd3cw8DDqvpCSf3WE1q85xQsWm6TguuGiMjBTsbflxm0rngHlu0+SUTGEC+JsiiWgb+75/Xe35FbsFyFLWB8mYkVP/sdQJLpFe74K+SoZ18X2+9TojYUn///ddi9sWKLa3Is/LSM8dptPxC7jy4jPrF1EDAYv2qEvnbVczF+FTPrOSDJ9GaAJNOb81QOIKww3a5u3IZVYFvWRM9T+RzwZ8wnEcpHwHZJpvcAiMjqWG312K3iOap6qLNrABbNtX1kXyckWc+a4aF41uw+JPCl2TE8a6KfrKrHBva7MvAIxdIlH2JS/V4PqIj8A/ivEFt6ia3dMU0heSoXYMKjIRyYZNq9zAF5KmdgC6gQDk8y9SrE5lkTfbKqeu34RCSl9YnBUarqFYknIm9S/O5oVhP9T4TVpO8tdlfVG3wuzFM5BTg6sP+jk6xnzfU8laOAUwP7OjXJtEeEZ9PjnDyVpTCHX8zkMRMYUTd5rIAp67ZzzvgDEflfgCTT6dhq8f7Ivo7LU+mtXchDvTROWQTb68qO+tR4GARcLeLti+qv351XxFCeynGETx7HNZo8HD9iVukDX87IU/FdEfsQ8je5lOZ5XFOxlW0nxi2zbSfxsitP5VDCJ4+s0eQB4H4emrR5tLNjNhpOIHkqC2PHVqsHDlLjwCTTGwFEZEls8mi1lfXlJBHZHyDJ9ANgR4prETTj3DyVPUqwqRXTsZX5nERUOKWqXoEV/ipiXeCnnbSlwzzn42/KUxkFHB/Y9/lJpk19SkmmCnyHsFoZNXmfHQNtaYb338QFdTTTtrpMVUOShNu5F/rjfTTZ5wg6T2UE4S/7qyiWzf+huy6EzNnTRY8JJE9lIHAjpr0Uw0+STC8GEJGFsJt9zci+GnGhiAwFSDJ9C/ORvBTRz3zAlXkqW5VoW3d+r6ofdrD/snnUZRPHcgB+An+Hi8gWHtdNoLxiOWVxW9EFeSq7E66wex0mA9ISt/veg7Dd9wDg+jyVdo9xlPBCT+fQs/ridMLTAW4nvubFPUB/U2co/B5d5OtYwiJf7wD2dYuNprjf7+uu90WAsc4uoNsEkqciwBXYSzmG85w8NS5y6kbgq5F9NWN+YFztBZRk+iqwDeYcD+VTwE15KhuWZ14X7wPf70C/neIT/OS2m+JW5iMpftDnA34pIi2T6VT1aeIlqjvBi0BL/1Ceypb4RxnWuBur6+FVWKtu9/1EwBiDsByRduR9zlcN05dzBeK6r6DPV9WgRZ8b9/yQNnVtXyH8CKiTvEHBDiEy8vV+rBaSl3M+0hUwELjB2dfjJv85FuoVw7U4SRIxgavLseicTrAAcIuIfAUgyfRpzKEekwexCJZoWFToJpQjnG9gTuFEVfWN3W+Kqv4e+LHHpZ/DTz30FOCvbRlVDgrsp6pNJcvzVNbHogxD8o0exCoKBtVIj9x91+R9VgoZy/EMxQ72ZhwDHIGtuo/GryphI450dsRwLvHF78rm+6radMHrIl9vJyzy9XGsCmvQTivSFbAwcHueyhpdE0ieyrH4OUIbcTdWDrG2gsroUEx9HYsB4+t0sx4kvj7w0lj6/vIl2XYZc1Zdg2sJj8poiqqejF8ewnARaXmfqOp0rH74s2XYFsl04Gg3ObbibPyLaIEd0W2XZHEJoEmmr2DhwSEFuRL8fVA1XgKGx4p0qupMVT1TVXdU1dNUNUaWCDf+cCKOrOtKZ/dlmeuZwCmqelPBdWcQFnA0Ecu1eyvGKNduGyzi1pelgDPmA8hT+R7hN1WN2VZQInIMceUVRxPucF4WmCBiui2utKfPEUojVsRWZ+1kkb4G7KSq+/eT5Kgi3sBCCYfHPtTNUNXvYRFIRS+dC0SkZYCFqj6FZcZm9H799MeAr3qGm26D+T6K/vYfY6vwIUmmk9sxzuVYbYSfz+VjTMfu2wFDXAKspar9YReIs2MtzK7Qti9iyZwn0X5uSSjPApurqo+O4FBMaLToXp+JJfIOTrL2VK1d+8HYjt9n3NOBofLqaIYB1xOnzPs0sGmS2XbMRUgF/2Fx8eBuIphIuMbLI8BgVZNKyVM5GNuyxnA/sJXPVtDlgUzFojwmAWf354I4Lg9kBrPs/XmrrXRJY66AOev2pqeMxwtYWOrFvrLuIvI1zFezPvBl2pexbsRL2Hd0L3ChK9nqjfODjMQkdFbHnq1pmLzHA8DYJGv/uLDBuNsCuwEbYvkzA7Ad+WNYyOgFSaZNF2kuD+Qw7DjjIWCcqoXi90dEpCanswH2/z2rUR5Ik7brAfu5tmtTnjJyPa9i99FE4NzQgJo8lU2wBL71sUCk2t/zUew+ujrJdGKpFtu4g7Gd3obYMzYQm3CfwP4/l9VqLcmrozmbuB3Db4D96iaPodhEFKrBc5aqdp2JuiOpiYSrTP4R2FbVxBpdiO4lFCfOdedFYGcnJd8SEVkx1BnYl4jI59qMsmp3/EGY72MA8KKqvt9mfwOBNbAyAGWgWJhuaXpdLiT+88CzSdZ7lRfzVBYCVgL+lWR+NcZFZBlgypxYk1xEFgAWV9U3ItoOAL5E2PFjKxS7v0srLZ2nMghYmYC/Z0njLogt6J9Psp4ToKhqLVxsDH4qodOAI5JsVna1i4gaT/hq8Epgn+7HPSKyDrb6C3353wzsVjuOcbVAxlEss1HjF8DoJGvuKK2oqKioMLqkTPJUlsQSn7bAtkv1OwnFoh8mAWcmmT7W1YHIulh0Q2hRk9uBXZ2TtKdhIptjCYih0tRjVLVLt8UJgY3GorQ2pOcq403Mj3N+P6qjXlFRUdHvaaiF5bbd62HnX/8EHkiynlmjIrIKdty0TOC4f8b0hFr6GURkFyyXJPRY7FTVnrotTthuTczp+B7woCudW1FRUVERSEsxxZYNRZbDJo+VA5s+Dmzm62wWkX2xo6VQUlWNLX5VUVFRUVFAVG0Ml0E8nvDJ40XM0e0dqaSqYzERuVDOEpldt6WioqKiojyCdyAisiCWALVZ4FhvAps6eYpgRKKkrD8BdlHVO2PGrKioqKhoTtAEIiLzA7/GKp6FUCtpGi2r7ORRxmA5BSF84Mb+S+zYFRUVFRU9CT3CWohwvakHsSJCbWnyq7EfkNJT3bMVUwiPEKuoqKioKCBoAlHVqao6Aku1L0rYmQmcBnxd1UraloFzjH8NP22kcZgMw4Syxq+oqKioMNqJwloSU9vdwH3WwSQgJrnPfU7DqCOIyMJYzsrGWFjuhsDbmATDQ8BEVY2tWFhRUVFRUcD/AxXAj7khtjteAAAAAElFTkSuQmCC;" vertex="1" parent="1">
          <mxGeometry x="50" y="850" width="266.67" height="40" as="geometry" />
        </mxCell>
        <mxCell id="H7LAwcqjLhsTPvcVJDRF-190" value="" style="group" vertex="1" connectable="0" parent="1">
          <mxGeometry x="40" y="770" width="795.46" height="70" as="geometry" />
        </mxCell>
        <mxCell id="H7LAwcqjLhsTPvcVJDRF-191" value="" style="group" vertex="1" connectable="0" parent="H7LAwcqjLhsTPvcVJDRF-190">
          <mxGeometry width="795.46" height="70" as="geometry" />
        </mxCell>
        <mxCell id="H7LAwcqjLhsTPvcVJDRF-192" value="" style="rounded=0;whiteSpace=wrap;html=1;fillColor=#CFCFCF;strokeColor=#000000;shadow=1;aspect=fixed;strokeWidth=2;movable=1;resizable=1;rotatable=1;deletable=1;editable=1;locked=0;connectable=1;" vertex="1" parent="H7LAwcqjLhsTPvcVJDRF-191">
          <mxGeometry width="795.46" height="70" as="geometry" />
        </mxCell>
        <mxCell id="H7LAwcqjLhsTPvcVJDRF-193" value="" style="rounded=0;whiteSpace=wrap;html=1;fillColor=none;strokeColor=#000000;strokeWidth=2;" vertex="1" parent="H7LAwcqjLhsTPvcVJDRF-191">
          <mxGeometry x="30.19000000000002" width="736" height="70" as="geometry" />
        </mxCell>
        <mxCell id="H7LAwcqjLhsTPvcVJDRF-194" value="" style="group" vertex="1" connectable="0" parent="H7LAwcqjLhsTPvcVJDRF-191">
          <mxGeometry x="499" y="17.5" width="84" height="35" as="geometry" />
        </mxCell>
        <mxCell id="H7LAwcqjLhsTPvcVJDRF-195" value="" style="rounded=0;whiteSpace=wrap;html=1;fillColor=#000000;strokeColor=none;" vertex="1" parent="H7LAwcqjLhsTPvcVJDRF-194">
          <mxGeometry x="66" width="18" height="16" as="geometry" />
        </mxCell>
        <mxCell id="H7LAwcqjLhsTPvcVJDRF-196" value="" style="rounded=0;whiteSpace=wrap;html=1;fillColor=#000000;strokeColor=none;" vertex="1" parent="H7LAwcqjLhsTPvcVJDRF-194">
          <mxGeometry x="44" width="18" height="16" as="geometry" />
        </mxCell>
        <mxCell id="H7LAwcqjLhsTPvcVJDRF-197" value="" style="rounded=0;whiteSpace=wrap;html=1;fillColor=#000000;strokeColor=none;" vertex="1" parent="H7LAwcqjLhsTPvcVJDRF-194">
          <mxGeometry x="22" width="18" height="16" as="geometry" />
        </mxCell>
        <mxCell id="H7LAwcqjLhsTPvcVJDRF-198" value="" style="rounded=0;whiteSpace=wrap;html=1;fillColor=#000000;strokeColor=none;" vertex="1" parent="H7LAwcqjLhsTPvcVJDRF-194">
          <mxGeometry width="18" height="16" as="geometry" />
        </mxCell>
        <mxCell id="H7LAwcqjLhsTPvcVJDRF-199" value="" style="rounded=0;whiteSpace=wrap;html=1;fillColor=#000000;strokeColor=none;" vertex="1" parent="H7LAwcqjLhsTPvcVJDRF-194">
          <mxGeometry y="19" width="18" height="16" as="geometry" />
        </mxCell>
        <mxCell id="H7LAwcqjLhsTPvcVJDRF-200" value="" style="rounded=0;whiteSpace=wrap;html=1;fillColor=#000000;strokeColor=none;" vertex="1" parent="H7LAwcqjLhsTPvcVJDRF-194">
          <mxGeometry x="22" y="19" width="18" height="16" as="geometry" />
        </mxCell>
        <mxCell id="H7LAwcqjLhsTPvcVJDRF-201" value="" style="rounded=0;whiteSpace=wrap;html=1;fillColor=#000000;strokeColor=none;" vertex="1" parent="H7LAwcqjLhsTPvcVJDRF-194">
          <mxGeometry x="44" y="19" width="18" height="16" as="geometry" />
        </mxCell>
        <mxCell id="H7LAwcqjLhsTPvcVJDRF-202" value="" style="rounded=0;whiteSpace=wrap;html=1;fillColor=#000000;strokeColor=none;" vertex="1" parent="H7LAwcqjLhsTPvcVJDRF-194">
          <mxGeometry x="66" y="19" width="18" height="16" as="geometry" />
        </mxCell>
        <mxCell id="H7LAwcqjLhsTPvcVJDRF-237" value="Max Pro lite switch" style="text;html=1;align=center;verticalAlign=middle;whiteSpace=wrap;rounded=0;" vertex="1" parent="H7LAwcqjLhsTPvcVJDRF-191">
          <mxGeometry x="180" y="22.5" width="60" height="30" as="geometry" />
        </mxCell>
        <mxCell id="H7LAwcqjLhsTPvcVJDRF-203" value="" style="group" vertex="1" connectable="0" parent="H7LAwcqjLhsTPvcVJDRF-190">
          <mxGeometry x="709.46" y="14.5" width="26" height="41" as="geometry" />
        </mxCell>
        <mxCell id="H7LAwcqjLhsTPvcVJDRF-204" value="" style="group" vertex="1" connectable="0" parent="H7LAwcqjLhsTPvcVJDRF-203">
          <mxGeometry width="26" height="41" as="geometry" />
        </mxCell>
        <mxCell id="H7LAwcqjLhsTPvcVJDRF-205" value="" style="rounded=0;whiteSpace=wrap;html=1;fillColor=#000000;strokeColor=none;" vertex="1" parent="H7LAwcqjLhsTPvcVJDRF-204">
          <mxGeometry width="26" height="16" as="geometry" />
        </mxCell>
        <mxCell id="H7LAwcqjLhsTPvcVJDRF-206" value="" style="rounded=0;whiteSpace=wrap;html=1;fillColor=#000000;strokeColor=none;" vertex="1" parent="H7LAwcqjLhsTPvcVJDRF-204">
          <mxGeometry y="25" width="26" height="16" as="geometry" />
        </mxCell>
        <mxCell id="H7LAwcqjLhsTPvcVJDRF-207" value="" style="group" vertex="1" connectable="0" parent="H7LAwcqjLhsTPvcVJDRF-190">
          <mxGeometry x="42.460000000000036" y="15" width="42" height="40" as="geometry" />
        </mxCell>
        <mxCell id="H7LAwcqjLhsTPvcVJDRF-208" value="" style="rounded=1;whiteSpace=wrap;html=1;fillColor=default;strokeColor=none;" vertex="1" parent="H7LAwcqjLhsTPvcVJDRF-207">
          <mxGeometry width="42" height="40" as="geometry" />
        </mxCell>
        <mxCell id="H7LAwcqjLhsTPvcVJDRF-209" value="" style="fontColor=#000000;verticalAlign=middle;verticalLabelPosition=middle;labelPosition=right;align=left;html=1;outlineConnect=0;fillColor=#d6d6d6;strokeColor=#999;gradientColor=none;gradientDirection=north;strokeWidth=2;shape=stencil(ZZExb8MgEIV/DWOQc6hJPaZpM3Xokrk6Y2JT2eCCXdqlv71HLlGCKoHgfe+E7h1C7WOPkxFQYZyMnoV6FgBfGCw2A2Egp2e4hoq1w9EwOjb2c7GzJfjqO892KsrVi6h2It8rofYnH0wX/OLawrjadsQu9xKD5kf6eZ6iUFR3oJVSklGji34J2kjtR4K/tEfTWqTzLfiPHAIOt7JCJNOQzr1GOp8CunZ1VcslzPtAQE6u4zjf3Mnq4VHWNaOfC9qAhHURGtRW1ptibPcoxygHQuTfTM6Uv+UM/gA=);labelBackgroundColor=none;shadow=0;glass=0;sketch=1;aspect=fixed;" vertex="1" parent="H7LAwcqjLhsTPvcVJDRF-207">
          <mxGeometry x="9" y="8" width="24" height="24" as="geometry" />
        </mxCell>
        <mxCell id="H7LAwcqjLhsTPvcVJDRF-210" value="" style="group" vertex="1" connectable="0" parent="H7LAwcqjLhsTPvcVJDRF-190">
          <mxGeometry x="591.46" y="17.5" width="84" height="35" as="geometry" />
        </mxCell>
        <mxCell id="H7LAwcqjLhsTPvcVJDRF-211" value="" style="rounded=0;whiteSpace=wrap;html=1;fillColor=#000000;strokeColor=none;" vertex="1" parent="H7LAwcqjLhsTPvcVJDRF-210">
          <mxGeometry x="66" width="18" height="16" as="geometry" />
        </mxCell>
        <mxCell id="H7LAwcqjLhsTPvcVJDRF-212" value="" style="rounded=0;whiteSpace=wrap;html=1;fillColor=#000000;strokeColor=none;" vertex="1" parent="H7LAwcqjLhsTPvcVJDRF-210">
          <mxGeometry x="44" width="18" height="16" as="geometry" />
        </mxCell>
        <mxCell id="H7LAwcqjLhsTPvcVJDRF-213" value="" style="rounded=0;whiteSpace=wrap;html=1;fillColor=#000000;strokeColor=none;" vertex="1" parent="H7LAwcqjLhsTPvcVJDRF-210">
          <mxGeometry x="22" width="18" height="16" as="geometry" />
        </mxCell>
        <mxCell id="H7LAwcqjLhsTPvcVJDRF-214" value="" style="rounded=0;whiteSpace=wrap;html=1;fillColor=#000000;strokeColor=none;" vertex="1" parent="H7LAwcqjLhsTPvcVJDRF-210">
          <mxGeometry width="18" height="16" as="geometry" />
        </mxCell>
        <mxCell id="H7LAwcqjLhsTPvcVJDRF-215" value="" style="rounded=0;whiteSpace=wrap;html=1;fillColor=#000000;strokeColor=none;" vertex="1" parent="H7LAwcqjLhsTPvcVJDRF-210">
          <mxGeometry y="19" width="18" height="16" as="geometry" />
        </mxCell>
        <mxCell id="H7LAwcqjLhsTPvcVJDRF-216" value="" style="rounded=0;whiteSpace=wrap;html=1;fillColor=#000000;strokeColor=none;" vertex="1" parent="H7LAwcqjLhsTPvcVJDRF-210">
          <mxGeometry x="22" y="19" width="18" height="16" as="geometry" />
        </mxCell>
        <mxCell id="H7LAwcqjLhsTPvcVJDRF-217" value="" style="rounded=0;whiteSpace=wrap;html=1;fillColor=#000000;strokeColor=none;" vertex="1" parent="H7LAwcqjLhsTPvcVJDRF-210">
          <mxGeometry x="44" y="19" width="18" height="16" as="geometry" />
        </mxCell>
        <mxCell id="H7LAwcqjLhsTPvcVJDRF-218" value="" style="rounded=0;whiteSpace=wrap;html=1;fillColor=#000000;strokeColor=none;" vertex="1" parent="H7LAwcqjLhsTPvcVJDRF-210">
          <mxGeometry x="66" y="19" width="18" height="16" as="geometry" />
        </mxCell>
        <mxCell id="H7LAwcqjLhsTPvcVJDRF-221" value="&lt;b&gt;Node One&lt;/b&gt;" style="text;html=1;align=center;verticalAlign=middle;whiteSpace=wrap;rounded=0;" vertex="1" parent="1">
          <mxGeometry x="90" y="884" width="60" height="30" as="geometry" />
        </mxCell>
        <mxCell id="H7LAwcqjLhsTPvcVJDRF-222" value="" style="strokeColor=#666666;html=1;labelPosition=right;align=left;spacingLeft=15;shadow=0;dashed=0;outlineConnect=0;shape=mxgraph.rack.general.cat5e_rack_mount_patch_panel_24_ports;" vertex="1" parent="1">
          <mxGeometry x="37.73" y="670" width="802.27" height="100" as="geometry" />
        </mxCell>
        <mxCell id="H7LAwcqjLhsTPvcVJDRF-223" value="" style="strokeColor=#666666;html=1;labelPosition=right;align=left;spacingLeft=15;shadow=0;dashed=0;outlineConnect=0;shape=mxgraph.rackGeneral.shelf;container=1;collapsible=0" vertex="1" parent="1">
          <mxGeometry x="37.73" y="1270" width="802.27" height="125" as="geometry" />
        </mxCell>
        <mxCell id="H7LAwcqjLhsTPvcVJDRF-234" value="" style="group" vertex="1" connectable="0" parent="H7LAwcqjLhsTPvcVJDRF-223">
          <mxGeometry x="12.270000000000032" y="10" width="184.84" height="110" as="geometry" />
        </mxCell>
        <mxCell id="H7LAwcqjLhsTPvcVJDRF-227" value="" style="shape=image;verticalLabelPosition=bottom;labelBackgroundColor=default;verticalAlign=top;aspect=fixed;imageAspect=0;image=data:image/jpeg,/9j/4AAQSkZJRgABAQEAYABgAAD/2wCEAAcFBQYFBAcGBQYIBwcIChELCgkJChUPEAwRGBUaGRgVGBcbHichGx0lHRcYIi4iJSgpKywrGiAvMy8qMicqKyoBBwgICgkKFAsLFCocGBwqKioqKioqKioqKioqKioqKioqKioqKioqKioqKioqKioqKioqKioqKioqKioqKioqKv/CABEIANsB+gMBIgACEQEDEQH/xAAyAAEAAgMBAQEAAAAAAAAAAAAAAQMEBgcCCAUBAQEBAQEAAAAAAAAAAAAAAAACAQQD/9oADAMBAAIQAxAAAAD6RidPP0tc+d9m9/HsHrj/AJqexuOwdjcdHYnHR2KeOSdhnjo7FHHx2Bx8dhceHYY4+OwTx6Tr7kA7A4+OvuQDsDj46/PHx1+ePjsEcgHYI5AOwOPjsEcgg7A4+OwOPjsDj0HYnHoOxOOwdjccg7H549kHbdr+Quo+fp3AeXo5J1vitZy3oGgdH6uXUce7DqLlIuUwXqJZcpNuUi9RJfFIvUSXTQL1IuUi5TJaqguUi5ULVUFyqC5SLlIuikXRVBcpF0Ui5SLopktUi/a9P3aa0/8AQwvM+n1QOXocV7VxWp5d0fnHR+nn0/DzMO/MAgwNSic0BMCZ8yJgSCUSESAAAAAAISImACAAQAgAAe910nd5rUfHvxPp9Ujl6HFe1cVrOW9J5v0jp5tOw8zDvziUAqLVQtmkXKRcqFqoXKZLlM5tqmS2aRdFQuUi5SLlIuUi6KhcpFqqC5VBaqFqqC1U3LYrFjz6APW7aTu81qPj34n0+qRy9DivauK1nLek836R082nYeZhX5zC0/PsvFK4UrhSuFM3G0rmZTNxtLIyD8+c+sw5uFK4UTcKVwpZngxlwpjIgoXwUrpKF0lEXClZBWsare/eMW6y4phO563fSN3mtR8e/M+n1QOXocV7VxWs5d0jm3Senm07CzcK/NdTcUJBAlEgAEgEH6X634ObN53r87HzcOfM35ySRkY2Tm7Pi4/5s3set5f5O5KJqAH7P42Xm5P5X6v5QG5GFnYGblzZZrGjMrqcfHzcOKyrqbtUTEs9bvpG7zWo+LPE+n1QOXocV7VxWs5b0nm3Senm07DzMK/NdTcUAJgTATEgCYk/DwsrHz2zqbp7OWq5Zm/nfoYmTz+/7Hn14iNYzML9H1qIyK/Xxp9X1a/O2TV9o4+i8V5eOe7xhcfV+HunK+nekXxMdHgwc7Ayv0bqMj186vVV9TThZeJ4euVdTbqkM97vpG7zWo+LK59PqkcvQ4r2ritZy3pXNuk9PNpuFm4V+a6m0pAAmAkAJRJ+Nr27e/P20P1vUxeh+94nGi7dmPSPVftflq3528e/P30Pzv0Ruh+95a07arnp5+omL8mPkIv8j9c3ETFSwc6nNv8AH5sZv61X5rc/UxsXPzbL6L9miYa97vpG7zWo+PfifT6pHL0OK9q4rU8u6TzbpPTz6bhZuHcRZXDPXnM9GBOcMFnSYE50mAzxgM8YE54wGeMFnSYDOkwGebgM8YE50MwozjcFnmYDOluAz4Zgs4YMZ4wGcMGM83AnNGF5zjMG7KwTyket40fd5rUfPrzPp9UDl6HFe1cWrOW9I5v0jp5tOw8zCuJgYQJBCREgJIkJgJADUwExJBJCYCYJgAAESESZCYaiYZJAiQAB63fSN3mtS8evM39UDl6XFu08WqeW9I5v0jp59Ow8zDqIG4AAAJESACQDQAExIBExJEghJAAAESESIDAaiTEJITB63fSN3mtR8+vM+n1QOXocW7Txap5b0jnHRunn0/CzcK4BgBMACYkEkSABJsJEJEJAAnEDQCJEJEJEJgRIhMMBsJMRMAHrd9I3aa1KPXmb+pxy9LS90a4T+71hcfK+t7rxZm6Rp/jW5+dNpN96Txz7lx8/R9BNfPs/QI+fn0CPn59Aj5/fQA+f30APn99AD5/fQA+f30APn99AD5/fQA+f30APn99AD5/fQA+f4+gR8/PoEfPz6BHz9H0EPn19BD59fQQ+TvwOh8BxvrS51uc6Z6N37R86fdGOI/r9YnKCKAAwtD6SOSx1scv/AF95GJlgAAAAAAAAAAAAAAAAAAAB41XbRzPA62ORZfUhr2wSAAP/xAA6EAAABAMECAUDAwQCAwAAAAAAAQIEAwUGEBEUFwcTFiAxMzRBCBIhMDUyN3EVRVEkQFBhIiMnQmD/2gAIAQEAAQgABmJzWsgkETVTKNpjp5BmUFOmCWxOVm0zGbLQFpZZjNloM2WYzYaDNhoM2WgzYaDNloM2GYzYZjNlmM2Wd4zZZjNhmM2WYzYaDNhoM2WYzYZjNlmC0sszGbDMZssxmyzMZsswWlhmM2WYzZaAtLLMxmyzGbDMZsMxmyzGbDMHpZZ3+mbLMZssxmyzGbLIZssxmyzGbLMZssxmyzGbLMZssxmwzuGbLMZssxmyyGbTMK0uMEFetOmWRee6LL9J9LTCKmElEVMVCVw7dJ9SxaVoZ4+bQZvDjxTWqXoaxYBLXEmz1ioyYbUT0bUT7ttTPhtVPxtVPyG1U/B1ZUA2sqHttZUI2sqEbWVCNrKhBVZUA2sqAbWVANrKgG1lQDayoBtZUFw2rqEbWVANrKgG1lQDayoBtXUA2rqAHVdQDauoBtXUA2sqDvtXUA2rqAbWVADqyoBtZUA2sqAbWVANrKgG1tQDayoBtZUA2sqAbWVB22sqEbWVCNrKgG1dQDayoBtXPzG1U/B1VPxtTPhtRPhtFOI5+VwcNtFgmuK/fQYMRSBoKq+M8mDqQxLdO85ds5SxlreXJScRKQ0YNP0fzB5EXBjGULFuBi3AxjkYxyMY4GMcjGOBjHIxjgYxyMY5GMcjGORjHIN45GNcDFue+McjGOeIxbkYtx2xbkYtyMW5GLcDFuRi3AxbgYxyMW5GLcDFuBi3IxbgYtwMW4GLcjFuRjHBA3jgYtz3xjkYxyMY5GMcDGOBjHAxjkYxyMY4GLcDGOBjHAQ5jqWRKkzNvHbrOLPoMODHWUPRXOHUs0hMmzS3xBcZKJbzkhn8KYmPPP8AsbryHr7/ABtO0xd7PcFuQ+aQkPSqFR9QsaPPubJdzxBcZKJbzkhn8KJj1B+8X+x2BXgzF4v9NzvunbeP4F9pXg7bwZexfuQuYQkPSrFR9QsaO/uZJdzxA/solvOSGfwomPPP2eO9fbdbxHCy63h7Jg/QH6etpi/2v92QeaQkPSLFR9QsaPPuZJdzxA/solvPSGfwomPUKv3PW07S3brx+fwYus428B2s48NzvaYM7Lre/pu3fzZ+b7IXNISDpVio+oWNHf3Mku54gv2US3nJDP4UTLnnuGZJK9WKbjFNxi4AxcAYtuMW3GLb3gnbcYpuMW3GLbjFtxi24xjcYtuMY3GLbjFtxi2xDFtxjG4xjcYxuMY3GLbDGNxjG4xjcYxuMW3GLbjGNxi29wxjYYxuMY3GLbjFtxi24xTfvi24xbcYtuMW374tv2RERE+j/Q/Ahc0hIOlWKj6hY0d/cyS7niB4yUSznpDP4UTLnnafoRmRNMSrzu8E2Irhg2wwTYYJuMG2GCbDBNhgmwwTYYJsME2GCbDBNhgmwwTYYJsME2uGCbDBNhgmwwTYYJsME2BMmwwTYhgmwwTYYJsME2IYJtcMC2GCbDBNhgmwwLYYFsMC2GCbDBNhgmwwTYYJsME2GCbDBNguXQb/ADQYPnOHdGH5hc1IkHSrFSdQsaOvubJdzxBH6yUS3nJDP4UTLnna2IjWoz7Axf7kKEuPFKHB/TXg/TXgjNY7YknH42Xi+y+4X2QGbl0V7aLCiQIy4Ua+w9y/dvu466ENdCBxoY10Ia6ELyMryBERs1HbC5iRIOlWKk6hY0dfcyS7niB4yUSznJDP4UTLnna1+tYv9rhZdZKIKoynKIUSjnKIUVSW8uTLo0M1O20FyxixDLc4Bg0x0wgNQqiYOOU3TGpNTWNFVEbodsZkuBIJpGiuJq5ix/xxB2y1pLIMnVM5vOWTKFAbPZXfZfZOFGmVRbiZtEkRFhWoNq19bjatQTNopVxy0iSzJJAvViofgQuYQkHSrFSdSsaO/ubJdzxBfsolnOSGfwomXPO1tzF7vfc7bl5EXr50iXzAmDo4hRp1CcQVQo8KbtoTNbVDqYQVtoUFr5kgjI+HGw1J7y+YHLnqHMPbN0cNEJSpy7XNFP1R542iyo20I1pMEtI47kB4smKpeucvG8duyaNLOw7idekriAzuMJgqVBVENHqwiGCgmqAcVMPmEJf0x2J6FQKyDzCvkHSrFSdQsaOvubJdzxBfsolnOSGfwomXPO1t9S/avsIT6Nhde5EtKcTXy4SGynKyNsMHP4TjUqjsqggulwI0RjN264kB7MIM/lpGh3TrrGypLg+AjGaW8RRTRzHbzZLJhBYzom8Nw4XL51qTcIKXztTVThMKXzyLDVHKIxnUWHFitGbpyc3QxfsTNTCEar7IkRMOGpa5nUU1U6NK5NUziG4RDdkZKIjTd6j8CdfFRAZ+odn5UQoZJipSziIDJR4jyhHpGuEv6Y7E9CoXgz9BC5iRIOkWKk56xo6+5sl3PEF+yiWc5IZ/CCZ887W31LOz8bhcN6piJTV8SpFOITNjDI4NVsozw4SHNUsm7hCYruqWbdwnXOaibQYZxojuftpg2LU0tCOFIrleneMRG3iEJorD1ZFiqXVbKAmHDiuKjat2prWVUs/084wbVI1jtvOmHVbGIcSHCS5JxVTGKhiX9DCtnCFrkrtMLSdBJDNj5YK0HAQgMkKhsICIl9s6+KiBQIidwEoI4EYlXBCMGg4kWGf/AGFfL+mUL+ILoVWXCFzSEg6RYqTqFjR19zJLueILjJRLeckM/hRMuoO1r9S/dnRErGEpicMkRSNb1EGLENCpq3I7lInDWIV4KZoiErVtnkJzGV5ZMaf0tBI4Bx0sYxN4kNE4jayI8RDjFDT+poIzTE/V4Hn1Y/VIfmShEN0mItRLYrhRKjl/kYdBCtO4w2XNZbMEupc0p+CiLiH25OfWVxAoXmQJ1HIriNRqVeqH9SRLulOxPQKthc4hIOlWKk6hQ0d/cyS7niC/ZRLOckM/hRMuedrX61j8+2qAhcYooJCiP0uV6i5fAESk8Ll+oJKy4ER8VA/UjI0IOGkkwzOLxO+KP+y8Xxe98YXLO8lIQlCCSi8cLPXedtku2q4C8C/4DAPxgX4Ji+BMX94bwCbNyhEYSX9CoEPUQuYkSDpVipOoWNHX3Nku54guMlEs5yQ0+EEy552wV+SJecRBw1f8hx3P49sj9i8Xjt7/AK2X2cbrl3woBQjIXiDzEiQdKsVJ1Cxo6+5sl3PEDxkolnOSGfwgmXPOw7ID5KYRQXeslfEayV99ZKxrJSNZKhrJSNbKhrJUNZKRrJUNZKhrJUNZKhrJUNZKhrJUNZKhrJUNZKhrJUNZKhrJUNZKhrJUNZKhrJUNZKhrJUNbKhrJVcNZKrxrJUNZKhrJUNZKhrJUNZKhrJUPPKhrJUNZKhrJWNZKu3nlY1krGOaQC/olKNa1KXZC5hCQdKsVJ1Cxo7L/AMnSXc8QPGSiW85IZ/CiZc87Lv5HEXD0Mfjhx/8AYXex3924Xe6dhWXDiCH4ELmkJB0ixUnULGjv00mSXc8QPGSiW85IafCiZc87DB7pjiPxZwsu9R3/ALrtu3WceF4uuH5uELmJMSDpVipOoWNHnrpMku54gOMlEt5yQz+EEy55297Cs/O92/s+P9h3s72wuYQkHSrFSdQsaO/XSbJdzxA8ZKJbz0hp8KJlzzt72dx3/wAZf62mIXMISDpVipOoWNHnppMku54geMlEt5yQ0+FEx55g90vX2C/t7v59n8d/Qx/I4C8fmFzCEh6VQqPqFjR39zZLueIDjJRLeckNPhRMeeftXC4XC4XblwusuFwMELhcLhduXAxcLhdfbcLhdZcLrPzZ2Fw72wuYQkPSrFRdQsaPPuZJdzSFo/KuGzbyJ0LVCyX54SaMqFuxw5VxGXR82hM56VXy4+B1dLxtfLhthLQdYy0gyqpg/fwGjfK6rAei+q7hldVgyvqwHovqwZX1WMr6rMhlfVYywqwZYVYMsKrBaMKsGWFVjLCqxlhVYywqsZYVWMsKrGV9VjLCqxlhVgywqsZYVYMsKrGWFVjLCqxlhVYywqsZYVWMsKrGWNVjLGqxljVYyxqsZY1WMsarGWFVg9GFVjLCqxlhVYywqsVcUWh5hAZVCVZyw+G18tG18tG10uG1su7sKpYO5lAawJXRtRtYZw4j/RRUkycKMqO0NuJHUTWbzO0xcLh4nmMdFSSd8cO64gZEDIhcQi3ENG9PzCoq8lkKWf4nxPU9MI0wlM8gQzIzBEVwuIERAyIiFEso0wr+Tt2pXGLhdvzWUMJ2wWymzvQLQjpSlJV4cqMP6U+HCjCP1geHyhYXMY6GqDYLJcJhKmMrblAlv+JiQkRoakRZnotoubKNTyPoBoON9C/DjRijPyl4b6OI/Vt4eqHgGRxacoSnKTvVIrvX/wCF/8QAQxAAAQMBBAYHBQYDBwUAAAAAAQACAwQFEVGSEiExkZPREBMgQVJxsVBTVGGBFCIwMqHBQoKDBiMzYmNyokBgc7Lh/9oACAEBAAk/AOi0Yo5fdtOk7cEyqm1/wxEKzK5/k1WNaGRWNaGRWNaGRWNaGRWLaGRWNaGRWNaGRWNaGRWLaGRWLaGRWNaGRWNaGRWNaGRWNaGRWNaGRWNaGRWNaGRWNaGRWNaGRWNaGRWPaGRWNaGRWNaGRWNaGRWNaGRWNaGRWNaGRWNaGRWNaGRWLaGRWNaGRWNaGRWNaGRWNaGRWNaGRWNaGRWNaB/kVjWhkVjWhkVjWgf5FY1oZFY1oZFY1oZFY1oZFY1oZFY1oZFY1oZFY1oZFY1oZFY9oZFY9oZFY9oZFY9oZFZNe0fNipquMYll6tFsEjtQE7Sz9SnBzXC8OBvB7BLJ3XRMkAv0C43aX0XXSveb3PIvLj5prmn/ADOuT5QP9Nykq8xUlXnKkq8xUlZnKkrM5UlZnKkrM5UtZnKlrM5UtZnKlrM5UtbnKlrM5UtbnKlrM5UtbnKlrM5UtZnKlrM5UtZnKlrM5UtZnKlrM5UtZnKlrM5UtZnKlrM5UtZnKlrM5UtZnKmrM5UtZnKlrM5UtZnKlrM5UtZnKlrM5UtZnKlrM5UtZnKlrM5UtZnKlrM5UtZnKlrM5UtZnKlrM5UlZnKkrMxT6zOVJV5ypKvMVJV5inVJYe5zitb9pGkopNH/AG3qWSWBkfWxB956s94+Q7Dmtp61568Ft5cBruTRdhcoGE3bSE4sF+xqmfvUz96mfvU796nfvU796nk3qd+9Tyb1PJvU796nfvU796nfvU796nfvU796nfvU796nfvU796nfvU796nfvU796nfvU8m9TP3qd+9Tv3qZ+9Tv3qd+9Tv3qd+9Tv3qd+9Tv3qd+9Tv3qd+9Tv3qd+9Tv3qd+9Tv3qeTepn71O/ep371M/epn71M/epXEeahY43bSEwNF/cnNbFXP6qduj+YdjxP9FisFj7XwWK+IHY8T/RYrBY+1sVgsV8QOx43+ixWCx/6Y+wcFiviB2PG/wBFisFj7XwWK+IHY8b/AEWKwWPYIHzKmZmCmZmCmjzBTR5gpo8wU0eYKaPMFPHmCnjzBTx5gp48wU8eYKePMFPHmCnjzBTx5gp48wU8eYKePMFPHmCnjzBTx5gp48wU8eYKePMp48wU8eYKePMFPHmCnjzBTx5gp48wU8eYKePMFPHmCnjzBTx5gp48ynjzBTx5gpo8wU8eYKaPMFNHmCmjzBPa7yN/ZwWK+IHY8T/RYrBY9Iv1bES7wx9wUEeVQMyhQR5VBHlUEeVQR5VBHlUEeVQR5VBHlUEeVQR5VBHlCgjyhQR5VBHlUEeUKCPKFBHlUEeVQR5VBHlCgjyhQR5QoI8oUEeVQR5QoI8oUEeUKCPKFBHlCgjyqCPKoI8qgjyqCPKoI8qgjyqCPcoI8qgjyqFmVQR7lBHlUEeVDqnjY5mpD741E49jBYr4gdjxP9FisFj09zCfx2F7z3BQ/wDIc1D/AM281GWB1+ibwb7vL8GCSQaQbe0d52BMLJGG5zTtB/E2KRmYKRmYKRmYKRmYKRmYLWMQejaH/t04rBYr347Hif6LFYLHp8B/FPQQ2R0YY1x/h0ntBO4qujJY3SGkS0EY3nVo/PYmGse4feY97WNA7nAl2sFQOAjYXMaHXiMlzr9mruG7tSsh614bpyG5rfmSqmoD44y90L4LpJRpXAx67nA7dqjq54WkaDI4rpLu8uBP3QPmrNqpaeWRjmMqCA68d2pR9VK6Q6Ud9+icO11k+lN1MNLC8BziBeXOPcNY7tf0T3/Z6kO/uZCC+Jw2g3bRr29kkX3DUqaLUMDzVLFuPNUsW481TRbjzVLFcTdsOv8AVbGucBf59HvP26cVgsV8QOx4n+ixWCx6fAfxbh5lObvTjc5padB1xxvH1AU9Y+Nx+80yi4p9QIZBc5mmNiL42saWu0n/AJhffd6pw3o39Lh9UIpC0EaMgBBChpXwxXdRGWi6K4k6vqSqi+d7iXG/Ub9ouwVBBBP1mmKiN33vJOBPeb04b+yWNp5ZWvc8svc0jVt23a04SNpYywzaGjpkns4j16CA1uPeV4giCAbiBtCxC94716Peft04rBYr347Hjf6LFYLHp8B/FYyQwQNdG2Ruk0Euuvu2FUFnPdI65oNMwX/orPs77TpaDQIGXA7lZ9lmRjrtH7Oy6/crPsxsjHaJaIGajuVnWc2UHUBAy4XjyVn2aNQOqnYdR2dyhhieZHMd1UYYDd8hq6DcQwkH6KlpJD1bTpTQhznE95JVm2d1DyWjRhbrIVnWd9n09BpMLdRu8lZ1mmJjtAu6luon6fJWdZpgiI6wiFt/orMs4xwgF+lC3UqKiaJQQTHA1pHkRrCJJ0brz5npNzWi8lOfCwam6ALQVL10T7tbj+X5o3gjUexiPXo/KG3/AFX5i4ELY4XELucveO6Peft2MFiviB2PG/0WKwWPT4D+Lfd9mZfmQk2D7zNoNyZOHtN5cW3G/emTEu1hwbeU2Z5k/i0LyhK8C686N59V1ztIjXILiLkLj9oeejvY4for3NjjYNXkhUfe1hoZeB+qExaDfohuq/HahN1e3QDdqEwa7a3RuB/VCoBGpw0Lgf1TXN05CNfl/wDFgfU9N4f1RIu+WtMv/vHflHyCb98nUvzNjAPnd2MR69DgJY9l/wDEFG6/yV3WuFzWYfMrEL3jvXo95+3TisFivfjseJ/osVgsenwH8U3D7My8/wAye3/E1C/5BBpaz8zr9iezUNt16e36grReG7fkiwBo8kQR1jtY6Pdu9E4AmNm3v1JocSLxqQaCNoIJWjs8JuVxJ2AApoZcnB1xds7jcsD6np1qelnaITF1NdHptF5vvGo60Y5Zy/rCI23NB+vZxHr0FSOuRJPzWIXvHevR7z9uxgsV8QOx43+ixWCx6fAfxS9sgGiHscQbsFUTD+cqabXt++danlzlTSjyeVPNr/zlVEw/nKe95uuGm4m7o2EXFTzsaNQaJTcFU1BP/lKqqjilVM/EKqajV/qlVVQP6pVRO4EFpBkOsFC5rRcBh+ESA4bRtCr5D9FXSblXSblXP3KvkH0Ti67WSdpPR7z9unFYLFfEDseN/osVgsenYQQVq7x8/Z229C436R6cVgsV8QOx4n+ixWCx7EDZ4u7Xc5vkVT1I/qDkoKriDkqeq4g5KnquIOSp6riN5KnquI3kqeq4jeSp6riN5KnquI3kqeq4jeSp6riDkqeq4g5KnquIOSp6riDkqeq4jeSp6riN5KnquI3kqeq4jeSp6riN5KnquI3koKriN5KnquI3kqeq4g5KnquI3kqeq4jeSp6riN5KnquI3kqeq4jeSp6riN5KnquI3kqeq4jeSp6riDkqeq4jeSgquI3kqeq4jeSp6riN5KCq4jeSgquI3koKriN5KCq4jeSgquI3koKriN5KCqzt5KCq4jeSgquI3kqQiT3kztIjyFyN7jtPYwWK+IHY8T/RYrBY+0vp0lYrBYr4gdjxv9FisFj7WxWCxXxA7Hjf6LFYLH2tisFivfjseN/osVgsfa2K8KxXxA7Hif6LFYLH2rrWKwWK9+Ox43+ixWCx9rYrBYr347Fb9knpXEsJZpNdf3HWqqgnAOzTc0/+qoopTdrLJxcN4VO+KadnWMEZDxd5pk+Uc0yfKOabPkHNMnyDmmz5BzTZjLO8MYC0AXn6qgi47VZ8XHaqCPjtVnx8dqoI+O1WfHx2qz4uO1UEfHaqCPjtVBHx2qgj47VQRcdqs+LjtVBHx2qz4+O1UEfHaqCPjtVBHx2qgj47VQR8dqs+PjtVBHx2qz4+O1UEfHaqCPjtVBHx2qz4+O1UEXHarPj47VZ8fHarPZxwrPZx2qz4+OFZ8fHarPj44Vnx8Zqs+PjhWfHxwrPj44Vnx8Zqs+PjhQOinqIzKwRkPGjfcmz5RzTZ8g5ps+Uc02bKOabNlHNNmMszwxgLQASfqrPaNLVf1w1L7FA069J8zj6NVqRyPpXabYYIzc4/Nx5duJ3UPgdGJLtWkCDdej0kIqnfMIp2ySva29sbRtJPd7Kp5JaKOF8EsjGk9W68EaWF+vciOwQo3SvdVMOi0X6r9v4VJDV0z/zRzMDh561ZboCfdSuaNyNa3ynKdWn+uVR1E3+6d3Nf2fppHDvmGn6qkhpYR/BCwNG4eymtexwuLXC8Ff2eoi921zIg0/orOliP+SdyNY3ymKkrT/WKpqmf5PncrKgppCLjKG3vP823/sb/xAAkEQACAgAGAgMBAQAAAAAAAAAAAgETAxARITEyQEEEEjAgUP/aAAgBAgEBPwAjDX2VqVqVqVqVqVqVqVqVqVqVqVqVqVqVqVqVqVqVqVqVqVqVqVqVqVqVqVoMkRGsZL2J8yRuuSdifMbgbjJO3msNxknYnPQ0y2/jY2/nb8NjbORuuSdifynXXY3/AIj7EZyRxlPBC68QV8aHvNhuuSdifxwcPDxMSYedCcH4czp9hcH4cTGrmJhYSaThzrlgYOBKQ2JOhR8Sd/uU/E0mIb2Sqpiyq8ZfIxZV1SPepgtLRvlPAm8TEcifb7RM8Qe824G65J2JI/CIZW1gbDmZ1Iw513Fhoj65aNKws8Fc6ipK7+yImWlpyfDXEjRoFWFjSMp4NZJZp5Pecjdck7EkeXI3XJOxPmNwN1yTsT5jDdck7E+Yw3XKJ0LGLWLWLWLWLWLWLWLWLWLWLWLWLWLWLWLWLWLWLWLWLWLWLWLWLWLGLWLGkl2mNP8AC//EACURAAICAgEDBQADAAAAAAAAAAACARMQETEDITIEEjBAQSBQUv/aAAgBAwEBPwAl2/ILGLGLGLGLGLGLGLGLGLGLGLGLGLGLGLGLGLGLGLGLGLGLGLGLGLGLGLGFaZ5w3H3VE8sNwR9xRfLDcEE/JrOjRr4lF8sNwRnc4747m8Rs7mzZs2dzcmzZs2bO53O+VF8sNwR8Ua13NxrMckyg0/kZjknnC8ktrmT3yd9ZXkXyw3BGI/mzOvTiUjZb6rXiT1fVTHZRX6jLPvjR+nWfqxOunGy31P8Agt9TuJ9o0zKRLc46PThllp/DqrEd4wvI3aYkbWpiP0jjKi+WG4I+GHX26ksUsUZ1nHvXey1SeosjNExqMK7JO1GaWnc4jk1BCxHB21lRfLDcEfcUXyw3BH3FF8sNwR9xRfLDcEfcUXyxyexSpSpSpSpSpStStStStStStStStStStStStStStStStStStStSpSpSpStYISIn+i//2Q==;" vertex="1" parent="H7LAwcqjLhsTPvcVJDRF-234">
          <mxGeometry y="30" width="184.84" height="80" as="geometry" />
        </mxCell>
        <mxCell id="H7LAwcqjLhsTPvcVJDRF-229" value="" style="shape=image;verticalLabelPosition=bottom;labelBackgroundColor=default;verticalAlign=top;aspect=fixed;imageAspect=0;image=data:image/png,iVBORw0KGgoAAAANSUhEUgAAAZAAAAA8CAYAAABIFuztAAAABHNCSVQICAgIfAhkiAAAAAlwSFlzAAAN1wAADdcBQiibeAAAABl0RVh0U29mdHdhcmUAd3d3Lmlua3NjYXBlLm9yZ5vuPBoAABwVSURBVHic7Z15vF3j1ce/i6TEXJTaVGlRvErNrSLemmLWBG8jRGlVY6hspYZXa6ixvLaapzQUMZQaaohoq6qpxtAWNbdmm6ogYgiSrPeP9Zybk3vPOft5nrPPvTfJ/n4+54/cu5/nWTl37/0Ma63fElUlBhFZEhgCbOA+6wAvAQ8Ak4A/qeoTUZ37jb8wsAWwMbARsCHwNvCQ+0xU1fs7NX5FRUXFvI7ETCAi8k3gImCZFpcpcAZwrKp+Emde0/E3BMYBqxRcOg44RFXfKnP8ioqKiorACUREFsUmjj0DxngA+JaqPh9oW6Px5wN+BJwIDPRs9hrwbVWd0O74FRUVFRWzmC/w+g+ARQLbbAT8VUTWCWw3G27yuA44Ff/JA2Bx4N12xq6oqKio6EnQBKKqM4D/Ae4LHGcJ4C4R+WJgu3ouAHYLbPMJsJuq/qWNcSsqKioqGhC6A0FVpwE7A48GNl0WmCAinw0dU0ROBA4IbKbAvqp6Z+h4FRUVFRXFBE8gAKr6DhaBFerX+AIwXkQW920gIgcBPw4cB+AwVb06ol1FRUVFhQcNneh5KvMDawJfBp4FHkky/bhHY5FVgIm0jsZqxH3ANm4309w4kT2Aawif6E5V1WMa/SJPZQXML/Me8GCS6duBfVdUVFRUUDeB5KksAhwJDAbWAxauu+4j4G/AX4CfJ5m+0NWByLrAH4DFAse+FRimqtMbGiayJXAH8KnAfseo6ndr/8hTEWA/YHssZ2T5btf/E3gQuDjJ9N7AsSoqKirmWURVyVP5BjAGWMmjzRRgVJLpNV2diGwBjAcWCBz/cmA/7bYNEpH1gXuARQP7uxlzms8AyFNZ1o0xxKOtAucDRyWZvh84bkVFRcU8h7w6mrOA0YAEtv0lcHCS6VQAERkKXA/MH9jPmap6RJdBIqtix2KfCeznj8C2tWOxPJUh2OSxbGA/zwO7JJk+FtLI+XUGBY4VigL/UdWZ7XYkIosBC7VvUksUeLM2oXeCkv8fpX2/9eSpSJJFSj700bgiMj+wNI3fC1NU9cO2jAuzZRAWjt8dBSY3O8UIHGNRZj91aYeO3Pf98T6SV0czDHvxxzjU/w4MTjJ9F0BE9gcuiejnSFX9mYgsh00eKwe2fwQYrKpTAPJU9gHGEj4pAtwPbJVk+oHPxSKyK5ZxX5QVXxbvYd/7w8AfVfXXIY1FZAfgLGC1DtjWiPeZZe+fgBu67zhDEJGVsVDy9d0n9F4pYip2XPswcK+q3hLaQZ7K54GhzJL5WQn4B5ZU+wBwa5Lp5LIMrht3BWA77Kh2Y+xv/BSz5H2uS7LWqgwisgxwLrATzRdEiskWPYm9O65W7ekjjUVEBgIjsL/zGsCKNH+Wp2FH3Qer6msBYywPDMfuoQ2AL7YYI4a27/s8lQRLXajd66tif8/6++jfJdpcG/ez2H30Vew+WgPzhT/sPjckmeYw6wjre8DFkePdCwxJMlv5i8gxwMkR/YzGfBVrB7Z7Dvi6qr4OkKeyE/BrYECEDY8Dm/k61kVkK+DuiHHK5G7gO6r6ctGFIrIZ5q+Kir4rid9j4dUvhTYUkQOAMwlPZm2H24D9a/dXEe5Z+j9a2/gqMDzJNDSfqtW4I4ALaX3s+zpwQJLprY1+6V7ck4B1Q4fHJIvGBrZrZMMI4DRghcCmjwHr+8gmiche2CS5RLiF0QTd93kqewHnAJ9ucdl/gL2TTO8qwb7auDthi++lWlz2NvCDJNOr6p3oxwI/jRz3ZmC3JLMtm4icDRwa2VcI/8Ymj38B5KlsCkwg7ijpJWCTJNNXfRuIyB+BzSLGKpspwIGqOq7VRSIyAdi6d0xqybvAqCJ7a4jI0sCV+PmyOsFkbJJuuRvJU7kJ2NWzzxnAccAp7RxLuOCX84GRAc1+nmQ6uvsP3TH0jbG2ACeq6nGxjdtYfNYY1mpH7o47x2K7w77A677PU7kc2MezTwVOB46tvX9jyFP5FHaS8oOAZld0rUSTTE/CZuUYdmX2o6sUEzLsJO8CQ+omj7WB3xA3ebwJbBMyeThCd0udYnHgl05kshX9xd7F8LO3xhj6bvIAW41dKyJrFFw3FpsYfJgfaOeZI09lQez4JmTyeI/mz2a798dPXNJvMCVMHlBs/7n03eQB/vf9FVjkqw8CHAVc7iJOg3FpG9cTNnl8RP0E4jgUy7uIYb88ldMA3Fnft7HIrE7wEbCLqv4dIE9lZTdWzJb0PWD7JNOnI9ouGNGmU8wPXC4irSLh5jR7EZG9MeWDvmZBzN6mQSLuaGj/wH4PylM5IdQY99BfR9gO+GNgaJLpA01+X8b9cbSIfCWkgYisie3G2qWp/SKyE2ETbacovO+TTO/BfEAhwRx7AWdH2nQpsEvA9TOBEUmm98w2gbit9D5A7JnakXkqhwG4s8hhWO5ImcwA9lTVP0BXqO4EYLmIvj4Gvplk+mB55vUpawLBL6M+ZE3g+Ga/dLI35/SaNcVsBBze6oIk07FYPlUIP8lTCVn9gT30IRPrTGBkkmmnfXYDgDGtJtoGXEx4vpc3IrIEccE9naLwOU0yvREYFdjvD/JUfhLSIE/ldGDfwHFGOft6OlOTrOvF32yVUsSZeSojAVT1A2AHoMzCUqNq55x5KosBdxIXATUTc0D9tkTb+gN79bUBgbSydwd619HpQ+H3m2T6M8yRHsLZznFaSORDf0iS6XWBbWJZD/imz4UuYXjTzprDlkCwBl+HGVF0QZLpJYTLOJ2Qp3KQz4V5Kodj5TFC+LGzC2gSjeMS6bbHQsZCEWBMnsqOAK6Y07aYk7pdjlXVSwHyVBYAbiE8YqTGIUmm15dgU39jeRFJ+tqIAFYQkWa5Ohv0qiV+rCEiPnknR2C5Ur4IMLb23DQjT+WHhD/0xyeZXhDYpl1a7tTqOKL4krbpj/dRq/u+i0jf9Dl5KsNbXZCn8m3gZ4H9nuvs6aJpOKeLU98GeCVwELBt7PV5Kl8HUNVXsEmkndj3c1T1ZOg6/70GK2kbwwl98ED1Jhv1tQGBrB/4875kfqDwjN8dB38HCwP2pfbcNPRruJ39GQH9AVyQZNoXx5obi0jLnYWIrI29FzpNf7yPwN+uUN/0fMAVeSrbNfplnsrOwGWE5b1cQ4PI2sKKhHkqa2CJMEsGDFbjHWDzWla3iGyExUOHZnxeA4yoJeLkqVwKfLd1k6ZcmGR6YGTb2RCRaRTLt/ydeJ9SjUHAN4C1PK8/QVWP7/5DEXmHxhm99TyL5dG0Q6i9R6vqad1/6Pn9gkXk3Y3pmsWwCLAV8CXP60ep6kU+F+apDHK2fT3AninAFklmQSKunx2wcPmQ/KbrgD2TzC+zXkROw89/cwemFFEUTXSLqjYNaxaRKyk+EnwYy1/ZwcOu01X1qAbjvI6fIsUHwO+IP3IfhC1qfaPZGt73jchTGYhFmYZMuB8AWyeZ/rmun80wn3FIwMRdwE7OvTEbhTdjkumTeSrbY19s6It/CeCuPJVNkkxfUNUHXKz5bfhXFbwLGFk3eZxK/OTxK+DgyLaxTGp0U4fiKjKOw7Jzi2gnmuaJEu29HNjb4/Jm9vpMHh8AX1PVtvxsIjIAuz988ji8v98k0w/dsdR9+E+oiwPj81Q2TTL9Z57KJs62kMnjbsxpXqosi+MA7Pl9ltbSRTuLyGqq+kz3X4jIisC3CsaZAeyOFYYrTJRtgc/fayawteqsl20MIiLYfe8T8RVyH32SpzIMew9v7NlsIeD2PJXNk0wfy1NZB5uEQt4Pk4BhjSYP8MxITjKdhKXUF2Z5NmA54O48lWUAXG3ykfiFqE0Cdq1p3eSppFjMcwy/A/bq0APVcZw+02V9bYcvzt7eiHy5r93JA8DdY2NKsKcHSabvYCvHFwKaLYs9N9tgC66Q/KYHsOjC0uRFujFdVZ+nOOlQgMOa/G40xRPijW6ctrWuPPhru5MHdKUwXFqCPT1wvukdMAkZX5YAJuSpbI2lOnjXYnLj7NBKXNZb0iLJdDyW2xGTNbsKcKeLmkJVr6U4U/0pbEVQE0fcm/DIlhoPAbt28IHqLWL8UX1Jb9jrJTHiScfsddpB22DyE76shO3AW8lZdOcpLK+pNxSlffwx+4jIbMKoIvJp/PJlzoyyKo7QJOJWdPI+mowtRkJ2ZJ/Fjq1CItFeBrYt0mwL0kRKMh2HrRxiWA+42UVPoarnAc2yVl/BJEqmQtf57y+IEzt7Bnug3otoW1FRGkmmz2IidVM7NMQrmKJC6UKNjVDVhzBttVYsCHQPKx1FsZ7ZvapzTX5WqSSZvkz7QUmtmIxNHoWTVLCoXpLpOcRLDvw3MM5FUeF0cy7sds1bmCjaWwCR5781cuyBCln1VVR0jCTThzE/S9m74cnYvd6OryAGn13IQU6SHZeBfYhHm97cfcxxJJk+iR1nlb3TfB87tvI6JotSZU0yPZb4c76hzD5pHMSsePn3gbVU9Q2APJW1CD//rfE2Nou+GGlnRfv0J+mUfkOS6e8Jl6poRdBDXzJ3YirWrViaWeKAIyk+SnkSuL1Nu+Z6nG96GHG+6UZ8gjnMJ/k2aEfWexTx4Z7756mcDLPpZp0PfKmm6Z+nshLh5781PgR2TDL9R6R9FeXwDc/r5sjAhnZIMr2Bnkc7MXyC6Vt5P/Rl4p5fn93CYS7S7Yce157ZTs2YeQkn5b4Pcb7pehTYJ1QaPnoCcdLBe1J8BtqMY/JURoPdhKp6sKqp4eapfAZz+sRkVE8Hdq+Pfa4IYiERWanNzxoi8n2sroMPz3XyP9RfSTK9CAjSLupGTd9qQkkmxTIOOy5uxapYFGFRrs3rwNVlGDWv4MqLt1s+49D6MuW+tFVYKMn0I0zF8W+RXZzVXf8nT2VRLNxs1Yj+FPhOkuncuv2N+U5C2Ror69vO5wmKixvV82h55s9ZJJn+FDgvsvmhSabXlmlPDK4aoY/opU+Ni3NU1VfKvMKRZHouVh4ghpNc+2D6sjJdRQAisjBwjOflZYa2dppPCItrnxuJCfucSbmhp+1yEe1Hl73n+qmIIzZ8ODrsOCayqYsSBA1/mGR6Vf0PkkynOg2XiYSr7NaEHCf3o13I9iLSbl2UQZi+la9Tek4Kf7zWpwzp3IoTtfM96qtnPuCaPJUhSWalDfoSVZ0iIpfSPHHQhzGqfuWkK2YnT2UoEKvvd0Geyn+SrHk1x2ZETyAuFHcc8YKGpyWZZgCW/c9ZwHmq+lyS6RsuA3ci4XU+BgC/ylPZqp/4QT7nPr3FdOKPFHub94lXFpjjcfWn28laXgC4JU9liyTT/vA3PxurahfzXpkBZOWaM2+Qp7IF9i6OPVGaD0uvCF6MtHOEdSHx5SF/kWR6NHRNHmdjZXAfE5HVAJJMn8fKmL4T0f8g4DYXBjyv8ZirwzIncJKqFjlf50ryVDbFxA7bOgXAyqTemafyxfatag9VfRmI9cn8SrUKuQ8lT2Vd7BTIRzeuFbXFSNBpUtQEkqdyEuGlO2vcAnyv7t8nMyuCYCHgfhF7GJJMH8Wqrk2LGOfTmJDj5yPtnFPx9ZP0NScCp/e1EX1BnsqXMVG7mPymRiyL6R31h6JJsQmAVeJgIG7RcCe2iCiD4MVI8ATiSm/+b2g7x33At1wIMCJyJD1feEsCfxCRFQCSTO/DFGhnRIyXYA/WZwqvnDu4VFU7VYe+LKYBe6nqcfNirL/LbxpP+ZUWv4AtmELE8kpHVR/BQvBDuEdVH+6EPXMrbrEwAT+Z+hCCFiNBE0ieyp7EF25/FNOUnwYgIgfQ3Hm4AnC3iCwFkGR6K/E7ntWAO/JUirR35nT+RXsOzE7zBJZEtqKqzpNx/m3mN/mwNvCbPJW+VgAILXoVev08jVskjMcWDZ3gC1g5gcLFiPcEkqcyBNO5jxE0fB4YkmQ6BUBE9qA4YmB14HYXvkqS6VjiHa4bYEKOn4ps39+5EthQtRTByImYZpnPZ0/8pLbfBbZU1bNUS9clW6rEvmKKpnnh8pvuJCyXZyp2z4fImW8GXFfTm+sLVPW3WCE1Hx7HXoZ9TZn3UYx6hhducXArsE5As2lYobAQV8A6wK1FixGvCSRPZWPgBvyLQNXzBiby9hqAiGwNXOU59sbAjSIyECDJ9HQsWiuGLYGr8lTmptyXl4GdVXVkieGPb6rqHzw/19BcUbmexYCxJdnXncEisnRJfe1ZUj+z4RYuNxFWWvVjrKbH6VgBtZDjvp3pUE2KAHx9Gv1FtmTj2rF5CQwrqZ/ZqCvlvXlAsxnA8CTTnwHDCXMFbI6FijddjBRGgLiStncQXo0QbAU1JMn0n9BV0vYmwiaibYErRKRW0vZwrJymT6W77uwOvAmUUtLWk2coL6xWsd3cw8DDqvpCSf3WE1q85xQsWm6TguuGiMjBTsbflxm0rngHlu0+SUTGEC+JsiiWgb+75/Xe35FbsFyFLWB8mYkVP/sdQJLpFe74K+SoZ18X2+9TojYUn///ddi9sWKLa3Is/LSM8dptPxC7jy4jPrF1EDAYv2qEvnbVczF+FTPrOSDJ9GaAJNOb81QOIKww3a5u3IZVYFvWRM9T+RzwZ8wnEcpHwHZJpvcAiMjqWG312K3iOap6qLNrABbNtX1kXyckWc+a4aF41uw+JPCl2TE8a6KfrKrHBva7MvAIxdIlH2JS/V4PqIj8A/ivEFt6ia3dMU0heSoXYMKjIRyYZNq9zAF5KmdgC6gQDk8y9SrE5lkTfbKqeu34RCSl9YnBUarqFYknIm9S/O5oVhP9T4TVpO8tdlfVG3wuzFM5BTg6sP+jk6xnzfU8laOAUwP7OjXJtEeEZ9PjnDyVpTCHX8zkMRMYUTd5rIAp67ZzzvgDEflfgCTT6dhq8f7Ivo7LU+mtXchDvTROWQTb68qO+tR4GARcLeLti+qv351XxFCeynGETx7HNZo8HD9iVukDX87IU/FdEfsQ8je5lOZ5XFOxlW0nxi2zbSfxsitP5VDCJ4+s0eQB4H4emrR5tLNjNhpOIHkqC2PHVqsHDlLjwCTTGwFEZEls8mi1lfXlJBHZHyDJ9ANgR4prETTj3DyVPUqwqRXTsZX5nERUOKWqXoEV/ipiXeCnnbSlwzzn42/KUxkFHB/Y9/lJpk19SkmmCnyHsFoZNXmfHQNtaYb338QFdTTTtrpMVUOShNu5F/rjfTTZ5wg6T2UE4S/7qyiWzf+huy6EzNnTRY8JJE9lIHAjpr0Uw0+STC8GEJGFsJt9zci+GnGhiAwFSDJ9C/ORvBTRz3zAlXkqW5VoW3d+r6ofdrD/snnUZRPHcgB+An+Hi8gWHtdNoLxiOWVxW9EFeSq7E66wex0mA9ISt/veg7Dd9wDg+jyVdo9xlPBCT+fQs/ridMLTAW4nvubFPUB/U2co/B5d5OtYwiJf7wD2dYuNprjf7+uu90WAsc4uoNsEkqciwBXYSzmG85w8NS5y6kbgq5F9NWN+YFztBZRk+iqwDeYcD+VTwE15KhuWZ14X7wPf70C/neIT/OS2m+JW5iMpftDnA34pIi2T6VT1aeIlqjvBi0BL/1Ceypb4RxnWuBur6+FVWKtu9/1EwBiDsByRduR9zlcN05dzBeK6r6DPV9WgRZ8b9/yQNnVtXyH8CKiTvEHBDiEy8vV+rBaSl3M+0hUwELjB2dfjJv85FuoVw7U4SRIxgavLseicTrAAcIuIfAUgyfRpzKEekwexCJZoWFToJpQjnG9gTuFEVfWN3W+Kqv4e+LHHpZ/DTz30FOCvbRlVDgrsp6pNJcvzVNbHogxD8o0exCoKBtVIj9x91+R9VgoZy/EMxQ72ZhwDHIGtuo/GryphI450dsRwLvHF78rm+6radMHrIl9vJyzy9XGsCmvQTivSFbAwcHueyhpdE0ieyrH4OUIbcTdWDrG2gsroUEx9HYsB4+t0sx4kvj7w0lj6/vIl2XYZc1Zdg2sJj8poiqqejF8ewnARaXmfqOp0rH74s2XYFsl04Gg3ObbibPyLaIEd0W2XZHEJoEmmr2DhwSEFuRL8fVA1XgKGx4p0qupMVT1TVXdU1dNUNUaWCDf+cCKOrOtKZ/dlmeuZwCmqelPBdWcQFnA0Ecu1eyvGKNduGyzi1pelgDPmA8hT+R7hN1WN2VZQInIMceUVRxPucF4WmCBiui2utKfPEUojVsRWZ+1kkb4G7KSq+/eT5Kgi3sBCCYfHPtTNUNXvYRFIRS+dC0SkZYCFqj6FZcZm9H799MeAr3qGm26D+T6K/vYfY6vwIUmmk9sxzuVYbYSfz+VjTMfu2wFDXAKspar9YReIs2MtzK7Qti9iyZwn0X5uSSjPApurqo+O4FBMaLToXp+JJfIOTrL2VK1d+8HYjt9n3NOBofLqaIYB1xOnzPs0sGmS2XbMRUgF/2Fx8eBuIphIuMbLI8BgVZNKyVM5GNuyxnA/sJXPVtDlgUzFojwmAWf354I4Lg9kBrPs/XmrrXRJY66AOev2pqeMxwtYWOrFvrLuIvI1zFezPvBl2pexbsRL2Hd0L3ChK9nqjfODjMQkdFbHnq1pmLzHA8DYJGv/uLDBuNsCuwEbYvkzA7Ad+WNYyOgFSaZNF2kuD+Qw7DjjIWCcqoXi90dEpCanswH2/z2rUR5Ik7brAfu5tmtTnjJyPa9i99FE4NzQgJo8lU2wBL71sUCk2t/zUew+ujrJdGKpFtu4g7Gd3obYMzYQm3CfwP4/l9VqLcmrozmbuB3Db4D96iaPodhEFKrBc5aqdp2JuiOpiYSrTP4R2FbVxBpdiO4lFCfOdedFYGcnJd8SEVkx1BnYl4jI59qMsmp3/EGY72MA8KKqvt9mfwOBNbAyAGWgWJhuaXpdLiT+88CzSdZ7lRfzVBYCVgL+lWR+NcZFZBlgypxYk1xEFgAWV9U3ItoOAL5E2PFjKxS7v0srLZ2nMghYmYC/Z0njLogt6J9Psp4ToKhqLVxsDH4qodOAI5JsVna1i4gaT/hq8Epgn+7HPSKyDrb6C3353wzsVjuOcbVAxlEss1HjF8DoJGvuKK2oqKioMLqkTPJUlsQSn7bAtkv1OwnFoh8mAWcmmT7W1YHIulh0Q2hRk9uBXZ2TtKdhIptjCYih0tRjVLVLt8UJgY3GorQ2pOcq403Mj3N+P6qjXlFRUdHvaaiF5bbd62HnX/8EHkiynlmjIrIKdty0TOC4f8b0hFr6GURkFyyXJPRY7FTVnrotTthuTczp+B7woCudW1FRUVERSEsxxZYNRZbDJo+VA5s+Dmzm62wWkX2xo6VQUlWNLX5VUVFRUVFAVG0Ml0E8nvDJ40XM0e0dqaSqYzERuVDOEpldt6WioqKiojyCdyAisiCWALVZ4FhvAps6eYpgRKKkrD8BdlHVO2PGrKioqKhoTtAEIiLzA7/GKp6FUCtpGi2r7ORRxmA5BSF84Mb+S+zYFRUVFRU9CT3CWohwvakHsSJCbWnyq7EfkNJT3bMVUwiPEKuoqKioKCBoAlHVqao6Aku1L0rYmQmcBnxd1UraloFzjH8NP22kcZgMw4Syxq+oqKioMNqJwloSU9vdwH3WwSQgJrnPfU7DqCOIyMJYzsrGWFjuhsDbmATDQ8BEVY2tWFhRUVFRUcD/AxXAj7khtjteAAAAAElFTkSuQmCC;" vertex="1" parent="H7LAwcqjLhsTPvcVJDRF-234">
          <mxGeometry x="19.999999999999957" width="133.34" height="20" as="geometry" />
        </mxCell>
        <mxCell id="H7LAwcqjLhsTPvcVJDRF-230" value="&lt;b&gt;Node Two&lt;/b&gt;" style="text;html=1;align=center;verticalAlign=middle;whiteSpace=wrap;rounded=0;" vertex="1" parent="H7LAwcqjLhsTPvcVJDRF-234">
          <mxGeometry x="59.99999999999997" y="10" width="60" height="30" as="geometry" />
        </mxCell>
        <mxCell id="H7LAwcqjLhsTPvcVJDRF-228" value="" style="shape=image;verticalLabelPosition=bottom;labelBackgroundColor=default;verticalAlign=top;aspect=fixed;imageAspect=0;image=data:image/avif,AAAAHGZ0eXBhdmlmAAAAAGF2aWZtaWYxbWlhZgAAAYRtZXRhAAAAAAAAACFoZGxyAAAAAAAAAABwaWN0AAAAAAAAAAAAAAAAAAAAAA5waXRtAAAAAAABAAAANGlsb2MAAAAAREAAAgACAAAAAAGoAAEAAAAAAAACGQABAAAAAAPBAAEAAAAAAAAKyAAAADhpaW5mAAAAAAACAAAAFWluZmUCAAAAAAEAAGF2MDEAAAAAFWluZmUCAAAAAAIAAGF2MDEAAAAAw2lwcnAAAACdaXBjbwAAABNjb2xybmNseAABAA0ABoAAAAAMYXYxQ4EAHAAAAAAUaXNwZQAAAAAAAADcAAAA3AAAAA5waXhpAAAAAAEIAAAAOGF1eEMAAAAAdXJuOm1wZWc6bXBlZ0I6Y2ljcDpzeXN0ZW1zOmF1eGlsaWFyeTphbHBoYQAAAAAMYXYxQ4EgAgAAAAAQcGl4aQAAAAADCAgIAAAAHmlwbWEAAAAAAAAAAgABBAGGAwcAAgSCAwSFAAAAGmlyZWYAAAAAAAAADmF1eGwAAgABAAEAAAzpbWRhdBIACgYYHfb22FQyjAQRwAggUMG5M4Je//Ox0VhEMMpbwtLTfQBXSzmyddGszE3ldrrjk63GW7aTHtJKLm6wlTJrhr0QHKgXcb13zTe0a7dGerrz2yRXqcroL46uXIWAum/p2hndRLF3Y3sOs86nfaO1KiJoO9mYrzFgh4O/kJF1iE5nP1N3y8ixAxfgKSeuV82dwPHbDFq/tIgAhcaq8gS5rGZhAXsdRom20E30WqiM1h8TzGdDOsnOE8gMzrDNYmFmL1QwJTanBFq+t4aiTx2KGh5oirpQ4QZ2xi5JP0v2tlI5AwMLBkImi8y2XV3ZXfYOmXSX3rPHrP4T76LX0YXisrociKQKNhZodApZtQgSfSvZm8IKrdBH+UlFsbDN/JAWpGGLmsq33MTQc4JsOyjVvcaV0oHESu6yTSbc5QmqD16E/1e9mv32PcRsfs1Cgp+8P67suxx/fKJ6e57DWBBRvA0loY7Z6uPDzuKuO7qKSSwBAiZqnu+gN9g1gnugxwXaZwv6/Y8bQ5s1l70KA0MedNqGN0Cq7zb8qCdRp/Nfp2o9twxacXFKCuXeJyZNab3hwKVyA9hLrewA0MA1uzmW6mXMTUc+AoN78zLRcPSiSrwG+wTIX0tErL8hHn0628AFbuLIowYFLlKCdVxWks0pdEpZX1HFkBFjmTIt0/hfQ9S2bS873PbU1GHvZbmr9PUJcKlYDfbJCBIACgk4Hfb22EBDQaQyuBURwAIIIIFAwbU8SzGCKOSDlLvmJw5Q6aOm39zmlxkMr2+zYxjaBOP3TBUDMW+dFahCCtUD4WpIXSnE3ir5yuMD0XYpNoduBgD/ryQoeGCBNTwSQi8P9Qoq7UvMZBIaPz1T/nTYmrgFXjY56LV3RpRNLFPDqrstvl4rl4n73w85lGOrhbdHRnbD58EQnDreLs/xINfz9QzVsDwl6Q+pL8HJUuYphkPHR2CoyWKd8YxwgIZZLE+PN5HZhJ0qx95Gv6ohWotfiJUUr96iM2x/LfobS+shFbAMTqzMNF/Zq6yx5HoxjZnUcJMe6FebdOtWEMvBzGonwp6BvENGHmsAEej29dBiq58PM4zutuRk2S655tb5UPjRFmOekZuZzg/+5j7P0R7dczFKscpmbg3Kpyqh7lG9zXeML6gziGoy1euwBKZf2wD8TktlqnQa/K9SJL2v+iUOin3sk+miGbtukomwkPETraP0l6z9DpYeShDNzNVgEtsiodDfTePFwi/XZfKbOTc9eQjnasjbIadS8svKtHcIXw6i1WHFvXaIM/qh9sELT9lK5ubeRKofn348qj2HJArP1Lcy7qR0BWW7ewF8O1/lP4cPwSX2xViDQsnMYs75i5Y2U9zlMJ//2z/65hRxQA4s3X2hqXWqNA/mmwxdwB+Y2lXdB1P/G/cM2njb/VT29SV402Msr1erIJIdKJd+XoVxJMqW08/Yrax+bPaoqLw5uFWQuhkwf4BB3h3gExskBkcm/J//hkJkhMVkYZkRXo7YWlDkNNBe4Wn5oozNxkIkaIzxBCDZq7+yleyMqCHc4wRZgQTbAQdEP8goFpMUo4dZRnkUTdhUiscp4VL+Fu3tumJoOYhb4X+76WDHRMev3GKjBOo/DL0Hj+0ACVq4iLrjXKpfacI8odbHcE3wHlaZ5El8RbEj01anVkDSFkKPxnv0snB0Hl8qKTePz2SlnkzwqH0j/mW8ul1H1Po4ZK4h/t5QamrjaKUlLR5j6yAU0dxGlnTqPOoifu3YO4cyGAUy3MsP87cJ3nUkWIW5fW0fAPfUQu3OsMpPSQcu6jITb1HTnni7JDlAHuU/UY9d5Vl2Mce/U4g8HHXhzQgqWqxtJjcIX1HH4uCDVR6QMIGWQP9icBRLzxBZ8+65srXewYrAwiImCnVJe6zr5OWtw47CAMww8dKk2wKQYjIirKZspDZ79zaQVyONG7/bA/56PPztyK7xAKV+FEpuHJf9LwMGe0YTbqSNJXEezD7gduXdT2ZGb+/iihsAMNNzrJ/0pjIrnnHMfMs69pC2bJLrgI3OKyq23FSSM63pyYdBYlPbnFoSRQMHKbLayhjpdm+lA4kqJyiIwTrR4LYEUdLRe3ssdetOVoL6H0qviLB0kHa/NUaqk4XAx/3twjIaG1G0ReVUfZxAIO9D8NLF7dJRBBhGk4PwMteBiTnpSD2Nbit3MuzVDScKq+yepU4y9cNLY2Gzh5AKMlYYarvwNEjm/3KgwmRzUiQEDpSk7aL3XbuPAbDXxwfVqwAgLuVOvxCGA5E3mBJkb6tK1bIXHdI6h4Nc9ECqxLshuXQWA6EkuHHwl4q4kJbLo0bAI8GtYhFh2E+enTb0+TE4XqC9zjWwjaJWqQvWvta0QguS0n4bP0fiJDN3fbZclGi2NPTLLJX8vK3oM5Yi6KgWPD3cZXp7oo604Nw8HA7tLgiCITgNqon67qnhwqjzrLRH1FS7F/UPfJuPOvsdjEsq3qiWvFRYKUrV1RBTIJ4OYalVzU66rcj1mm93aHV6Vl5ArPT8b5A1MFwPn8sY/d/H/jhBlDD8i+E3wXJXjflLeX2eDyOEWPT5EbXyLa6E/Z004429k7B33w3SBo9jurRujdR4YyKh4TBQtpJkBLVun6op4b0Y/IAIihxvJtVRRJEP3nZee4dZtbILBj0agLo4lvHzNBG2tHRjbYHOza6qC4Bg41OXxynxPjFWq3RayyXPQ+SGWNPtRAUDS1qRfCs0nsKAoRB5+8di72GKZHpcMa8AHOaB5R6fdlzaxjvfeiMXt1TEDi6hwGxSSgo7JKlD2Jn+KJSDljSsh9L9aU84rFZlTtv/fftY+yD/bHqIVSFh7koQMShUgDLEYch7WVd6RLU7H27t4PHMIskslRc1W41xUdum3xg0TNChXRtCYBVgNMo11zLwcLhKtrw24NT1goSuRcjm4jwpjSNAFTqOJvQx90oSR9x2ucxSONvrBWl9ugFmXOJX4aZTiBTYhfB5AWXTIpMMAfyco+1xUPqzY2YeQ38ElRFrUURLSncx2o8VvRRA4cDtafsqqS6fQTuCJ7EOUQjBf2f7owW4nG/NXa9PIxgXZPPty/i6NW0MeAGUidzm8MmIFwnnw3XDu+3axrRdEkKXn02DneTHfaNl//Xmz9rKax0aj/6GfkNENppCVYE/hyQy63ujFFiyr2CzjmI1il7wfOUFNtGxLucNLeh9x7IyX2zQshUuD6qhGFw0QwtQ/RcVHxR4WoQEZ8HHP3bho0wyK5sXpsK4jmxoB9SKiGwbmxhkMsosFrcbH9wss9lxAq0Gzw91C9tscLO149zVuMM+6anrgPGiHnabO5o3KL0fS18tXeuJvuTqVeyohpRGVNJYJuln/GrHs1KaXsw8rM3/T62TCBrNe+CMod6d2kBH3wcMNmTayzLVYgbZ6L/6uzJq7Lp/zILR/9uqmev3heg/ZASQcAoCZXNGad1nCaIZZ7/TX7NCOSOFu3v7axBnICIMi7+fGWRYDEAurFGtMcEPIBtVHjD9p+2ArAvQKLrahBpA2DAyMydFg1vFMnccr9lcldhJQtxDJeWgpfDcnOKL924CXOiKHGuAyhrltmHNTc0Giw4yIrbw0P7cUkLl+j2f8Y1Zf1qDdoFg1nkMPy/pJZtsx1AzOKywA9udiKeuHbiCcwb1DKr2gIwwD6Jz3++Eims9oMqxXKaIvAXbYJqQJdrOFfr19yGxyCu/1DoyLx9BB89S5MFncX18NPHf9jlqfZa8hwqK8J9DF2z+4JsmdSKVggEoTty98Wnxkr2ubnU1YITuRRP0LZ6FNYGCu0En5ezLhCfgFmlmVKLrny8nr4WkPHl7XbefKwoKsa7GL8ND27T7gcEu6OJzQx0mr4Ypd9G+mu6DQPUQq25ne3MnqyJO1vnu1C60+iLs8llMRHbHIaLrzUxifxkvn2VspUgqp4Er/eJ77SM/ki1MHrvsjq5yATqHKnX//b60ELqhCsEiXhRqHcxJB5X46LN+hkvTFxt/9CUdUt5+RRkajDDvv2zU1B5GWtYXrmuknMmPGAKycNR4mkSwV5Sq1Nnj/jnVsvVUlF8PIxXWLSd01U48ce8yPITS+y5FNsQxdFi6J+G5s9vBehj20btLZmA1Yi/w8J3hsJrsGZ+Ov+JUl3g3XsDtiOF9gBxHhvmXy3rywkaBPko7HknoSlvPJwEP9uCTYyY7R4h8aIMjFdlXNCriokpEWRVoBuBknUYyAngu7gW+CYFZB3KlzBS2RChSFm+2fRoEUGP2+D6FQADXWW9XGiWESJSdKKHgM9yDSGJhN7NaHy67j4+8uquEm7iFaaQnQEamWSY8Gl2EwL6YmkVkrzYV3wblY/wXnOJy6eP7LrbSWkyAMTXnOWEAPAGrsMq8g7w5H/r2gA==;" vertex="1" parent="H7LAwcqjLhsTPvcVJDRF-223">
          <mxGeometry x="362.27" y="-20" width="140" height="140" as="geometry" />
        </mxCell>
        <mxCell id="H7LAwcqjLhsTPvcVJDRF-231" value="" style="shape=image;verticalLabelPosition=bottom;labelBackgroundColor=default;verticalAlign=top;aspect=fixed;imageAspect=0;image=data:image/png,iVBORw0KGgoAAAANSUhEUgAAAfQAAADzCAYAAABwpOSGAAAACXBIWXMAAAsTAAALEwEAmpwYAAAGzWlUWHRYTUw6Y29tLmFkb2JlLnhtcAAAAAAAPD94cGFja2V0IGJlZ2luPSLvu78iIGlkPSJXNU0wTXBDZWhpSHpyZVN6TlRjemtjOWQiPz4gPHg6eG1wbWV0YSB4bWxuczp4PSJhZG9iZTpuczptZXRhLyIgeDp4bXB0az0iQWRvYmUgWE1QIENvcmUgNi4wLWMwMDIgMTE2LjE2NDY1NSwgMjAyMS8wMS8yNi0xNTo0MToyMCAgICAgICAgIj4gPHJkZjpSREYgeG1sbnM6cmRmPSJodHRwOi8vd3d3LnczLm9yZy8xOTk5LzAyLzIyLXJkZi1zeW50YXgtbnMjIj4gPHJkZjpEZXNjcmlwdGlvbiByZGY6YWJvdXQ9IiIgeG1sbnM6eG1wPSJodHRwOi8vbnMuYWRvYmUuY29tL3hhcC8xLjAvIiB4bWxuczp4bXBNTT0iaHR0cDovL25zLmFkb2JlLmNvbS94YXAvMS4wL21tLyIgeG1sbnM6c3RSZWY9Imh0dHA6Ly9ucy5hZG9iZS5jb20veGFwLzEuMC9zVHlwZS9SZXNvdXJjZVJlZiMiIHhtbG5zOnN0RXZ0PSJodHRwOi8vbnMuYWRvYmUuY29tL3hhcC8xLjAvc1R5cGUvUmVzb3VyY2VFdmVudCMiIHhtbG5zOmRjPSJodHRwOi8vcHVybC5vcmcvZGMvZWxlbWVudHMvMS4xLyIgeG1sbnM6cGhvdG9zaG9wPSJodHRwOi8vbnMuYWRvYmUuY29tL3Bob3Rvc2hvcC8xLjAvIiB4bXA6Q3JlYXRvclRvb2w9IkFkb2JlIFBob3Rvc2hvcCBDUzYgKE1hY2ludG9zaCkiIHhtcDpDcmVhdGVEYXRlPSIyMDIxLTAyLTE3VDE1OjA4OjMwLTA4OjAwIiB4bXA6TW9kaWZ5RGF0ZT0iMjAyMS0wNy0wNlQyMToyNzoxMC0wNzowMCIgeG1wOk1ldGFkYXRhRGF0ZT0iMjAyMS0wNy0wNlQyMToyNzoxMC0wNzowMCIgeG1wTU06SW5zdGFuY2VJRD0ieG1wLmlpZDo5YWUxNDQ3My1mZWEzLTQ1ODYtYTZmYi1hZDlkY2VhOTE1NDAiIHhtcE1NOkRvY3VtZW50SUQ9ImFkb2JlOmRvY2lkOnBob3Rvc2hvcDo5M2U2Njk0MS02NWE3LTFiNDEtOTAwZC05ZjRiOGQxMGMxZDkiIHhtcE1NOk9yaWdpbmFsRG9jdW1lbnRJRD0ieG1wLmRpZDowQjhFNzYyN0ZFODQxMUU5ODE0Mzk5QTY5NzVGNzQ2NSIgZGM6Zm9ybWF0PSJpbWFnZS9wbmciIHBob3Rvc2hvcDpDb2xvck1vZGU9IjMiIHBob3Rvc2hvcDpJQ0NQcm9maWxlPSJzUkdCIElFQzYxOTY2LTIuMSI+IDx4bXBNTTpEZXJpdmVkRnJvbSBzdFJlZjppbnN0YW5jZUlEPSJ4bXAuaWlkOjBCOEU3NjI0RkU4NDExRTk4MTQzOTlBNjk3NUY3NDY1IiBzdFJlZjpkb2N1bWVudElEPSJ4bXAuZGlkOjBCOEU3NjI1RkU4NDExRTk4MTQzOTlBNjk3NUY3NDY1Ii8+IDx4bXBNTTpIaXN0b3J5PiA8cmRmOlNlcT4gPHJkZjpsaSBzdEV2dDphY3Rpb249InNhdmVkIiBzdEV2dDppbnN0YW5jZUlEPSJ4bXAuaWlkOjdhN2E5ZWFhLTA4NjQtNDcwNi1hMTUzLWQ4NTlhMTVkYjA1MCIgc3RFdnQ6d2hlbj0iMjAyMS0wNy0wNlQyMToyNzoxMC0wNzowMCIgc3RFdnQ6c29mdHdhcmVBZ2VudD0iQWRvYmUgUGhvdG9zaG9wIDIxLjIgKE1hY2ludG9zaCkiIHN0RXZ0OmNoYW5nZWQ9Ii8iLz4gPHJkZjpsaSBzdEV2dDphY3Rpb249InNhdmVkIiBzdEV2dDppbnN0YW5jZUlEPSJ4bXAuaWlkOjlhZTE0NDczLWZlYTMtNDU4Ni1hNmZiLWFkOWRjZWE5MTU0MCIgc3RFdnQ6d2hlbj0iMjAyMS0wNy0wNlQyMToyNzoxMC0wNzowMCIgc3RFdnQ6c29mdHdhcmVBZ2VudD0iQWRvYmUgUGhvdG9zaG9wIDIxLjIgKE1hY2ludG9zaCkiIHN0RXZ0OmNoYW5nZWQ9Ii8iLz4gPC9yZGY6U2VxPiA8L3htcE1NOkhpc3Rvcnk+IDwvcmRmOkRlc2NyaXB0aW9uPiA8L3JkZjpSREY+IDwveDp4bXBtZXRhPiA8P3hwYWNrZXQgZW5kPSJyIj8+kdi/BAAALT9JREFUeJzt3Xm8HEW5//FPn+wJJCSQsMgaEAmRRRBE0AtIcF8AQcUdxIgLckUFVBB3EQVEvcJFUa+KgoAKoj+WBFFWNewREEwgKHvIAtm3+f3xzHhODnPOVHdXdXX3fN+vV70gSU93dc3ydFdXPZU0Gg1ERESk2npiV0BERETyU0AXERGpAQV0ERGRGhgauwJZJEkSuwpOkiTBZYyC63Yi3ab1Xdf3o3h5fmc9vV9bAnsBewCTgY2AMcBaYBWwHFgMPAE8BPwTuA94PFJ9o6tkQBcRkVymABOBdW3+LQFWA7djgbNo+wAfB16HBfE0FmL1/g1wMTDfa83KrtFoVK5UhesVblV6HESKliSJvh/+nQAsARqDlEXA5gXXaxRwBnYxMVjdXMs84GPYBcqgYsc0b7ExdgUU0BXQRQaigO7VBOCXuAXDBRQb0F8A/NGxbmnLb4Bxgx08dkzzVTQoTkSk/vYB/gy8w3H7Iu+ctgL+ABwQaP+HAJdiPQC1poAuIlJv04FrgamxK9LGOCzY7tppw5w9NdOAb+fZQRUooIuI1NMY4Hzgf4ENItdlIOcCe7ts6OFx63Tsbr22FNBFROpnF+yZ9AdjV2QQHwCOLPiY38AudGpJAV1EpF7ehQXzvWJXZBBbAqdneN3T2Fzz+4HHSP+sf0fgfRmOWwkK6CIi9TACOAv4ObBx5Lp0ciqwSYrt7wTeDuyGPW9vlT2Ak4G5KfZ1HNZW9RN7mL2mrWnamshANG3N2UTgevxN9XqGcNPWdgZWpKjLhcCGHfY5EZue5rrPQ/q+OHZM07Q1ERFp2R7YP3YlHB2P+x3yRcC7gec6bPc0NiXvesf9vt9xu0pRQBcRqb61KbZ9IFgtOtsUOMJx2zuxQX2u3bIrgWOw/O6dTAO2ddxvZSigi4h0h4XYXeznI9bhtcB4h+1WAx/GUtSmMQebCtfJGOCwlPsuPQV0EZH6uxHLxHYxcRflOthxu4uAWzMe4zzcLgQOybj/0lJAFxGptzOwQHp388+xfvdHAC9z2G5tkiTntAZE9i2O5gEzHLbbA0s7WxsK6CIi9TQPeCNwEjaqPLatsfnnA2oG7dsajcbtOWc4XeawzRjgJWl2WnYK6CIi9XMZ8HLg97Er0sdkYORgGzSD9nXkXxzmj3QeGQ92l14bCugiIvWxBPg4cDjweOS69Led43Z/9XCsR4FZDttN8XCs0lBAFxGpvuHA7cCBwHcj12Ugg3a3N60lXda3wdzssM02QG0yF8Uc7SgiIn7MxoL5s7ErMohJDts8C8z3dLy/O2yzGfYYYLmnY0algC4iUn0uyVRim+CwzVJgkafjzXPYZiNgLDUJ6OpyFxGRIox12GYRsMzT8RbQOYPeaCwPfC0ooIuISBFcAvpC8o9wb1lB5+l6w3DrOagEBXQREQmtBxjnsJ3PRwergVUO2ymgi4iIOBqJJXLpZJHHY67CFmzpRF3uIiIijsbgtmTqIo/HXEWX3aFrlLuIiDyPa+50x5SsY+iQJa5pgdNB3azE7Q59A4/HjEoBXUREnidl7vRONgBGOWy30OMxV+GWw360x2NGpS53EREJbQw2orwTl/zrrtbhFtCHeDxmVAroIiIS2oaO2/mag96igC4iIuKRywh3sMVlfHJ5hj7c8zGjUUAXEZHQXJ9TuwTgNBTQRUREPHK9Q/cd0F263F2m01WCArqIiITmGjRXez6uS0DXHbqIiIgjlxHu0HkxlbRcAnptpm8roIuISGiud8FeJ7+jO3QRERGvXKeG+Q7oLs/kXXsPSk8BXUREQnPLI+ufyx26ArqIiIgj11jjOyapy11ERMQj16503zFpucM2ukMXEZF6cF1ZLYc1jtv5rojL8qkK6CIiUg+eV1ZrxzWg+86r7jKvXQFdRETEUayA7jKvvTZxsDYnIiIipeWaMEYBPYfanIiIiJSW6x267+5v1+PWggK6iIiE5hpYfU8hc7lDX+f5mNEooIuISGgu88HBf0B3iXEK6CIiIo5cA7rvpUxdYpzvFd6iUUAXEZHQXAO672foLvtzrVvpKaCLiEhose7QRzps47KASyUooIuISGiuQdP32uQuFwhLPB8zGgV0EREJzSUFK/iPSS536M96PmY0CugiIhLaKtwWaHFNQOPKJaAv8HzMaBTQRUQktFW4jSb3nQjGJaA/4/mY0Sigi4hIaKtwC9a+79BHO2yjgC4iIuLI9Q7dd0Af47DNfM/HjEYBXUREQluB28C4GHfoCz0fMxoFdBERCW05bl3uvmPSeIdtFns+ZjQK6CIiEtoKLKh34jKIzVUCbNxhm1XoDl1ERMSZa+Cc4PGYYx32twIFdBERkVRcRpNv7vF4E4FJHbZZhLrcRUREUnEZTb6Dx+O9kM5d+E/i9iigEhTQRUSkCP9y2GYqblPNXOztsM2juGWwqwQFdBERKcIDDttsBezq6XgHdtogSZIHkyTxdLj4FNBFRKQI9zlskwBv9nCs7XG4Q280Gn9vNGpzg66ALiIihXgAeNphu7fhlhBmMIcCozpssw64O+dxSkUBXUSk10RgCvBy4JXAnsC2wAYR61QXz+AWQCcDh+c4znDgaIftHsPtMUBl+F5MXkSkSkYA+wOvB/bBRlmPo/e3sQGsxH787wWuB/6AW/exPN9M4CCH7U4GLiHbCPR3YRdlndwKLM2w//JqNBqVK1XhOtiiToMyRHxKkiTU92Mc8EksSDdSluXAb4FXhahYAd5D53N8Br9zwlt2wxZpcWnnL2fY/ybAI477f2/rRbFjmrfYGLsCCugK6CIDCRTQ3451taYN5O3KL4HtfFcwsJgBPQFudjh+A8v9fljK/V/iuO9nsMcrQDXjYLuiZ+gi0i1GA+cBF2FJR3x4B3AL8FZP+6u7BvBDx22HAD/DutA7GQWcj/uz90uTJHk6YA9QHLGvKHSHrjt0kYF4/MHdGHt+6+OufKDyCR8VLUDMO3SwAYZzHOrQt1wIHAxsio17GIoF8R2BY4A7UuxrObBz3wrFjmm+igbFiUjdjQMuB/YLfJyzsC7lswIfp+qWAF8FLkjxmnc2ywIshexKbPGVSXSentbfBdjYifqJfUWhO3TdoYsMxMMdeg9wGWHvzPuXI/JUuACx79ABhmEzBop8XxrYgLn/PDtviR3TfBU9QxeROjuB9AOr8joPv4uM1NFq4FhstbOiNIDpuCW3qSQFdBGpq52AL0Y47gTU7e7ifiwBzNqCjncicFVBx4pCAV1E6uo08qcQzepNwOsiHbtKfoPNB18Z+DinAd8KfIzoFNBFpI6mEn8q2aexQXJl41KnIa3xC2lLBr8AXgv8PcuLO1iKde1/KcC+S0ej3EUktKHYtLGxWJ7t0DcSDeDj2MCrmPYHdsemVJXJmmYZqKs7AZY1ih2BfD2WP//DwIewfO55XZUkySmNRuM2D/uqhKRKo8ZbqjIqPEkSp1H5rtuJVMTG2KIm+zb/u33z7zbE5hD3YEE3pLL8SHwVOCV2JfoZC7wAW21sIGuBh7HAX7Sx2Jzz12JBfmvss+PiYezi4OfATNff1rr8/iqgB6SALl1kA2AalqnrQGCLuNUpjZuBVxD+AqauhmAB/QXN/04CxmNjI3qw0fILgXlYOt8HsHnugPtva11+fxXQA1JAly6wOXAU8H78pVOtkwXYyl9Pxa5IN+q2gK5n6OU1pFkSrPtrLbrK92UodnWvts1uInAc8EFgs8h16SjiRfMEYEsU0KUACuhxjMS6jrYDtgG2wrqUNsO6k0Y1txmKBZ3WIJYVWCKGp4HHsW6mfwIPAo8S53lX2YzG8j1vh3XRbY11/24GbNT89+H0tu1qrN2WY11387G2nIe16z+xtbAV8Ht9EHsuvHXsiriKfAcWMuOayH8ooBdjU2y0617AS7EFBbYGxoCXH5ulWPC5DbgOuAH4V96dVsTmwB70tu0LsQuktPmdB/Is9lzuL9jiHjfRvXdbU4CzgdfErkjFjIldAekOeoYeRg+we5IkBzcajWnAS7BRvkVZhI30vBC4Eruzr4uh2Mjpg7FBWLthd95FeQq4FlvWcQbFZbmK7WgsMcf42BWpoLdh63RLwbrtGXr0ZPI1W5xlZ+BUYBa9z2Vjl3uxuZ0jA553EXYDvky6ZRJDl79iK0DV2Qjg+8Rv6yoX9WhE4nrzFzumeYuNsStQg4A+FEvz+DvsTjj2j8dA5Xbg9YHaIJSR2N3NNdiz7thtOFC5DnhZoDaIaQKW+zp2+1a5rAVenLbhxQ8F9AqUkhgNfIBy3TG6lDOIn0Grk7HAx4DZxG8v17IM+GSIxohkEjZuIHa7Vr08jh5TRKOAXoESWQ/WzXo38X8sspbfYUGzbIYDxwD/IH4bZS3nU/4Lpk7GY4P/YrdlHco1KdtePOq2gK5R7unshz3HPbCoAwaaP/tG4ArgEIpdj3gw07A0mXvHrkhOH8Qult6DPSaomg2By7C0rT6twzJ4PUf4gYQNbJriiMDHcaGALoXRKHc3Y7Hl947Hkr3UxXXAodjUrFg2Br4GTI9YhxAuxLKnVSk3wGjg1/gbxHUfNtXvRmzt6yfpHWcSUgM4AfvOxrQySZKpwJyQB6nib3hRNMq9AqVg+wJ3Eb/rLmSXYKw1o6dhc7xjt0Go8mPKs0hIJ8OxXpu857wauAh7b2POrNgSu1BNfQ5Jkvh6/y8Of5oymG7rco9egZIH9I9iSVtiB4bQ5SKKDzwnU+6R677Kt3w1WEBDseCT91yvwn9XfR5nEu99X43lS5CIFNArUAowBPgu8YNBkeVLXlqus1HATws6p7KUD3hpuTB6yP9+LMUufqP3RiRJ0rdMwtL4xnjPv1fA6UoHCugVKIGNAn5F/CBQdFmbJMmr+/0gDloymABcXYJzLbo8R3nnIv+QfOc2H/ivwmvt7ggGqX/f7nWPXe33o6lqpaCAXoES0CjgcuIHgFjlPmxd6xAmAH8uwTnGKjOwu+Ey+R75zmkRsH/RlU4rSZIzKO59Xkz1Z2rUhgJ6BUogQ7B8y7F/+GOX/87Zju2MwQJa7HOLWpIkeUuaHpCsPSP9txngNd/KeT7PAa/uWJkSSKwBfkL493g5ljVSSkIBvQIlkG57Zj5QeQB/K5WBPVf1MeCqDuW6nG3pxCGgfwVydTEvo0KBq3n+Qwibk34+8LqCTkkcKaBXoARwHPF/7MtUfP4wfaUE51OWspoCnqV3COinpqxz/7ISeGvI+vvW7/yPw3oXfL6vtwC7hj8TSUsBvQLFs/2It6jKMuAJ4GFgbvO/jwELibta27k52rOvQyOewxKsLR/G2nYelld7ccQ6NYAT8zSoi0EC+qdz1n01cGTo+vvW5kd9d/zMuX8a+Cx+e7Qqq4zLWndbQO/2THHjsAUoXuRrhx2sxHJkzwD+BjyCddUtwwL4ECwZx1gsg9pmwE7Y0qEvwZZnLSJd7z3AHuTLcrY1trzopl5q1NlSbNDdDOA2bLrSfOy55jqsbUfT27ZbYO25G3auRX0G/gC8IeQB+mfHav7548A5OXbbwKbf/Thn9Qo3SLawVwPHAgeTbjDoP7DHSD8E/pW7gjURKE11LsoUV4HiUVHrPC8FvgNMzVHXIVjwOYXwi5csA7bNUVcobrbAM1i3/g456joCG5n8DewHOmR9H8EGCQbT5oJ3uod6HxuyziE53ABMBo4CLsAuuOdhd9/PYL069wFXYus4vIp4mRVLTXfo8Uv0CkQM6PtTTLf2zfjPGLUhtlSn72eBfcu0HPU7MmC9+pY/AC/MUc92JgGnY70TIeq8Epjiuc7r6fcj9l7yf86PD1nf0DIEmtHAJljv0liqv3peIRTQ45foFYgU0Idh3cGhA86PCTevmyRJXoHdRYSo+4cyVmsj7Ll16Lb9BmEfPxxOuLEVvhY/aavPj9jbyZ9e9+SQdS1CGQNNHZWxnRXQK1A8OIrwAaeoHN7vClT/r2esz2mB6tO3nJSxbmmdEqj+x4SsdPNH7C3kvyA5LWQ9i1LGQFNHZWxnBfQKlJzGEH6Fr7PzVjKFIdggNt/n8H8Z6rI54XoMig7mYOk7nwxwDqED5euwcRB56vi1wHUsTBkDTWwh2qTK7Rw7pvkqZUtFWYR34P+5a18XYWsxF2UtNmDHtwkZXvORjK9zdQ7W1V6UhcAffe80SZJNAubMfxU2AjvPVKqzselYIlIh3RbQh2GJJUK5h94RxUW6McA+x6bcfiPCrip2HfCpgPsfyJ9977DRaIwP1CO1H3AZNmgyq3Mp9oJURDzptoB+ADb1K4SlwPuwkedFuxebb+3TGNIth3k41uUewpPA0eSbF5/VXQH2GWLa2l7Ab7ELq6wuwJZBFZEK6raA/r6A+/46cEfA/Q/mcSzjnE+jcJ+uk2DTo0I5CZsbHMNDWNY5J45d5L7nMe+GZT7bJMc+LsRmNhTduyQinnRTQJ8IvDbQvv9BsQPh+lsB/NvzPkdgA+5cTAH28Xz8lhuBnwXat4sFWA+BE8cu8hGZa/N8U4DfYVkFs7oU6wFZ66VGIhJFNwX0A7CUnyGciY0qjsk56Dgahvvn4w2ES77xdSx1aywrCNO2PuyADYjcKsc+rsB6V1Z5qZGIRNNNAT3U3fljwK8C7TuNhZ73lyagh2rbu4FrAu07jcWe9zeMdOMT2tkGC+aTc+zjauCd+B9/ISIRdEtAHw7sG2jfV+P/Bz8L3wG9B7fPx6bYwjEhXE6cgXD9+X5/837vtsC62fMsKHM9lkluac66iEhJdEtA35Z8dzKDuSHQftPy/cM8Gre7yKlYApYQQkzHy8J5UJyjUWS/Q5+EdZPvkuP4N2OzEspwIRqch2RUIpVQxFKcZbALdpcewkOB9pvWg9iyoT4GNiXYYDCXu+NQd+fr8Lw0ZY7lHWfjr217gPszvnYCNjUtz2I/s7B16p/JsY9SLpUp0u26JaCHXN0q5oCtvn7ZLEUL1bYNArRtxvSU5zQajTxrifswDhuN/vIc+7gbOAR4ykeFqkwXJFJH3dLlHqq7HVJmVKtyvuMBhGrbIXhOwOJpLYAYxmDpXA/MsY/7gDcDj3qpUQ3U8LsoXa5bAvoWFd132fVgg+JCCZJ5rmKBfSTwC/ItuToHeBPxkvOISAEqGdDTLGzRvAoPNf8cbFBYtxpDvrzhg0qSZGfPC5espwKBfRi26t2bc+xjHvBGLKiLSI1VMqCnXFKuh3wrT3VyIBVtRw9GEm6wIY1G46DAS+m2jlPGwD4Ey63+thz7eAy7M886CE+kCG8DjoxdiTrohkA0BPcUplm8mHzdoVUWum0PSJJkV5935YMpUWBPgPOA9+TYx9PAW7AVAEXKbCr2WOky8k3H7HrdENDXEXYkeoKt0R1iBa3nH6xcA3lCt+2IRqPxzUajkfi+Kx9MCQL7d4Bjcrx+IRbMZ/mpjkhQK5r/PQy4BfgmtvaGpNQNAX0tsDLwMXYBfky4fObRdHiGvZLwOcBfDZwV+BhtRQrsZwIfy/H657B55rf4qY5IdhluQMYAnwL+gl3UhuwBrJ1uCOjgPy1qO0cAl5BvPerS6fAMewnFpA79b+BcAj6vH0yBQf2rwAk5Xr8MywD3Jz/VEYlmO+AH2Gc5z3TNrtItAb2oubdvwXJkv7Sg48W2Fv/rsA/kWOAPwPYFHa9opwKfzfH6lcA7KMdiNiK+7AfMBH5Kfb/73nRLQC9yys5uwB+xH+eQo+vLosi2PQjLnX809frsngh8Kcfr1wDvxhZsEambBBsg+lfgFAJOla28lFPASlEyeCuWSrTocic2HWNEqyJ5B7WVbFAcWHd4jLa9AZuSVboGSenj5GuHtcC7iq50CT+HqYSeMVF2Ic693T4dj/MZ0n3mZ2OPOL2JHdO8xcbYFSgooG+PjaSMEXhagf1jwAtqGND3I167NrCVw46meqNiR2MD4PKc+zrs3AtXws9hKgrolQ7orXIVsHf+mlczDnZzQB+CTeGJGXga2ApXF2I9Bpmy1/m4IPD8Zd4QeIT4bfs4lojl9ZR/YOJrsNXb8p7zh4uueEvVg6ECei0CegMbO/Idcqbgjh3TFNDT+2LGD0yo8hhwEXaH9SIcu459BXTPP2g/In579i3/wgbRvIewC/OkMRQL5Ffg5xyPL7b666t6MFRAL1VAP5n834dHscdXI8ggdkzzVZIcATKanp5M46GmNhqNOyjnXPEV2GpYN2Gj5G8DHm63Yd5lH9t9wTx8Bg4CZuTdSSBLsLa9FZsCM2DbetYDbAbsBByA5VP3sXb8KuyOJsrc/JaqLz/a+h5U+RzyCPH+tdun43FOxJJz+fA34DTg/6V5UV0+B5UM6DmuLn+H/bCW3RLgH1hyhVuxD+kcYHWIgA65P9BDsXrumWcnBXkOy22+iDAD6hrY8/FxWDfgBM/7X4Zd9A0j4oBABfRUGthjv6HN/4+uZAF9a2zeuU+XYDNHZrtsXOXPcl/dFtD3xUZHV23K02rgQeAvSZLc0Gg0bm3+eU3aHQ3Wdjk/C28FLs2zg7qqevDrNnq/amMJcA5wNjZ+aUB1eb+7LaCDPe89ylNVYlmN3WXegI30vAlY4PLCTm2X4/OQYN1c3bpQjYiU01zgK9hSxG3XnqhiHGynGwP6RKwr23cXT0yPAtdiKxbNZJAFU1zaLsdnYgesbX13M4uI5HU98HnsRmg9VYyD7XRjQAebO301Ba2QVrCbgTOAy9v9Y+CADrYwyKVU77GG1JC6z6Wfddid+lewO3dAAT0qT1MuDsPuaDNNc6iAi7FVi/7d9y9d2y7n5+IjwP/k2YGISEDzgW9juSueqGIcbKebAzrAIcBPsBHJdfQw8H76rL6Vpu1yfjaOAb5HfS+YRKTalmJpky+vYhxsp9u7RX+LrbftNLWhgrbFVijLlPc454XTD4E3UMycbxERV2ux36epDPBosqq6PaCDreCzP9ZFXI/LtPWNxtLNxgjqM5MkeUXz+JJRN2c0E/HsOizR0weBeXGr4l+3d7n3dxC2PN8BoQ4Q0XLgDUmS/DHLi7N+TvoMSjoU+BzVSD4jIvUyB0v//bN2/1jFONiOAnp7h2N5gV8Z+kAFeyxJkn3JeGWa5bPSb5TxcGzd7o/hJw2qiMhgFmOLt3ybQXJ1VDEOtqOAPshhgGlYEpo3YquK1cFMLPnL2iIONsC0oWHY8/WjmnWp08C5dehRVn8NrF2GxK6IdJWLgS9gSbgGVcU42I4CupvtsS7jw4GXUv0fphOwdIjBOcwDfjGWNvYwYNci6hTYmdhAm6GxK9Jfh/diBLak73bAHtjnfCtPh16Drah1K9ZLkwBDSzBHPKEc71OrHmUYLFF0PdZh3/0jPe7zViyQX+36girGwbZiL/eWpUSUkCR7YM/Zb8VSsBaxHKjvshAbAR9ciouvYViu/a8DdxK/jbKWe5IkGVrGgWwp67QR8Cbgl9iCMHnb5S5gfI76SH2dgJ/v3r+Bj5JhRc3YMc1bbIxdgYoFdFj/R2h34LPAjdgSqLGDSZryI19NMpiMP9pDgH2wbE63Y48HvJ17kiSh2/bULCcdWo4Auis2UyFvu9xMn0dXCujSXJf+M+T7XC3Hehw3z1qP2DFNAT2WgX+EdsIG0s3EPmCxA3ansgLYOWdrdOThR3sINoDus1ivyBrit12n8iS2ZkCpeHgvXoc9j0zVHv0uoC6hHF3LUh55AvqVwF55KxA7pimgx+L2ozgFOBGYRfzgMlgJnp41wF3YHsCXgXuJ336DlU/6PvG8PL0Xm2LJivK0zZk+KiK1kSWg342NvfEidkxTQI8l3Y/iUOBALL3sYuIHmf7lSQKtjNYKHgG7VUdhsw8upZw9IneR4VleSB7fi7HYkr152ud4X5WRyksT0J/Beuu8LqwVO6YpoMeS/UdxMnA68DTxg03fkimDXCcFPx/dFTgPeI747dkq64C9Q550Wp7fky3I10uyFhvdLOIS0Ndg6Vonh6hA7JimgB5L/h/FLYGvUZ7A/r95T6idSAOedgK+jy26ELtdG9hUrdII8J7sBDxG9vZZjA1+lO7WKaD/CUvPHUzsmKaAHou/H8WtgG9i2YtiBp0bfZ1QX5FHMO8M/ID4XfG/CH2iaQR6T/Yl3+OkR7C579K9Bgro/8SSTwXP+xE7pimgx+L/R3Eb4Azs2VCMoHM/Ab4wJZmSNBXrivcxjzpLuSb8KboL+J68GVhF9naahc17l+7UP6AvwR5PBhnf007smKaAHku4H8VtsdG/z1Js0HkIy97lVUkCestU4AKKTwT05yJOzlXg9+QD5GurKyhH1jYpXt+AfgmWPbJQsWOaAnos4QPVFOAiigs687AR416VLKC37APMoLi2vbmY03JTwHvyOfK1V/BplFJKXwD+jq3vEEXsmKaAXn8fpZgkKo9ga6Z7VdKADrZwyhcpJqDfWtA5OSnoPTmHfG12UquurkUqb3tsKmQ0sWOaAnpkBf2Q5L3jcSkPAyN9V7wCP7TnEr5tbyrsbBwU9J70YPnf87TbO9MEdAV2ySt2TPNVtNpauY0EZmNXsKHMwaYfrfG50xKspNXJJOA+wg68uR5LLFQKed6TlN+5UY1G40rgVZkOZrMTXpMkyQ0l/wxJTdTlc1bVQSivAj4SYL93AF8NsN+sVgC/JWwa0WWsvzb6kXhIqdjmC3Itgea8Z/QUVqe3BzzGsoD7LrPlWLvOAHbL8PpR2DiSA4EHPNZLpNaqGtD3xmMe3z7GUq6ADrbYS8iAvgjr5mw5iDBtOz/APvOaQdiAvjjgvstuPnAo9vnNMs98i0ajcSn2eXzaZ8VE6qondgUyGhdov88F2m8e9xC2Xv0D7YZtt8qvjG07C0vRGkoZL2IyyTjO5SHgcCzHQha7AD8nwLRKkTpSQC+/xWT/QXTxWL8/Rx1tWrBnsCQWofw74L6r4nbgHdjjoyxejQ1gFJEOqhrQva6000cZH0H0EPZ9mtvvz95HvDeVauWxpqLbtlvNwBLPZO0NORo4zV91ROqpqgHd+7zpplDBDEg3t7ZP2QjYJGC1Zvf7c6g2CPWe5TER2CDQvtcC/wi07yr6BXBCjtd/AXi/l5qI1FQZ70hdhHqmFurOH8g8NeLFhAuGS1k/6PQQrm1DPZvP46UB9/04loVPep0DbEb2VejOBR7FZicUotNUvwpMz6w8ta+7qt6hh5qIvgkwItC+swqZDnE2limuJSFs25ZNyLadheXll/V9BvhRxteOBC7EBsuJSD8K6OvbmHJ1DY/Hpv6k5pgI5HrWn7IG4dp2EuX6vO1A9sQnLmYG3HfVHQtcmfG1E7EFPDbzVx2ReijTD2waoeo9Dtg80L6z+AAZf7gcuqkawG/6/V3IO/TNKdfshOMJd/G2HPh9oH3XwWrg3cAtGV//Iiy9bJkuvkWiq2pAX9t5k0yGAS8MtO+0JgGfCrj/W4C/9vu7dYRr2wlkSzASws7YxVIov8fmYMvAFgNHkH3g4AHAD7zVRqQGqhrQVwXc9z4B953G14BNA+7/LJ7f3b4Ou3sKYQiwR6B9D6jNrIEE+DYBloxtWtfcv3T2KPZI6YmMr38n9j0REaob0JcG3PdBhOt2dnU4Ye8g/wZcPsC/LQ943NcG3HdbbbKYnQAcHPCQV1KyVdZK7j7sTj1rJsHPYM/kRbpeVQN6yBzZeyRJsmfEZRmnEn4Rk88z8OpqITOnTQO2CLj/Tg4Cvh5w/6uw+dKSzo3Ae8jeO/Rdws5YEKmEqgb0kDmyhzQajZMjrb++JXApYZf0/A1w1SD/HjLN7DjCLjQzmJdgyU1CZqw7H1uxT9K7HPhoxtcOBX6GvcciXauqiWWeDLz/t2LLs34/8HH62gm4uPnfUBYDn+6wTei2PQ74E3BF4OP0tR/WtpMCHuMRdHee1w+wcSNfzvDa8dh0tgOBf/msVEFej82vL0MWlR7gOp4/aFbKLu0qSmUoWPdaI3BZS3F3k+/FBgaFPqcPO9TlowXUYwk2bSm0kdh7+FwB5/TmAs4nlwiPj7L6Ltnfh1vwmM63U5t5bNOLCf8ZTVNO8XViecWON1Uq0SuQMaDvhj0DLuKDfSXwsgCf01HAYfQmdwldLnOs1xvT7jtJkqx1+ik2hcy3jbC833dmrFfa8p0A5+BdhQJ6D/kC3KV4epxYYED/CcV8Vl1Lp568wsSON1Uq0SuQMaBvRDF3tK2yFrgGG3meZy71BsArsYFZ9xZY/wexDFsudsIGdxVVt2XAr4G3Ay9wrGM7E7ClNr8DPFxg/W8m3BQ4ryoU0MGSxswk+/tylo9KKKDHFzveVKlU9Rn6IuCfhJ2n3VcPNtXpYKz79h5s8NOdwAPYIhxPACv7vGYolkp2W2z+9SuBlzf/XKQl2Hzdpx23fwRbI32bYDVa3yhsLvKhwEKsTe8A7gLmYMH5KdYfAT0cu0DZDtgLa9t9KD7L36PYo4OQU/261TLsIm8G1iOX1iew7+U5PislUmZVDehgAzb2i3DcDYF9m6XlWWzk/VPYj/twLJhPbP43lnXYWtJ/S/GaZVhALSqg9zUeG9R0YJ+/W4hdjMzHLphGYO26SXP7WJZiAUdrnoczH3ssNZNsF8JnYgPkfu2xTiKlVeWAPgO7Ci+Dsc0yOXZF+jkOG/mb1kzgEL9VyWx8s+wYuyJ9tHKRK4FMeHOxWSfXkP7ieAjWlf0YcKvfaomUT1XnoQPcgHV5SnufIvu0u9+jbuSBrAHeB/w2cj26ye3AkcCKDK/dEPhVkiRlWUdAJJgqB/TnyHb3WXfrsKlnZ+bYx0PA1X6qUysrsPEIv4xdkS50LTYotZHhtVs1Go1fU65eHhHvqhzQwQa8hEwDWzUrsTntPhLifINwK69V0Xxs4J4uIuP5BdlzQ+wO/Bk4ylttREqmys/QwUZAfx6NZAUb/HMU9vzbh1uxKWBlGacQ0z1YrvG7YldEOBub3XJShtduCvwIeBdwBjYOZ52/qtVHrCmOzWnJQTme22RgT9YfF7UQuK1ZBlXEeQx44KqVfhLsrin2vM2Y5U/A9unf/Y5GY/OsY59fzHIpNqK+8io2D72TH5H/vb0Jezy1IwP0VhY4D/18xzoXVWo7D72D6cAsBm+bOdgF5YCzbGLFxiTalUQObb5E47CMbq8ovjZRrcO6xr/I+nPgvUmSZKtGozGD7nv+uBQ4FbsjrIUkSeLdOfg3DFtoyMcqayuA+4G/Y0mYFjT/rmObeWzTo7A8FWVxIvDN2JUAvH9mB7gI2xP4Fb135Jfw/Lvx1h37EVgwXwicjF2MrUd36PmvsCZSXBrVAUuONKhpy2wsM1pQzQ//C7Efu9h3DUWVm7CENbVSszt0sAv5W4j/ealj6aY79On0nvfpdJ5+PB67Q1/QfM3zlruOFhtjB2ePAR0sterPKe5DH6M8C3wF+zELrk8Q2AKbCxz7/EOWJ7AxA8NzN1wJ1TCggy05fD/xPzt1K90S0FvBfAEwLWXVJtPbPb9eUFdA9xPQWz6BBb7YXwqfZQ22mMkUlwbwpV8QGI7loS9qYZyiyhJsYGWeXPKlV9OADrbAz+PE/xzVqXRDQJ+GnesCrDs9i/H0BvX/DNSMFRvr8gy9nd2Ar+LnGVtMq7DUld8G/lL0wQd4Rngg1rZRn/l5eH75LHAhtlznfV4qVWI1e4be337AVXhcOrWbJUlSmmfo69b5nYjQjB+tQDwZeCm9z8qnY8/I25nbLOdjz89bnrevaN+z2Hfbge7Q+zoCm24U+4o3bXkMmza2S9oT9mmQi6ehwDHYiM/YbZW2zAG+TJiZAaVV4zv0ltdgP7SxP191KHW/Qz8JO8/+0x9bfz9YaXdH37rbvzZEnZ3PLXZwLiCgg63odTS26EjsL8pgZTU2BW06xa0kNyiHIDABe8TxAPHbb7CyFEtp+04KGn9QNl0Q0MF6jap4kVm2UveAPgcLzP2nnrUC+rX9/n48dnPY6l6f06aq1zb/bbICetiA3jIUW3TkKix4xv7SNLCc6Tdg0x92y3NyIaQIAhtiOc5vIn6btspiLIXtcdhI/a7WJQEdbCzE74n/+atyqXNAb91NP290OgMH9JbJ9LZR/0F0rQF2JymgFxPQ+9odm8P9IMV8QVplFXAv8H/Y3NMX+TqhEDIGgZcD/4NlryuybVdgvTDnYUubbp2l8nXVRQG95RPAM8QPjlUsdQ7oraDd7ll5p4AOvW3UP6CPb702VmyseurXPO5sli9iA2regiWmmYK/aUsrsNG3c7FBF3cAdzf/nGXlqKq4pVk+B/wX1rb7YnfJQzwdYxnwb6zraxb2Xs7G2naNp2NItZ2NJZz6HLZaWy2nI0pqreffHVO4ttE3iPd//ULs9yfriPncujmgtyzDrsauxdpjB+DFzTIFm+e6MfbcdTSWoSrBFi5ZhU15WozdCTwKPALMwwLNHOCp5jbdaBFwRbOMxAL6Ls2yI9Y1OgFr25H0tu0aLPNdq22fprdtH8badS62YMqygs5FqulB4P3YANPp2CO3UoxPkWhaz83npnzNNCzxDFjv7sI2280l/Xx2bxTQ17cGS1JxP5bDu2UUFsyHY23WCuitwLMMC+4ysBXYIif39Pv7MVj7Dsfu3lttu7r5muXN/xfJ43bgWOA0LMPiG4C9gW2xz1yt1HyKYhFaz9n7mwF8qPnf0lFAd7O8WcS/pc0iUoQngZ81y4bYIKcdscDe6jHaABhBcctLN4Bd8ZjYSME8t4Ws36U+uVmmNf+tlAE9+gC3iIPixEEXDqSqLb2XpXYB8QfCdcuguNNpP6gNBh8UN43e/O0DLd8bdVBcUVegIiIyMF+DRaWz1rPztIPXZtC7str0Nv/e2l+aZ/NeKaCLiEg3uaT534FSvA6m1dXebkW2I/ptUzgFdBER6SYLsaC+J/5GpI/H7trn0nvBUDgFdBGRGtFYCSetrvPTB93K3UlYUD+/04YhaZS7iEiNaOCwkxnYXPKTsBSwH2r+/SXY6PZ2c8xp/tvBzf8f39xuenM/tzX3GY0CuoiIdKNvYF3urQFuH6J3idSB9J+yNh27IFgIvC1AHVNRl7uIiHSjhdjd9m1YYL6W9oPd2hmPdde3gvnBRBzd3qKALiIi3aoVjC/B7tZnYYF6oCltk7Hu9Vn0drO3LgqiU5e7iIh0s1Z3eetZeKvA+t3re9KbB34htuR11Gfm/Smgi4jENyJ2BfoZFrsCEZzfLEdgd+v9p7XNxQL8DOyOfqCBc9EooIuIxDcbuJn2C4IUrQdb1bCWHGYBXELEueR5JJriICIiUn0aFCciIlIDCugiIiI1oIAuIiJSAwroIiIiNaCALiIiUgMK6CIiIjWggC4iIlIDCugiIiI1oIAuIiJSAwroIiIiNaCALiIiUgMK6CIiIjWggC4iIlIDCugiIiI1oIAuIiJSAwroIiIiNaCALiIiUgMK6CIiIjWggC4iIlIDCugiIiI1oIAuIiJSAwroIiIiNaCALiIiUgMK6CIiIjWggC4iIlID/x+lfIhU5IqSiAAAAABJRU5ErkJggg==;" vertex="1" parent="H7LAwcqjLhsTPvcVJDRF-223">
          <mxGeometry x="232.27" y="40" width="112.27" height="54.56" as="geometry" />
        </mxCell>
        <mxCell id="H7LAwcqjLhsTPvcVJDRF-235" value="&lt;h1 style=&quot;margin-top: 0px;&quot;&gt;GPU Support&lt;/h1&gt;&lt;p&gt;Powers kubernetes nodes running ML Ops and desktop virtual machines&lt;/p&gt;" style="text;html=1;whiteSpace=wrap;overflow=hidden;rounded=0;" vertex="1" parent="H7LAwcqjLhsTPvcVJDRF-223">
          <mxGeometry x="582.27" y="5" width="180" height="120" as="geometry" />
        </mxCell>
        <mxCell id="H7LAwcqjLhsTPvcVJDRF-236" value="&lt;font style=&quot;font-size: 36px;&quot;&gt;&lt;b style=&quot;&quot;&gt;Homelab Rack&lt;/b&gt;&lt;/font&gt;" style="text;html=1;align=center;verticalAlign=middle;resizable=0;points=[];autosize=1;strokeColor=none;fillColor=none;" vertex="1" parent="1">
          <mxGeometry x="290" y="430" width="270" height="60" as="geometry" />
        </mxCell>
      </root>
    </mxGraphModel>
  </diagram>
</mxfile>
